<svg width="50" height="50" viewBox="0 0 50 50" fill="none" xmlns="http://www.w3.org/2000/svg">
<circle cx="25" cy="25" r="25" fill="white"/>
<path d="M25.0781 5C16.7507 5 10 11.7507 10 20.0781C10 22.863 10.5451 25.7394 12.1094 27.8125L25.0781 45L38.0469 27.8125C39.4677 25.9295 40.1562 22.6006 40.1562 20.0781C40.1563 11.7507 33.4055 5 25.0781 5ZM25.0781 13.7329C28.582 13.7329 31.4233 16.5743 31.4233 20.0781C31.4233 23.582 28.582 26.4233 25.0781 26.4233C21.5743 26.4233 18.7329 23.582 18.7329 20.0781C18.7329 16.5743 21.5743 13.7329 25.0781 13.7329Z" fill="#3B1283"/>
</svg>
