<svg width="80" height="80" viewBox="0 0 80 80" fill="none" xmlns="http://www.w3.org/2000/svg">
<path d="M72.1094 22.1562C71.0622 19.7315 69.5522 17.5343 67.6641 15.6875C65.7745 13.8352 63.5466 12.3632 61.1016 11.3516C58.5662 10.2984 55.8469 9.75931 53.1016 9.76562C49.25 9.76562 45.4922 10.8203 42.2266 12.8125C41.4453 13.2891 40.7031 13.8125 40 14.3828C39.2969 13.8125 38.5547 13.2891 37.7734 12.8125C34.5078 10.8203 30.75 9.76562 26.8984 9.76562C24.125 9.76562 21.4375 10.2969 18.8984 11.3516C16.4453 12.3672 14.2344 13.8281 12.3359 15.6875C10.4453 17.5322 8.93498 19.73 7.89063 22.1562C6.80469 24.6797 6.25 27.3594 6.25 30.1172C6.25 32.7188 6.78125 35.4297 7.83594 38.1875C8.71875 40.4922 9.98438 42.8828 11.6016 45.2969C14.1641 49.1172 17.6875 53.1016 22.0625 57.1406C29.3125 63.8359 36.4922 68.4609 36.7969 68.6484L38.6484 69.8359C39.4688 70.3594 40.5234 70.3594 41.3438 69.8359L43.1953 68.6484C43.5 68.4531 50.6719 63.8359 57.9297 57.1406C62.3047 53.1016 65.8281 49.1172 68.3906 45.2969C70.0078 42.8828 71.2813 40.4922 72.1563 38.1875C73.2109 35.4297 73.7422 32.7188 73.7422 30.1172C73.75 27.3594 73.1953 24.6797 72.1094 22.1562Z" fill="#393E46"/>
</svg>
