<svg width="148" height="35" viewBox="0 0 148 35" fill="none" xmlns="http://www.w3.org/2000/svg">
<path d="M9.73955 13.8067L13.1694 9.39029C13.5314 8.92409 14.1226 8.69753 14.7034 8.802C15.2844 8.90656 15.7594 9.32516 15.9361 9.88829L18.9726 19.5637L23.5187 12.7395C23.8315 12.27 24.3698 12.0025 24.9333 12.0353C25.4965 12.0689 25.9994 12.399 26.2544 12.9023L27.9159 16.1834L28.9577 14.6514C29.2531 14.217 29.7443 13.957 30.2696 13.957H39.4981C39.7511 12.94 39.869 11.8392 39.8043 10.6218C39.5169 5.23901 35.1263 0.793274 29.7496 0.793274C24.2219 0.793274 20.3069 6.70646 20.3069 6.70646C20.3069 6.70646 16.1565 0.793274 10.8665 0.793274C5.48936 0.793274 1.0986 5.23909 0.811279 10.6218C0.749325 11.7804 0.852607 12.8321 1.08043 13.8067H9.73955V13.8067Z" fill="#A3D8F4"/>
<path d="M2.33936 16.9797C2.54695 17.3516 2.76986 17.7153 3.0045 18.0731C5.77591 22.2976 20.2893 34.2067 20.2893 34.2067C20.2893 34.2067 34.8576 22.2609 37.6106 18.0731C37.8138 17.7641 38.0082 17.4502 38.1916 17.13H31.1095L29.0276 20.1915C28.712 20.656 28.1753 20.9185 27.614 20.8827C27.0537 20.8467 26.5541 20.5171 26.3003 20.0162L24.6521 16.7614L19.7733 24.0851C19.4766 24.5306 18.9787 24.7921 18.4532 24.7922C18.3788 24.7922 18.3037 24.7869 18.2287 24.7762C17.6238 24.6898 17.1222 24.2637 16.9392 23.6807L13.8164 13.7303L11.7693 16.3663C11.4687 16.7532 11.0063 16.9796 10.5163 16.9796" fill="#B9FFFC"/>
<path d="M5.39337 17.7363C5.05766 17.7363 4.75003 17.5152 4.64214 17.1977C4.53378 16.8789 4.64428 16.5189 4.91058 16.3136C5.16292 16.1191 5.5149 16.0988 5.7904 16.2569C6.07225 16.4187 6.23003 16.7514 6.17553 17.0721C6.11144 17.4496 5.77771 17.7363 5.39337 17.7363Z" fill="#393E46"/>
<path d="M8.01123 17.7363C7.67551 17.7363 7.36788 17.5152 7.26 17.1977C7.15164 16.8789 7.26214 16.5189 7.52844 16.3136C7.78078 16.1191 8.13276 16.0988 8.40826 16.2569C8.69011 16.4187 8.84789 16.7514 8.79339 17.0721C8.72929 17.4496 8.39557 17.7363 8.01123 17.7363Z" fill="#393E46"/>
<path d="M20.2894 35C20.1109 35 19.9325 34.9399 19.7861 34.8199C19.1898 34.3306 5.14681 22.7849 2.3413 18.5082C2.08278 18.1141 1.85567 17.7405 1.64672 17.3663C1.43326 16.9838 1.57025 16.5005 1.95284 16.287C2.33527 16.0737 2.8186 16.2107 3.03207 16.5932C3.22237 16.9342 3.43036 17.276 3.66786 17.6382C6.05501 21.277 17.7138 31.0412 20.2896 33.1778C22.805 31.093 33.9887 21.7362 36.7499 17.9233H31.5295L29.6837 20.6376C29.2126 21.3306 28.399 21.7283 27.5635 21.6743C26.7266 21.6205 25.9717 21.1225 25.5928 20.3746L24.5587 18.3325L20.4335 24.5249C19.9914 25.1888 19.2512 25.5853 18.4534 25.5855C18.3414 25.5855 18.2283 25.5774 18.117 25.5616C17.2146 25.4327 16.4553 24.7877 16.1825 23.9182L13.5135 15.4139L12.396 16.853C11.9417 17.4377 11.2567 17.7731 10.5165 17.7731C10.0784 17.7731 9.7232 17.4178 9.7232 16.9798C9.7232 16.5417 10.0784 16.1865 10.5165 16.1865C10.7632 16.1865 10.9915 16.0748 11.143 15.8798L13.19 13.2439C13.371 13.0108 13.6662 12.8975 13.9571 12.9497C14.2475 13.002 14.485 13.2113 14.5734 13.493L17.6962 23.4433C17.7871 23.733 18.0403 23.9481 18.341 23.991C18.3782 23.9962 18.416 23.999 18.4534 23.999C18.7191 23.9989 18.9658 23.8669 19.1131 23.6455L23.9921 16.3217C24.1485 16.0869 24.4177 15.9532 24.6993 15.9697C24.981 15.9864 25.2325 16.1515 25.3599 16.4032L27.0081 19.658C27.1344 19.9073 27.3861 20.0733 27.6649 20.0912C27.944 20.1093 28.2148 19.9767 28.3717 19.7457L30.4536 16.6841C30.6013 16.467 30.8469 16.3369 31.1096 16.3369H38.1917C38.4746 16.3369 38.7361 16.4876 38.878 16.7324C39.0199 16.9772 39.0207 17.279 38.8799 17.5244C38.6969 17.844 38.4928 18.1752 38.2735 18.509C35.4861 22.7491 21.391 34.3293 20.7923 34.8202C20.6462 34.94 20.4677 35 20.2894 35Z" fill="#393E46"/>
<path d="M18.9729 20.357C18.9357 20.357 18.8983 20.3544 18.8607 20.349C18.5582 20.3059 18.3074 20.0929 18.2159 19.8013L15.1794 10.1259C15.0907 9.84338 14.8545 9.63523 14.563 9.58279C14.2717 9.5302 13.9777 9.64308 13.7959 9.87693L10.3662 14.2934C10.2159 14.4869 9.98466 14.6001 9.7397 14.6001H1.08042C0.71187 14.6001 0.39187 14.3463 0.308023 13.9874C0.0500553 12.884 -0.0444217 11.7693 0.0191182 10.5797C0.169599 7.76052 1.3606 5.11302 3.37262 3.1248C5.41184 1.10977 8.07322 0 10.8664 0C15.2839 0 18.8635 3.68111 20.2923 5.39733C21.674 3.66993 25.1516 0 29.7496 0C32.5427 0 35.2039 1.10969 37.2431 3.1248C39.2551 5.11294 40.446 7.76044 40.5964 10.5797C40.6628 11.8263 40.5554 12.9936 40.268 14.1485C40.1801 14.5021 39.8626 14.7503 39.4982 14.7503H30.2698C30.0069 14.7503 29.7617 14.8802 29.6138 15.0975L28.572 16.6295C28.4142 16.8616 28.1461 16.9929 27.8652 16.9751C27.585 16.957 27.3352 16.7922 27.2084 16.5418L25.5469 13.2607C25.4199 13.0101 25.1667 12.844 24.8862 12.8272C24.6061 12.8102 24.3345 12.9458 24.179 13.1793L19.6329 20.0034C19.4846 20.2262 19.2356 20.357 18.9729 20.357ZM14.4193 7.98327C14.5601 7.98327 14.7021 7.99572 14.844 8.02134C15.7186 8.17873 16.4269 8.8031 16.6931 9.65078L19.2327 17.7427L22.8587 12.2998C23.3254 11.5992 24.1377 11.1952 24.9796 11.2435C25.822 11.2937 26.5813 11.7919 26.9622 12.5439L28.0163 14.6255L28.3019 14.2055C28.7455 13.5532 29.4811 13.1639 30.2698 13.1639H38.859C39.0084 12.3572 39.0586 11.534 39.0123 10.6642C38.7452 5.65886 34.5899 1.5866 29.7497 1.5866C24.7065 1.5866 21.0052 7.08887 20.9684 7.1444C20.8237 7.3631 20.58 7.49613 20.3178 7.4997C20.3142 7.49978 20.3106 7.49978 20.307 7.49978C20.0487 7.49978 19.8064 7.37397 19.6578 7.16225C19.6189 7.10704 15.6746 1.5866 10.8666 1.5866C6.02622 1.5866 1.87074 5.65886 1.60349 10.6643C1.55986 11.4811 1.60119 12.2552 1.72962 13.0136H9.35148L12.5431 8.90376C12.9994 8.31604 13.6924 7.98327 14.4193 7.98327Z" fill="#393E46"/>
<path d="M42.32 24V9.9H45.38L49.88 17.98L54.38 9.9H57.36V24H54.04V16.34L50.82 21.92H48.82L45.64 16.42V24H42.32ZM64.6958 24.22C63.6024 24.22 62.6491 24.0133 61.8358 23.6C61.0224 23.1867 60.3891 22.5933 59.9358 21.82C59.4824 21.0467 59.2558 20.1333 59.2558 19.08C59.2558 18.0133 59.4824 17.1 59.9358 16.34C60.3891 15.5667 61.0224 14.9733 61.8358 14.56C62.6491 14.1467 63.6024 13.94 64.6958 13.94C65.7891 13.94 66.7424 14.1467 67.5558 14.56C68.3691 14.9733 68.9958 15.5667 69.4358 16.34C69.8891 17.1 70.1158 18.0133 70.1158 19.08C70.1158 20.1333 69.8891 21.0467 69.4358 21.82C68.9958 22.5933 68.3691 23.1867 67.5558 23.6C66.7424 24.0133 65.7891 24.22 64.6958 24.22ZM64.6958 21.6C65.2291 21.6 65.6691 21.4 66.0158 21C66.3624 20.6 66.5358 19.96 66.5358 19.08C66.5358 18.1867 66.3624 17.5467 66.0158 17.16C65.6691 16.76 65.2291 16.56 64.6958 16.56C64.1491 16.56 63.7024 16.76 63.3558 17.16C63.0091 17.5467 62.8358 18.1867 62.8358 19.08C62.8358 19.96 63.0091 20.6 63.3558 21C63.7024 21.4 64.1491 21.6 64.6958 21.6ZM71.747 24V14.16H75.207V15.5C75.5537 14.9933 76.0004 14.6067 76.547 14.34C77.0937 14.0733 77.707 13.94 78.387 13.94C79.5604 13.94 80.427 14.2867 80.987 14.98C81.5604 15.6733 81.847 16.74 81.847 18.18V24H78.287V18.32C78.287 17.72 78.1804 17.2933 77.967 17.04C77.767 16.7867 77.467 16.66 77.067 16.66C76.5337 16.66 76.107 16.8333 75.787 17.18C75.467 17.5133 75.307 17.9667 75.307 18.54V24H71.747ZM84.1159 24V9.9H87.7959V15.34H93.6159V9.9H97.2759V24H93.6159V18.36H87.7959V24H84.1159ZM104.959 24.22C103.759 24.22 102.719 24.0133 101.839 23.6C100.972 23.1733 100.305 22.5733 99.8386 21.8C99.3719 21.0267 99.1386 20.1133 99.1386 19.06C99.1386 18.06 99.3586 17.1733 99.7986 16.4C100.252 15.6267 100.865 15.0267 101.639 14.6C102.425 14.16 103.319 13.94 104.319 13.94C105.305 13.94 106.159 14.1467 106.879 14.56C107.612 14.9733 108.172 15.5667 108.559 16.34C108.959 17.1 109.159 17.9933 109.159 19.02V19.8H102.539C102.659 20.44 102.925 20.9 103.339 21.18C103.752 21.46 104.325 21.6 105.059 21.6C105.565 21.6 106.092 21.5267 106.639 21.38C107.199 21.22 107.692 20.9933 108.119 20.7L108.999 23.04C108.492 23.4 107.872 23.6867 107.139 23.9C106.405 24.1133 105.679 24.22 104.959 24.22ZM104.479 16.24C103.945 16.24 103.505 16.4 103.159 16.72C102.825 17.04 102.612 17.5067 102.519 18.12H106.239C106.199 17.4933 106.025 17.0267 105.719 16.72C105.425 16.4 105.012 16.24 104.479 16.24ZM114.112 24.22C113.352 24.22 112.679 24.08 112.092 23.8C111.519 23.52 111.066 23.14 110.732 22.66C110.412 22.1667 110.252 21.6067 110.252 20.98C110.252 20.2733 110.439 19.7133 110.812 19.3C111.186 18.8733 111.786 18.5733 112.612 18.4C113.439 18.2133 114.539 18.12 115.912 18.12H116.672V17.84C116.672 17.36 116.546 17.02 116.292 16.82C116.052 16.62 115.632 16.52 115.032 16.52C114.526 16.52 113.966 16.6 113.352 16.76C112.739 16.92 112.139 17.1667 111.552 17.5L110.652 15.16C110.986 14.92 111.412 14.7067 111.932 14.52C112.452 14.3333 112.999 14.1933 113.572 14.1C114.146 13.9933 114.686 13.94 115.192 13.94C116.832 13.94 118.046 14.2933 118.832 15C119.632 15.7067 120.032 16.82 120.032 18.34V24H116.712V22.6C116.539 23.1067 116.226 23.5067 115.772 23.8C115.319 24.08 114.766 24.22 114.112 24.22ZM114.912 21.9C115.406 21.9 115.819 21.74 116.152 21.42C116.499 21.1 116.672 20.68 116.672 20.16V19.8H115.912C115.126 19.8 114.546 19.8867 114.172 20.06C113.812 20.22 113.632 20.48 113.632 20.84C113.632 21.1467 113.739 21.4 113.952 21.6C114.179 21.8 114.499 21.9 114.912 21.9ZM122.06 24V14.16H125.52V15.82C125.973 14.6867 126.953 14.0667 128.46 13.96L129.44 13.88L129.64 16.88L127.7 17.06C126.993 17.1267 126.48 17.3267 126.16 17.66C125.84 17.98 125.68 18.46 125.68 19.1V24H122.06ZM136.477 24.22C134.984 24.22 133.877 23.8733 133.157 23.18C132.437 22.4867 132.077 21.44 132.077 20.04V16.78H130.237V14.16H132.077V11.3H135.637V14.16H138.437V16.78H135.637V19.92C135.637 20.88 136.124 21.36 137.097 21.36C137.257 21.36 137.431 21.3467 137.617 21.32C137.817 21.28 138.037 21.2267 138.277 21.16L138.757 23.72C138.451 23.88 138.091 24 137.677 24.08C137.264 24.1733 136.864 24.22 136.477 24.22Z" fill="#393E46"/>
</svg>
