<svg width="65" height="65" viewBox="0 0 65 65" fill="none" xmlns="http://www.w3.org/2000/svg">
<path d="M9.04197 24.5351L8.37889 46.211L19.8506 64.8736C20.6358 64.9569 21.4246 65 22.2134 65C25.4062 65 28.599 64.318 31.5519 62.9545L31.8652 40.2442L18.6764 14.9023L9.04197 24.5351Z" fill="#FFDF6B"/>
<path d="M31.5519 62.9545C33.8625 61.8877 36.0261 60.4038 37.928 58.5023L48.8197 47.6125L30.3418 39.8633L25.7874 41.4411L31.5519 62.9545Z" fill="#9DCE6C"/>
<path d="M6.49872 27.078C-2.16622 35.7418 -2.16622 49.8386 6.49872 58.5023C10.2308 62.2337 14.9708 64.3565 19.8506 64.8737L9.04197 24.5351L6.49872 27.078Z" fill="#DAE789"/>
<path d="M58.5011 6.50825C54.3036 2.31131 48.7227 0 42.7865 0C36.8503 0 31.2693 2.31131 27.0719 6.50825L18.6765 14.9023L25.7875 41.4411L48.8198 47.6125L58.5013 37.9326C67.1662 29.2688 67.1662 15.1719 58.5011 6.50825Z" fill="#9DCE6C"/>
<path d="M42.7832 36.8096C39.0446 36.8096 35.3059 35.3865 32.4598 32.5403C26.7673 26.8479 26.7673 17.5857 32.4598 11.8934C38.1521 6.20091 47.4145 6.20091 53.1068 11.8934C58.7991 17.5857 58.7991 26.8479 53.1068 32.5403C50.2605 35.3865 46.5219 36.8096 42.7832 36.8096Z" fill="#FFD5B2"/>
<path d="M35.6016 33.8418C34.4147 33.8418 33.2989 33.3795 32.4598 32.5404C31.6205 31.7012 31.1584 30.5853 31.1584 29.3984C31.1584 28.2115 31.6206 27.0957 32.4598 26.2564C33.2989 25.4172 34.4147 24.955 35.6016 24.955C36.7886 24.955 37.9044 25.4173 38.7435 26.2564C39.5827 27.0956 40.0449 28.2115 40.0449 29.3984C40.0449 30.5853 39.5827 31.7011 38.7435 32.5404C37.9043 33.3795 36.7885 33.8418 35.6016 33.8418Z" fill="#9DDFF6"/>
<path d="M46.8228 26.3654C47.8746 26.3654 48.7271 25.5128 48.7271 24.4611C48.7271 23.4094 47.8746 22.5568 46.8228 22.5568C45.7711 22.5568 44.9185 23.4094 44.9185 24.4611C44.9185 25.5128 45.7711 26.3654 46.8228 26.3654Z" fill="#453D81"/>
<path d="M40.5389 20.0815C41.5906 20.0815 42.4432 19.2289 42.4432 18.1772C42.4432 17.1254 41.5906 16.2729 40.5389 16.2729C39.4872 16.2729 38.6346 17.1254 38.6346 18.1772C38.6346 19.2289 39.4872 20.0815 40.5389 20.0815Z" fill="#6B61B1"/>
</svg>
