<svg width="19" height="22" viewBox="0 0 19 22" fill="none" xmlns="http://www.w3.org/2000/svg">
<path fill-rule="evenodd" clip-rule="evenodd" d="M7.445 0.492497C7.5323 0.579583 7.60157 0.683037 7.64883 0.796934C7.6961 0.910831 7.72042 1.03293 7.72042 1.15625C7.72042 1.27956 7.6961 1.40166 7.64883 1.51556C7.60157 1.62946 7.5323 1.73291 7.445 1.82L2.48187 6.78125L7.445 11.7425C7.53216 11.8297 7.60131 11.9331 7.64848 12.047C7.69565 12.1609 7.71993 12.283 7.71993 12.4062C7.71993 12.5295 7.69565 12.6516 7.64848 12.7655C7.60131 12.8794 7.53216 12.9828 7.445 13.07C7.35783 13.1572 7.25435 13.2263 7.14047 13.2735C7.02658 13.3207 6.90452 13.3449 6.78125 13.3449C6.65798 13.3449 6.53591 13.3207 6.42203 13.2735C6.30814 13.2263 6.20466 13.1572 6.1175 13.07L0.492497 7.445C0.405191 7.35791 0.335924 7.25446 0.288661 7.14056C0.241399 7.02666 0.217072 6.90456 0.217072 6.78125C0.217072 6.65793 0.241399 6.53583 0.288661 6.42193C0.335924 6.30804 0.405191 6.20458 0.492497 6.1175L6.1175 0.492497C6.20458 0.405191 6.30804 0.335924 6.42193 0.288661C6.53583 0.241399 6.65793 0.217072 6.78125 0.217072C6.90456 0.217072 7.02666 0.241399 7.14056 0.288661C7.25446 0.335924 7.35791 0.405191 7.445 0.492497Z" fill="#000003"/>
<path fill-rule="evenodd" clip-rule="evenodd" d="M1.15625 6.78125C1.15625 6.53261 1.25502 6.29415 1.43084 6.11834C1.60665 5.94252 1.84511 5.84375 2.09375 5.84375H14.2812C15.5245 5.84375 16.7167 6.33761 17.5958 7.21669C18.4749 8.09576 18.9688 9.28805 18.9688 10.5312V20.8438C18.9688 21.0924 18.87 21.3308 18.6942 21.5067C18.5183 21.6825 18.2799 21.7812 18.0312 21.7812C17.7826 21.7812 17.5442 21.6825 17.3683 21.5067C17.1925 21.3308 17.0938 21.0924 17.0938 20.8438V10.5312C17.0938 9.78533 16.7974 9.06996 16.27 8.54251C15.7425 8.01507 15.0272 7.71875 14.2812 7.71875H2.09375C1.84511 7.71875 1.60665 7.61998 1.43084 7.44416C1.25502 7.26835 1.15625 7.02989 1.15625 6.78125Z" fill="#000003"/>
</svg>
