<svg width="30" height="30" viewBox="0 0 30 30" fill="none" xmlns="http://www.w3.org/2000/svg">
<path fill-rule="evenodd" clip-rule="evenodd" d="M11.445 4.4925C11.5323 4.57958 11.6016 4.68304 11.6488 4.79693C11.6961 4.91083 11.7204 5.03293 11.7204 5.15625C11.7204 5.27956 11.6961 5.40166 11.6488 5.51556C11.6016 5.62946 11.5323 5.73291 11.445 5.82L6.48187 10.7812L11.445 15.7425C11.5322 15.8297 11.6013 15.9331 11.6485 16.047C11.6957 16.1609 11.7199 16.283 11.7199 16.4062C11.7199 16.5295 11.6957 16.6516 11.6485 16.7655C11.6013 16.8794 11.5322 16.9828 11.445 17.07C11.3578 17.1572 11.2544 17.2263 11.1405 17.2735C11.0266 17.3207 10.9045 17.3449 10.7812 17.3449C10.658 17.3449 10.5359 17.3207 10.422 17.2735C10.3081 17.2263 10.2047 17.1572 10.1175 17.07L4.4925 11.445C4.40519 11.3579 4.33592 11.2545 4.28866 11.1406C4.2414 11.0267 4.21707 10.9046 4.21707 10.7812C4.21707 10.6579 4.2414 10.5358 4.28866 10.4219C4.33592 10.308 4.40519 10.2046 4.4925 10.1175L10.1175 4.4925C10.2046 4.40519 10.308 4.33592 10.4219 4.28866C10.5358 4.2414 10.6579 4.21707 10.7812 4.21707C10.9046 4.21707 11.0267 4.2414 11.1406 4.28866C11.2545 4.33592 11.3579 4.40519 11.445 4.4925V4.4925Z" fill="#3B1283"/>
<path fill-rule="evenodd" clip-rule="evenodd" d="M5.15625 10.7812C5.15625 10.5326 5.25502 10.2942 5.43084 10.1183C5.60665 9.94252 5.84511 9.84375 6.09375 9.84375H18.2812C19.5245 9.84375 20.7167 10.3376 21.5958 11.2167C22.4749 12.0958 22.9688 13.288 22.9688 14.5312V24.8438C22.9688 25.0924 22.87 25.3308 22.6942 25.5067C22.5183 25.6825 22.2799 25.7812 22.0312 25.7812C21.7826 25.7812 21.5442 25.6825 21.3683 25.5067C21.1925 25.3308 21.0938 25.0924 21.0938 24.8438V14.5312C21.0937 13.7853 20.7974 13.07 20.27 12.5425C19.7425 12.0151 19.0272 11.7188 18.2812 11.7188H6.09375C5.84511 11.7188 5.60665 11.62 5.43084 11.4442C5.25502 11.2683 5.15625 11.0299 5.15625 10.7812Z" fill="#3B1283"/>
</svg>
