<svg width="300" height="269" viewBox="0 0 300 269" fill="none" xmlns="http://www.w3.org/2000/svg">
<path d="M92.7773 141.662C89.1254 140.996 85.8341 139.091 82.5897 137.258C82.249 137.005 81.8293 136.883 81.4064 136.913C81.0975 137.02 80.8256 137.213 80.6227 137.469C78.6683 139.545 77.5156 142.247 77.3706 145.094C77.3351 145.409 77.381 145.727 77.5038 146.019C77.6683 146.288 77.8973 146.511 78.1699 146.669C82.7716 149.819 88.0909 151.762 93.6393 152.32C94.9721 152.526 96.3347 152.422 97.6203 152.014C99.1876 151.418 100.316 150.11 101.398 148.879C102.693 147.487 103.812 145.939 104.728 144.271C106.82 140.095 105.512 139.742 101.938 140.917C98.9952 141.929 95.8451 142.185 92.7773 141.662V141.662Z" fill="#3B1283"/>
<path d="M92.7773 141.662C89.1254 140.996 85.8341 139.091 82.5897 137.258C82.249 137.005 81.8293 136.883 81.4064 136.913C81.0975 137.02 80.8256 137.213 80.6227 137.469C78.6683 139.545 77.5156 142.247 77.3706 145.094C77.3351 145.409 77.381 145.727 77.5038 146.019C77.6683 146.288 77.8973 146.511 78.1699 146.669C82.7716 149.819 88.0909 151.762 93.6393 152.32C94.9721 152.526 96.3347 152.422 97.6203 152.014C99.1876 151.418 100.316 150.11 101.398 148.879C102.693 147.487 103.812 145.939 104.728 144.271C106.82 140.095 105.512 139.742 101.938 140.917C98.9952 141.929 95.8451 142.185 92.7773 141.662V141.662Z" fill="url(#paint0_linear)"/>
<path d="M81.9706 136.772C82.4016 137.399 82.1352 138.245 81.8531 138.958L80.2858 142.963C79.8077 144.193 79.1808 145.557 77.9348 145.972C77.8364 146.016 77.7274 146.029 77.6213 146.011C77.3862 145.948 77.3079 145.651 77.2922 145.4C77.1666 143.665 77.5404 141.931 78.3695 140.402C79.1986 138.873 80.4482 137.613 81.9706 136.772Z" fill="url(#paint1_linear)"/>
<path d="M115.762 201.251L123.465 233.044L139.413 209.652L176.025 235.309L162.75 170.109L115.762 201.251Z" fill="#3B1283"/>
<path d="M115.762 201.251L123.465 233.044L139.413 209.652L176.025 235.309L162.75 170.109L115.762 201.251Z" fill="url(#paint2_linear)"/>
<path d="M90.3793 169.787C90.3793 169.787 86.6883 174.082 88.0283 182.114C89.3684 190.147 99.6813 239.643 99.6813 239.643L105.277 240.779L109.062 206.98C109.062 206.98 122.909 192.412 139.178 203.704C155.446 214.997 163.064 242.385 163.064 242.385L170.618 242.511L162.539 176.903L90.3793 169.787Z" fill="#3B1283"/>
<path d="M90.3793 169.787C90.3793 169.787 86.6883 174.082 88.0283 182.114C89.3684 190.147 99.6813 239.643 99.6813 239.643L105.277 240.779L109.062 206.98C109.062 206.98 122.909 192.412 139.178 203.704C155.446 214.997 163.064 242.385 163.064 242.385L170.618 242.511L162.539 176.903L90.3793 169.787Z" fill="url(#paint3_linear)"/>
<path d="M121.733 125.362C121.733 125.362 87.1271 150.65 87.7932 174.528C87.7932 174.528 98.835 190.405 128.614 186.354C158.393 182.302 162.539 176.903 162.539 176.903C162.539 176.903 167.609 129.57 162.97 125.479C158.33 121.389 128.144 120.111 121.733 125.362Z" fill="#3B1283"/>
<path d="M121.733 125.362C121.733 125.362 87.1271 150.65 87.7932 174.528C87.7932 174.528 98.835 190.405 128.614 186.354C158.393 182.302 167.577 193.885 167.577 193.885C167.577 193.885 158.628 163.777 162.97 125.479C163.659 119.328 128.144 120.111 121.733 125.362Z" fill="url(#paint4_linear)"/>
<path d="M158.659 122.039L155.211 135.8L148.942 135.385L150.102 138.739C150.102 138.739 117.4 148.778 116.405 150.494L136.592 131.553L153.926 121.24L158.659 122.039Z" fill="url(#paint5_linear)"/>
<path d="M130.84 121.302L119.531 128.152L120.817 131.639L116.169 133.206L116.232 154.773C116.232 154.773 116.82 144.091 119.97 140.392C123.121 136.693 136.215 123.152 136.215 123.152L130.84 121.302Z" fill="url(#paint6_linear)"/>
<path d="M136.215 123.113C136.215 123.113 116.804 136.882 116.397 150.47C116.397 150.47 133.167 133.567 149.757 128.755C151.042 128.379 153.197 124.445 153.197 124.445L136.215 123.113Z" fill="white"/>
<path d="M87.4562 245.191C86.892 245.575 86.2808 246.084 86.3043 246.758C86.3444 247.104 86.4893 247.43 86.7196 247.691C88.3653 249.791 91.4764 249.924 94.1252 249.595C96.6831 249.271 99.2029 248.696 101.648 247.879C102.433 247.537 103.284 247.373 104.14 247.401C104.464 247.463 104.791 247.502 105.12 247.518C105.445 247.471 105.755 247.351 106.027 247.166C106.298 246.982 106.524 246.738 106.687 246.453C108.043 244.431 107.22 241.429 105.237 240.003C102.502 238.028 99.9556 239.102 97.3225 240.356C93.9919 241.962 90.5909 243.075 87.4562 245.191Z" fill="#3B1283"/>
<path d="M180.61 248.232C181.119 248.678 181.66 249.266 181.542 249.94C181.457 250.275 181.271 250.576 181.009 250.802C179.097 252.667 175.994 252.369 173.416 251.695C170.924 251.036 168.503 250.13 166.19 248.992C165.452 248.559 164.628 248.292 163.777 248.208C163.451 248.235 163.123 248.235 162.797 248.208C162.477 248.122 162.182 247.963 161.933 247.744C161.685 247.525 161.49 247.252 161.363 246.946C160.297 244.76 161.512 241.892 163.667 240.748C166.645 239.18 169.019 240.56 171.464 242.15C174.591 244.133 177.781 245.7 180.61 248.232Z" fill="#3B1283"/>
<path d="M87.4562 245.191C86.892 245.575 86.2808 246.084 86.3043 246.758C86.3444 247.104 86.4893 247.43 86.7196 247.691C88.3653 249.791 91.4764 249.924 94.1252 249.595C96.6831 249.271 99.2029 248.696 101.648 247.879C102.433 247.537 103.284 247.373 104.14 247.401C104.464 247.463 104.791 247.502 105.12 247.518C105.445 247.471 105.755 247.351 106.027 247.166C106.298 246.982 106.524 246.738 106.687 246.453C108.043 244.431 107.22 241.429 105.237 240.003C102.502 238.028 99.9556 239.102 97.3225 240.356C93.9919 241.962 90.5909 243.075 87.4562 245.191Z" fill="url(#paint7_linear)"/>
<path d="M180.61 248.232C181.119 248.678 181.66 249.266 181.542 249.94C181.457 250.275 181.271 250.576 181.009 250.802C179.097 252.667 175.994 252.369 173.416 251.695C170.924 251.036 168.503 250.13 166.19 248.992C165.452 248.559 164.628 248.292 163.777 248.208C163.451 248.235 163.123 248.235 162.797 248.208C162.477 248.122 162.182 247.963 161.933 247.744C161.685 247.525 161.49 247.252 161.363 246.946C160.297 244.76 161.512 241.892 163.667 240.748C166.645 239.18 169.019 240.56 171.464 242.15C174.591 244.133 177.781 245.7 180.61 248.232Z" fill="url(#paint8_linear)"/>
<path d="M149.201 128.097C150.833 127.764 152.384 127.117 153.769 126.192C156.904 123.951 158.244 119.978 159.043 116.209C159.404 114.461 159.702 112.706 159.913 110.935C160.101 109.367 160.117 107.526 158.879 106.57C157.641 105.614 148.221 111.797 146.873 112.643C143.739 114.618 140.557 116.749 138.48 119.915C133.034 128.246 142.712 129.625 149.201 128.097Z" fill="#F6C1B1"/>
<path d="M149.201 128.097C150.833 127.764 152.384 127.117 153.769 126.192C156.904 123.951 158.244 119.978 159.043 116.209C159.404 114.461 159.702 112.706 159.913 110.935C160.101 109.367 160.117 107.526 158.879 106.57C157.641 105.614 148.221 111.797 146.873 112.643C143.739 114.618 140.557 116.749 138.48 119.915C133.034 128.246 142.712 129.625 149.201 128.097Z" fill="url(#paint9_linear)"/>
<path d="M130.448 96.1392C129.664 100.214 127.877 104.054 127.054 108.129C126.232 112.204 126.514 116.851 129.335 119.884C131.106 121.804 133.629 122.831 136.137 123.528C139.115 124.359 142.32 124.79 145.275 123.904C146.468 123.508 147.625 123.007 148.73 122.407C151.92 120.793 155.251 119.061 157.21 116.068C158.168 114.475 158.856 112.736 159.247 110.919C160.137 107.644 160.432 104.236 160.117 100.857C160.093 100.386 159.959 99.9268 159.725 99.5168C159.442 99.1599 159.087 98.8662 158.683 98.6547L151.63 94.2898C150.151 93.3107 148.575 92.4862 146.928 91.8291C145.196 91.2683 143.395 90.9466 141.576 90.873C138.747 90.6849 135.479 90.489 132.697 91.1394C129.915 91.7899 130.879 93.9371 130.448 96.1392Z" fill="#F6C1B1"/>
<path d="M156.301 113.724L158.017 111.107C158.085 110.977 158.188 110.868 158.315 110.794C158.691 110.598 159.098 111.044 159.224 111.452C159.532 112.722 159.371 114.061 158.769 115.221C158.275 116.334 157.319 117.525 156.113 117.345C156.833 118.444 157.311 119.683 157.515 120.981C161.598 116.42 162.507 109.861 162.57 103.741C162.57 103.576 163.228 102.354 163.118 102.228C163.036 102.143 162.934 102.081 162.821 102.048C160.83 101.319 157.954 101.852 155.823 101.844C153.691 101.836 153.597 102.408 154.005 104.587C154.412 106.766 157.664 111.64 156.301 113.724Z" fill="#E5E1E2"/>
<path d="M156.301 113.724L158.017 111.107C158.085 110.977 158.188 110.868 158.315 110.794C158.691 110.598 159.098 111.044 159.224 111.452C159.532 112.722 159.371 114.061 158.769 115.221C158.275 116.334 157.319 117.525 156.113 117.345C156.833 118.444 157.311 119.683 157.515 120.981C161.598 116.42 162.507 109.861 162.57 103.741C162.57 103.576 163.228 102.354 163.118 102.228C163.036 102.143 162.934 102.081 162.821 102.048C160.83 101.319 157.954 101.852 155.823 101.844C153.691 101.836 153.597 102.408 154.005 104.587C154.412 106.766 157.664 111.64 156.301 113.724Z" fill="url(#paint10_linear)"/>
<path d="M172.797 101.75C175.633 101.358 178.666 100.684 180.555 98.5372C181.244 97.7535 181.722 96.5232 181.064 95.7082C180.8 95.4587 180.489 95.2655 180.148 95.1402C179.807 95.0149 179.444 94.9602 179.082 94.9794C172.405 94.4386 165.689 94.2819 159.051 93.412C149.106 92.0893 139.417 89.2702 130.315 85.0504C127.556 83.7887 122.525 81.7982 121.373 86.124C120.276 90.2461 125.73 92.3933 128.543 93.8509C137.142 98.3838 146.551 101.175 156.23 102.064C161.746 102.586 167.304 102.481 172.797 101.75V101.75Z" fill="#3B1283"/>
<path d="M172.797 101.75C175.633 101.358 178.666 100.684 180.555 98.5372C181.244 97.7535 181.722 96.5232 181.064 95.7082C180.8 95.4587 180.489 95.2655 180.148 95.1402C179.807 95.0149 179.444 94.9602 179.082 94.9794C172.405 94.4386 165.689 94.2819 159.051 93.412C149.106 92.0893 139.417 89.2702 130.315 85.0504C127.556 83.7887 122.525 81.7982 121.373 86.124C120.276 90.2461 125.73 92.3933 128.543 93.8509C137.142 98.3838 146.551 101.175 156.23 102.064C161.746 102.586 167.304 102.481 172.797 101.75V101.75Z" fill="url(#paint11_linear)"/>
<path d="M133.959 87.9656L135.62 48.2185C135.62 48.2185 153.417 42.3567 171.457 51.6352C189.496 60.9138 185.092 62.6065 185.092 62.6065L163.064 93.9528C163.064 93.9528 138.206 93.1613 133.959 87.9656Z" fill="#3B1283"/>
<path d="M181.064 95.7082C180.8 95.4587 180.489 95.2655 180.148 95.1402C179.807 95.0149 179.444 94.9602 179.082 94.9794C172.405 94.4386 165.689 94.2819 159.051 93.4121" fill="url(#paint12_linear)"/>
<path d="M133.959 87.9656L135.62 48.2185C135.62 48.2185 153.417 42.3567 171.457 51.6352C189.496 60.9138 185.092 62.6065 185.092 62.6065L163.064 93.9528C163.064 93.9528 138.206 93.1613 133.959 87.9656Z" fill="url(#paint13_linear)"/>
<path d="M124.406 113.489C123.645 114.674 122.663 115.701 121.514 116.514C120.299 117.227 118.544 117.251 117.658 116.162C117.674 116.819 117.87 117.459 118.226 118.011C118.581 118.564 119.081 119.009 119.672 119.296C120.859 119.855 122.162 120.123 123.473 120.08C125.611 120.196 127.749 119.852 129.742 119.069C130.73 118.674 131.629 118.087 132.388 117.342C133.146 116.596 133.75 115.708 134.162 114.728C133.819 116.355 133.936 118.046 134.499 119.611C135.062 121.176 136.049 122.553 137.35 123.589C138.651 124.625 140.215 125.279 141.866 125.477C143.518 125.675 145.192 125.41 146.701 124.711C145.756 124.802 144.808 124.573 144.008 124.062C143.209 123.55 142.603 122.786 142.289 121.89C141.646 119.908 142.555 117.705 142.03 115.699C141.247 112.745 136.858 110.59 134.194 109.579C130.299 108.113 126.702 110.519 124.406 113.489Z" fill="#E5E1E2"/>
<path d="M124.406 113.489C123.645 114.674 122.663 115.701 121.514 116.514C120.299 117.227 118.544 117.251 117.658 116.162C117.674 116.819 117.87 117.459 118.226 118.011C118.581 118.564 119.081 119.009 119.672 119.296C120.859 119.855 122.162 120.123 123.473 120.08C125.611 120.196 127.749 119.852 129.742 119.069C130.73 118.674 131.629 118.087 132.388 117.342C133.146 116.596 133.75 115.708 134.162 114.728C133.819 116.355 133.936 118.046 134.499 119.611C135.062 121.176 136.049 122.553 137.35 123.589C138.651 124.625 140.215 125.279 141.866 125.477C143.518 125.675 145.192 125.41 146.701 124.711C145.756 124.802 144.808 124.573 144.008 124.062C143.209 123.55 142.603 122.786 142.289 121.89C141.646 119.908 142.555 117.705 142.03 115.699C141.247 112.745 136.858 110.59 134.194 109.579C130.299 108.113 126.702 110.519 124.406 113.489Z" fill="url(#paint14_linear)"/>
<path d="M162.97 125.479C162.97 125.479 169.874 131.49 172.616 143.276C175.359 155.062 177.138 173.596 188.807 176.394C200.475 179.191 198.626 180.312 198.626 180.312L194.441 190.115C194.441 190.115 177.898 188.493 174.239 183.008C170.579 177.522 160.634 155.58 156.598 145.251C154.851 140.823 151.027 130.503 162.97 125.479Z" fill="#3B1283"/>
<path d="M162.97 125.479C162.97 125.479 169.874 131.49 172.616 143.276C175.359 155.062 177.138 173.596 188.807 176.394C200.475 179.191 198.626 180.312 198.626 180.312L194.441 190.115C194.441 190.115 177.898 188.493 174.239 183.008C170.579 177.522 160.634 155.58 156.598 145.251C154.851 140.823 151.027 130.503 162.97 125.479Z" fill="url(#paint15_linear)"/>
<path d="M195.123 180.171C194.206 180.702 193.372 181.365 192.647 182.138C192.081 182.648 191.602 183.246 191.228 183.909C190.655 185.213 190.599 186.687 191.072 188.031C191.228 188.739 191.61 189.377 192.161 189.849C192.625 190.159 193.17 190.326 193.728 190.327C196.079 190.429 198.14 188.76 199.41 186.801C200.23 185.644 200.653 184.253 200.616 182.835C200.374 179.944 197.505 178.925 195.123 180.171Z" fill="#3B1283"/>
<path d="M195.123 180.171C194.206 180.702 193.372 181.365 192.647 182.138C192.081 182.648 191.602 183.246 191.228 183.909C190.655 185.213 190.599 186.687 191.072 188.031C191.228 188.739 191.61 189.377 192.161 189.849C192.625 190.159 193.17 190.326 193.728 190.327C196.079 190.429 198.14 188.76 199.41 186.801C200.23 185.644 200.653 184.253 200.616 182.835C200.374 179.944 197.505 178.925 195.123 180.171Z" fill="url(#paint16_linear)"/>
<path d="M202.466 180.657C205.193 179.967 207.889 179.089 210.694 178.886C213.5 178.682 216.509 179.348 218.531 181.331C219.547 182.375 220.23 183.697 220.493 185.13C220.757 186.563 220.59 188.041 220.012 189.379C219.762 190.007 219.338 190.551 218.79 190.946C217.948 191.364 217 191.517 216.07 191.385L210.248 191.134C209.952 191.152 209.657 191.081 209.401 190.93C208.853 190.546 209.033 189.708 208.908 189.042C208.806 188.601 208.548 188.212 208.183 187.946C207.817 187.68 207.368 187.554 206.917 187.592C205.483 187.765 204.825 189.434 203.782 190.445C202.333 191.832 199.99 191.902 198.132 191.142C196.322 190.259 194.696 189.038 193.344 187.545C192.419 186.644 191.416 185.547 191.557 184.254C191.655 183.674 191.91 183.132 192.294 182.686C193.697 180.892 194.496 181.448 196.51 181.503C198.525 181.497 200.529 181.212 202.466 180.657V180.657Z" fill="#F6C1B1"/>
<path d="M205.428 187.537L200.193 192.294L208.696 200.906L213.249 200.64L218.178 194.919L219.503 190.656L211.454 186.526L205.428 187.537Z" fill="#3B1283"/>
<path d="M219.503 190.656L218.17 194.919L213.257 200.64L212.826 200.671L208.696 200.899L200.193 192.294L205.428 187.537L211.454 186.518L212.207 186.91L219.503 190.656Z" fill="url(#paint17_linear)"/>
<path d="M219.503 190.656L218.17 194.919L213.257 200.64L212.826 200.671L204.37 192.098L209.605 187.341L212.207 186.91L219.503 190.656Z" fill="url(#paint18_linear)"/>
<path d="M208.696 200.906L206.737 254.023L207.677 254.085L213.249 200.64L208.696 200.906Z" fill="#3B1283"/>
<path d="M134.515 122.979C134.158 122.356 133.574 121.896 132.885 121.694C132.595 121.672 132.303 121.709 132.027 121.802C131.751 121.895 131.496 122.042 131.278 122.235C130.763 122.637 130.337 123.143 130.028 123.719C129.719 124.295 129.534 124.929 129.484 125.581C129.518 126.152 129.41 126.723 129.17 127.243C128.798 127.641 128.34 127.949 127.83 128.144C127.352 128.41 126.89 128.927 127.047 129.429C127.118 129.669 127.264 129.88 127.462 130.032C128.716 131.122 130.597 130.957 132.203 130.487C133.81 130.017 135.377 129.28 137.023 129.437C137.797 130.81 138.677 132.12 139.656 133.355C140.369 134.264 141.223 135.189 142.375 135.346C142.529 135.38 142.688 135.382 142.843 135.352C142.998 135.323 143.146 135.262 143.276 135.173C143.393 135.081 143.487 134.963 143.551 134.828C144.052 133.864 143.551 132.329 144.561 131.882C144.816 131.797 145.079 131.736 145.345 131.702C145.908 131.514 146.402 131.161 146.763 130.691C147.257 130.19 147.637 129.589 147.876 128.927C147.989 128.596 148.016 128.241 147.956 127.896C147.896 127.551 147.75 127.227 147.531 126.953C146.897 126.263 145.823 126.263 144.883 126.326C142.72 126.451 140.353 126.89 138.19 126.733C136.545 126.631 135.463 124.233 134.515 122.979Z" fill="#FFD200"/>
<path d="M74.7923 131.858C72.1044 129.507 68.2174 129.304 64.6048 129.21C64.1645 129.172 63.7212 129.215 63.2961 129.335C62.9238 129.485 62.6003 129.735 62.361 130.057C62.1218 130.379 61.9762 130.761 61.9403 131.161C61.8815 131.967 62.1308 132.765 62.6378 133.394C62.9429 133.709 63.2063 134.062 63.4215 134.444C63.7584 135.299 63.2961 136.372 63.8133 137.132C64.0719 137.524 64.5969 137.775 64.644 138.229C64.6541 138.496 64.6142 138.762 64.5264 139.013C64.4383 139.529 64.4884 140.059 64.6715 140.549C64.8545 141.039 65.1641 141.471 65.5687 141.803C66.3883 142.464 67.371 142.892 68.4134 143.041C71.548 143.605 75.0118 142.822 77.9583 144.123C78.3565 144.375 78.8332 144.472 79.2984 144.397C79.5235 144.277 79.7182 144.108 79.8676 143.901C80.017 143.695 80.1172 143.457 80.1604 143.206C80.5052 142.077 81.14 140.157 80.8343 138.974C80.5757 137.971 79.698 137.697 78.9144 136.905C77.3784 135.346 76.485 133.3 74.7923 131.858Z" fill="#F6C1B1"/>
<path d="M85.1053 164.905C87.9578 170.548 89.4938 177.075 88.2399 183.266C86.9861 189.457 82.4487 195.178 76.344 196.824C73.8569 197.429 71.2779 197.559 68.7425 197.208C61.5172 196.385 54.4251 193.07 49.8563 187.412C45.2876 181.754 43.5871 173.651 46.2828 166.904C48.289 161.919 52.3562 158.103 56.3058 154.459L66.2975 145.165C73.0134 138.966 73.1937 144.436 76.1559 150.133C78.836 155.235 82.4722 159.764 85.1053 164.905Z" fill="#3B1283"/>
<path d="M88.1694 183.266C86.8685 189.465 82.386 195.17 76.2735 196.824C73.7859 197.425 71.2075 197.556 68.672 197.208C67.7159 197.098 66.7677 196.949 65.8194 196.753C59.6129 195.476 53.7511 192.325 49.7858 187.412C45.2171 181.746 43.5165 173.659 46.2123 166.904C48.2185 161.912 52.2857 158.103 56.2353 154.459L66.2975 145.157C67.3833 144.017 68.7043 143.126 70.1688 142.547C73.3034 141.638 73.9146 145.823 76.1559 150.133C78.8125 155.235 82.4252 159.757 85.0583 164.897C87.9264 170.548 89.4624 177.075 88.1694 183.266Z" fill="url(#paint19_linear)"/>
<path d="M78.8987 185.899C76.5947 191.346 71.6185 195.844 65.8194 196.753C59.6129 195.476 53.7511 192.325 49.7858 187.412C45.2171 181.746 43.5165 173.659 46.2123 166.904C48.2185 161.912 52.2857 158.103 56.2353 154.459L66.2975 145.157C67.3833 144.017 68.7043 143.126 70.1687 142.547C72.3316 143.206 72.3473 146.959 73.5463 151.066C75.1606 156.551 77.8643 161.731 79.4081 167.272C81.1321 173.369 81.3751 180.069 78.8987 185.899Z" fill="url(#paint20_linear)"/>
<path d="M56.4155 112.768C56.3591 112.643 56.333 112.507 56.3395 112.369C56.346 112.232 56.3848 112.099 56.4528 111.979C56.5209 111.86 56.6161 111.759 56.7309 111.683C56.8456 111.608 56.9766 111.561 57.113 111.546C58.998 110.952 61.0018 110.839 62.9415 111.218C64.8812 111.597 66.695 112.456 68.2174 113.717C68.6117 114.132 69.1094 114.435 69.6594 114.594C70.1822 114.637 70.7064 114.531 71.1718 114.289C73.7736 113.239 76.485 112.196 79.2905 112.314C81.3359 112.4 83.7025 113.536 83.8593 115.582C84.0552 118.129 80.944 119.5 79.5021 121.585C79.0116 122.408 78.6022 123.276 78.2796 124.178C77.0336 127.133 75.0117 129.664 73.0056 132.172C72.843 132.447 72.6231 132.684 72.3607 132.866C72.0984 133.049 71.7998 133.173 71.4853 133.23C70.9848 133.189 70.514 132.975 70.1531 132.626C63.6644 127.689 58.0064 121.099 56.4155 112.768Z" fill="#3B1283"/>
<path d="M79.4943 121.585C79.0063 122.408 78.5995 123.277 78.2796 124.178C77.0336 127.133 75.0117 129.664 73.0056 132.172C72.8969 132.442 72.7203 132.679 72.4929 132.86C72.2655 133.041 71.9951 133.16 71.7079 133.206C71.4208 133.252 71.1266 133.222 70.8542 133.121C70.5817 133.019 70.3402 132.849 70.1531 132.626C69.8474 132.391 69.534 132.156 69.2362 131.913C63.4136 127.29 58.3982 121.279 56.6428 113.826C56.5566 113.482 56.4861 113.121 56.4155 112.768C56.3312 112.494 56.3507 112.198 56.4704 111.938C56.6331 111.735 56.8597 111.595 57.113 111.538C58.7926 111.014 60.5677 110.868 62.3103 111.112C64.0529 111.356 65.7197 111.983 67.1908 112.949C67.5435 113.192 67.8883 113.442 68.2174 113.732C68.6119 114.145 69.1056 114.45 69.6515 114.618C70.1774 114.654 70.7031 114.545 71.1718 114.304C73.3589 113.295 75.6915 112.636 78.0837 112.353C78.4856 112.329 78.8886 112.329 79.2905 112.353C81.3359 112.439 83.7025 113.583 83.8593 115.629C84.0552 118.129 80.944 119.477 79.4943 121.585Z" fill="url(#paint21_linear)"/>
<path d="M75.5446 118.834C75.3169 119.769 75.183 120.725 75.145 121.686C74.8237 124.868 73.6404 127.893 72.4727 130.871C72.2376 131.467 71.932 132.133 71.3286 132.336C70.8362 132.44 70.3233 132.376 69.871 132.156L69.2362 131.913C63.4136 127.29 58.3982 121.279 56.6428 113.826C58.6143 113.607 60.6092 113.89 62.4419 114.649C62.9387 114.938 63.5053 115.084 64.0797 115.072C64.5929 114.951 65.064 114.694 65.4433 114.328C66.0154 113.866 66.5953 113.395 67.1908 112.949C67.5435 113.192 67.8883 113.442 68.2174 113.732C68.6119 114.145 69.1056 114.45 69.6515 114.618C70.1774 114.654 70.7031 114.545 71.1718 114.304C73.3589 113.295 75.6915 112.636 78.0837 112.353C78.5147 114.516 76.2499 116.577 75.5446 118.834Z" fill="url(#paint22_linear)"/>
<path d="M64.5499 171.292C64.0147 171.089 63.4915 170.856 62.9826 170.595C62.4752 170.331 62.0081 169.995 61.5955 169.599C61.1841 169.211 60.8539 168.745 60.6238 168.228C60.3741 167.634 60.2745 166.988 60.3338 166.347C60.3693 165.719 60.5348 165.105 60.8197 164.545C61.0894 164.036 61.4569 163.586 61.9012 163.22C62.3539 162.87 62.8663 162.604 63.4136 162.437C63.9877 162.264 64.5853 162.182 65.1847 162.194L65.2944 160.493L66.4229 160.572L66.2975 162.256C66.6862 162.298 67.0713 162.369 67.4495 162.468C67.8496 162.576 68.2381 162.723 68.6093 162.907C68.9815 163.089 69.3335 163.309 69.6594 163.565C69.9857 163.822 70.278 164.12 70.5292 164.451L69.1657 165.352C68.8515 164.825 68.4024 164.393 67.8648 164.098C67.3552 163.812 66.7925 163.633 66.2113 163.573L65.7724 170.054C66.3523 170.297 66.9244 170.563 67.4808 170.837C68.0181 171.124 68.5115 171.485 68.9462 171.911C69.369 172.325 69.7071 172.818 69.9415 173.361C70.1624 173.97 70.2576 174.617 70.2212 175.263C70.1848 175.91 70.0177 176.542 69.7299 177.122C69.4684 177.641 69.0998 178.097 68.6484 178.462C68.1797 178.82 67.6481 179.085 67.0811 179.246C66.4613 179.43 65.8147 179.507 65.169 179.473L65.0593 181.166L63.923 181.096L64.0405 179.395C63.0435 179.316 62.0793 179.002 61.2272 178.478C60.4438 177.991 59.7689 177.348 59.2446 176.59L60.6473 175.735C60.8231 176.102 61.0679 176.432 61.3683 176.707C61.6537 176.974 61.9663 177.21 62.3008 177.412C62.608 177.597 62.9337 177.75 63.2726 177.867C63.5506 177.966 63.8404 178.03 64.1346 178.055L64.5499 171.292ZM65.075 163.455C64.2997 163.424 63.5402 163.681 62.9434 164.176C62.6397 164.437 62.3947 164.759 62.2244 165.121C62.0542 165.483 61.9627 165.877 61.956 166.277C61.91 166.646 61.9459 167.02 62.061 167.374C62.1761 167.727 62.3677 168.051 62.6221 168.322C63.1988 168.882 63.8996 169.298 64.6675 169.537L65.075 163.455ZM65.2317 178.094C65.5965 178.098 65.9602 178.053 66.3131 177.961C66.6891 177.869 67.0433 177.704 67.3554 177.475C67.6814 177.228 67.949 176.912 68.1391 176.55C68.3735 176.099 68.5046 175.601 68.5231 175.093C68.5566 174.713 68.5082 174.33 68.3812 173.97C68.2541 173.611 68.0513 173.283 67.7864 173.008C67.1915 172.387 66.4624 171.91 65.6549 171.613L65.2317 178.094Z" fill="#3B1283"/>
<defs>
<linearGradient id="paint0_linear" x1="114.431" y1="151.089" x2="76.2227" y2="139.822" gradientUnits="userSpaceOnUse">
<stop offset="0.01"/>
<stop offset="0.83" stop-opacity="0.07"/>
<stop offset="1" stop-opacity="0"/>
</linearGradient>
<linearGradient id="paint1_linear" x1="-43.045" y1="2613.4" x2="161.904" y2="2814.05" gradientUnits="userSpaceOnUse">
<stop offset="0.01"/>
<stop offset="0.83" stop-opacity="0.07"/>
<stop offset="1" stop-opacity="0"/>
</linearGradient>
<linearGradient id="paint2_linear" x1="2242.36" y1="19958.2" x2="4566.07" y2="31012.7" gradientUnits="userSpaceOnUse">
<stop offset="0.01"/>
<stop offset="0.83" stop-opacity="0.07"/>
<stop offset="1" stop-opacity="0"/>
</linearGradient>
<linearGradient id="paint3_linear" x1="-127.76" y1="26577.1" x2="9074.71" y2="26577.1" gradientUnits="userSpaceOnUse">
<stop offset="0.01"/>
<stop offset="0.83" stop-opacity="0.07"/>
<stop offset="1" stop-opacity="0"/>
</linearGradient>
<linearGradient id="paint4_linear" x1="14396.4" y1="22057" x2="-9159.61" y2="20813" gradientUnits="userSpaceOnUse">
<stop offset="0.01"/>
<stop offset="0.83" stop-opacity="0.07"/>
<stop offset="1" stop-opacity="0"/>
</linearGradient>
<linearGradient id="paint5_linear" x1="2306.05" y1="7466.91" x2="2606.17" y2="9134.64" gradientUnits="userSpaceOnUse">
<stop offset="0.01"/>
<stop offset="0.83" stop-opacity="0.07"/>
<stop offset="1" stop-opacity="0"/>
</linearGradient>
<linearGradient id="paint6_linear" x1="828.002" y1="8395.44" x2="1824.96" y2="10691.5" gradientUnits="userSpaceOnUse">
<stop offset="0.01"/>
<stop offset="0.83" stop-opacity="0.07"/>
<stop offset="1" stop-opacity="0"/>
</linearGradient>
<linearGradient id="paint7_linear" x1="295.761" y1="4027.31" x2="357.622" y2="5628.5" gradientUnits="userSpaceOnUse">
<stop offset="0.01"/>
<stop offset="0.83" stop-opacity="0.07"/>
<stop offset="1" stop-opacity="0"/>
</linearGradient>
<linearGradient id="paint8_linear" x1="2314.5" y1="4410.26" x2="2394.32" y2="6208.68" gradientUnits="userSpaceOnUse">
<stop offset="0.01"/>
<stop offset="0.83" stop-opacity="0.07"/>
<stop offset="1" stop-opacity="0"/>
</linearGradient>
<linearGradient id="paint9_linear" x1="4567.85" y1="4200.37" x2="4826.14" y2="3451.13" gradientUnits="userSpaceOnUse">
<stop offset="0.01"/>
<stop offset="0.83" stop-opacity="0.07"/>
<stop offset="1" stop-opacity="0"/>
</linearGradient>
<linearGradient id="paint10_linear" x1="2352.97" y1="2101.81" x2="1679.24" y2="2674.36" gradientUnits="userSpaceOnUse">
<stop offset="0.01"/>
<stop offset="0.83" stop-opacity="0.07"/>
<stop offset="1" stop-opacity="0"/>
</linearGradient>
<linearGradient id="paint11_linear" x1="3285.05" y1="3787.75" x2="3781.64" y2="5409.92" gradientUnits="userSpaceOnUse">
<stop offset="0.01"/>
<stop offset="0.83" stop-opacity="0.07"/>
<stop offset="1" stop-opacity="0"/>
</linearGradient>
<linearGradient id="paint12_linear" x1="1941" y1="589.328" x2="2562.43" y2="589.328" gradientUnits="userSpaceOnUse">
<stop offset="0.01"/>
<stop offset="0.83" stop-opacity="0.07"/>
<stop offset="1" stop-opacity="0"/>
</linearGradient>
<linearGradient id="paint13_linear" x1="2572.94" y1="8896.98" x2="5915.06" y2="8896.98" gradientUnits="userSpaceOnUse">
<stop offset="0.01"/>
<stop offset="0.83" stop-opacity="0.07"/>
<stop offset="1" stop-opacity="0"/>
</linearGradient>
<linearGradient id="paint14_linear" x1="5345.87" y1="2975.99" x2="5359.24" y2="2591.81" gradientUnits="userSpaceOnUse">
<stop offset="0.01"/>
<stop offset="0.83" stop-opacity="0.07"/>
<stop offset="1" stop-opacity="0"/>
</linearGradient>
<linearGradient id="paint15_linear" x1="3025.23" y1="18857" x2="6908.25" y2="19208.6" gradientUnits="userSpaceOnUse">
<stop offset="0.01"/>
<stop offset="0.83" stop-opacity="0.07"/>
<stop offset="1" stop-opacity="0"/>
</linearGradient>
<linearGradient id="paint16_linear" x1="1391.9" y1="3631.5" x2="1673.93" y2="3743.77" gradientUnits="userSpaceOnUse">
<stop offset="0.01"/>
<stop offset="0.83" stop-opacity="0.07"/>
<stop offset="1" stop-opacity="0"/>
</linearGradient>
<linearGradient id="paint17_linear" x1="216.935" y1="184.807" x2="201.676" y2="202.225" gradientUnits="userSpaceOnUse">
<stop offset="0.02" stop-color="white" stop-opacity="0"/>
<stop offset="0.39" stop-color="white" stop-opacity="0.39"/>
<stop offset="1" stop-color="white"/>
</linearGradient>
<linearGradient id="paint18_linear" x1="2679.73" y1="4708.52" x2="2486.86" y2="4986.3" gradientUnits="userSpaceOnUse">
<stop offset="0.02" stop-color="white" stop-opacity="0"/>
<stop offset="0.39" stop-color="white" stop-opacity="0.39"/>
<stop offset="1" stop-color="white"/>
</linearGradient>
<linearGradient id="paint19_linear" x1="-4526.44" y1="17485.3" x2="491.767" y2="17721.5" gradientUnits="userSpaceOnUse">
<stop offset="0.02" stop-color="white" stop-opacity="0"/>
<stop offset="0.39" stop-color="white" stop-opacity="0.39"/>
<stop offset="1" stop-color="white"/>
</linearGradient>
<linearGradient id="paint20_linear" x1="-3731.52" y1="17276.3" x2="-368.754" y2="17445.8" gradientUnits="userSpaceOnUse">
<stop offset="0.02" stop-color="white" stop-opacity="0"/>
<stop offset="0.39" stop-color="white" stop-opacity="0.39"/>
<stop offset="1" stop-color="white"/>
</linearGradient>
<linearGradient id="paint21_linear" x1="-2463.81" y1="5680.59" x2="694.577" y2="5794.04" gradientUnits="userSpaceOnUse">
<stop offset="0.02" stop-color="white" stop-opacity="0"/>
<stop offset="0.39" stop-color="white" stop-opacity="0.39"/>
<stop offset="1" stop-color="white"/>
</linearGradient>
<linearGradient id="paint22_linear" x1="-1763.69" y1="5147.27" x2="151.573" y2="5223.82" gradientUnits="userSpaceOnUse">
<stop offset="0.02" stop-color="white" stop-opacity="0"/>
<stop offset="0.39" stop-color="white" stop-opacity="0.39"/>
<stop offset="1" stop-color="white"/>
</linearGradient>
</defs>
</svg>
