<svg width="50" height="44" viewBox="0 0 50 44" fill="none" xmlns="http://www.w3.org/2000/svg">
<path d="M7.5442 42.4644L7.54134 42.4644C6.31722 42.4691 5.1138 42.1487 4.05407 41.5359C2.99558 40.9238 2.11836 40.042 1.51182 38.9804C0.995545 38.0494 0.733102 36.999 0.750843 35.9345C0.768601 34.869 1.06643 33.8269 1.61441 32.913C1.61465 32.9126 1.61489 32.9122 1.61512 32.9118L19.0516 3.99498C19.6887 3.00134 20.5651 2.18349 21.6004 1.61651C22.6386 1.04799 23.8031 0.75 24.9868 0.75C26.1704 0.75 27.335 1.04799 28.3731 1.61651C29.4085 2.18349 30.2849 3.00134 30.9219 3.99498L48.3593 32.9133L49.0013 32.5262L48.3613 32.9166C48.9249 33.8403 49.2314 34.8977 49.2492 35.9795C49.2669 37.0592 48.9965 38.1241 48.4657 39.0644C47.8488 40.1099 46.9675 40.9746 45.9104 41.5715C44.8514 42.1694 43.6534 42.4774 42.4373 42.4644V42.4644H42.4293L7.5442 42.4644ZM23.3067 34.3582C23.804 34.6905 24.3887 34.8679 24.9868 34.8679C25.7888 34.8679 26.558 34.5493 27.1251 33.9821C27.6923 33.415 28.0109 32.6458 28.0109 31.8438C28.0109 31.2456 27.8335 30.661 27.5012 30.1636C27.1689 29.6663 26.6966 29.2787 26.1441 29.0498C25.5915 28.8209 24.9834 28.7611 24.3968 28.8777C23.8102 28.9944 23.2713 29.2824 22.8484 29.7054C22.4255 30.1283 22.1374 30.6672 22.0207 31.2538C21.9041 31.8404 21.9639 32.4485 22.1928 33.001C22.4217 33.5536 22.8093 34.0259 23.3067 34.3582ZM27.1251 27.1598C27.6923 26.5926 28.0109 25.8234 28.0109 25.0214V15.9249C28.0109 15.1228 27.6923 14.3536 27.1251 13.7865C26.558 13.2193 25.7888 12.9007 24.9868 12.9007C24.1847 12.9007 23.4155 13.2193 22.8484 13.7865C22.2813 14.3536 21.9626 15.1228 21.9626 15.9249V25.0214C21.9626 25.8234 22.2813 26.5926 22.8484 27.1598C23.4155 27.7269 24.1847 28.0455 24.9868 28.0455C25.7888 28.0455 26.558 27.7269 27.1251 27.1598Z" fill="#A3D8F4" stroke="#393E46" stroke-width="1.5"/>
</svg>
