<svg width="30" height="30" viewBox="0 0 30 30" fill="none" xmlns="http://www.w3.org/2000/svg">
<circle cx="15" cy="15" r="15" fill="#1C1C1C"/>
<g clip-path="url(#clip0)">
<path d="M18.3031 15C17.775 15 17.2781 14.7187 17.0094 14.2687L15 10.9375L12.9938 14.2687C12.7219 14.7219 12.225 15.0031 11.6969 15.0031C11.5563 15.0031 11.4156 14.9844 11.2813 14.9437L7 13.7187V19.2812C7 19.7406 7.3125 20.1406 7.75625 20.25L14.5125 21.9406C14.8313 22.0187 15.1656 22.0187 15.4813 21.9406L22.2438 20.25C22.6875 20.1375 23 19.7375 23 19.2812V13.7187L18.7188 14.9406C18.5844 14.9812 18.4438 15 18.3031 15ZM24.9469 11.4937L23.3375 8.28125C23.2406 8.0875 23.0313 7.975 22.8156 8.00312L15 9L17.8656 13.7531C17.9844 13.95 18.2219 14.0437 18.4438 13.9812L24.6281 12.2156C24.9375 12.125 25.0875 11.7812 24.9469 11.4937ZM6.6625 8.28125L5.05313 11.4937C4.90938 11.7812 5.0625 12.125 5.36875 12.2125L11.5531 13.9781C11.775 14.0406 12.0125 13.9469 12.1313 13.75L15 9L7.18125 8.00312C6.96563 7.97812 6.75938 8.0875 6.6625 8.28125Z" fill="white"/>
</g>
<defs>
<clipPath id="clip0">
<rect width="20" height="16" fill="white" transform="translate(5 7)"/>
</clipPath>
</defs>
</svg>
