<svg width="60" height="118" viewBox="0 0 60 118" fill="none" xmlns="http://www.w3.org/2000/svg">
<path d="M24.8367 105.384C24.8457 105.461 24.8336 105.539 24.8017 105.61C24.7698 105.681 24.7192 105.741 24.6554 105.785C23.606 106.596 18.5701 105.715 18.5701 105.715C18.5701 105.715 8.2809 105.075 6.74307 104.026C6.60426 103.934 6.48823 103.813 6.40393 103.669C5.76405 102.513 8.08041 100.572 8.2809 100.572C8.4814 100.572 11.2478 100.195 11.4334 100.159C12.7131 99.9006 13.9929 99.1072 14.2062 99.3333C14.4194 99.5593 15.4859 99.0325 16.0063 98.9579C16.1962 98.9301 16.2836 98.6614 16.3156 98.318C16.3456 97.8533 16.3299 97.3868 16.2687 96.9252L24.4869 99.137L24.5594 100.447L24.7961 104.806L24.826 105.342C24.8312 105.355 24.8347 105.37 24.8367 105.384Z" fill="#474463"/>
<path opacity="0.1" d="M18.5787 105.715C18.5787 105.715 8.28943 105.075 6.75159 104.026C6.61278 103.934 6.49676 103.813 6.41245 103.669C8.49632 103.84 11.9709 104.128 12.5979 104.288C13.5002 104.501 18.5701 104.813 18.5701 104.813H24.8047L24.8346 105.348C25.1054 106.858 18.5787 105.715 18.5787 105.715Z" fill="black"/>
<path d="M10.3541 112.02C11.7359 112.02 12.8561 110.9 12.8561 109.518C12.8561 108.136 11.7359 107.016 10.3541 107.016C8.97236 107.016 7.8522 108.136 7.8522 109.518C7.8522 110.9 8.97236 112.02 10.3541 112.02Z" fill="#474463"/>
<path d="M37.5276 117.214C38.9093 117.214 40.0295 116.093 40.0295 114.712C40.0295 113.33 38.9093 112.21 37.5276 112.21C36.1458 112.21 35.0257 113.33 35.0257 114.712C35.0257 116.093 36.1458 117.214 37.5276 117.214Z" fill="#474463"/>
<path d="M21.1638 30.1966C21.1638 30.1966 14.9335 30.7213 13.7327 31.0967C12.5318 31.4721 7.35309 31.246 6.90731 31.0967C6.46153 30.9474 -2.40293 32.9737 1.65177 35C5.70647 37.0262 8.26385 35 8.26385 35C8.26385 35 13.5194 34.6992 14.8759 35.5268C16.2325 36.3544 21.1809 35.9022 21.1809 35.9022L21.1638 30.1966Z" fill="#FFC1C8"/>
<path opacity="0.1" d="M29.8213 15.9039C29.7637 16.2239 29.3243 16.2601 29.2347 16.5716C28.3816 19.5811 26.5046 22.2878 23.6081 23.3969C23.0514 22.5203 22.5907 21.9465 22.5907 21.9465C22.5907 21.9465 27.9955 12.0391 28.2963 13.3892C28.3922 13.8094 29.0172 14.7863 29.8213 15.9039Z" fill="black"/>
<path d="M29.9812 13.8307C29.9816 15.7907 29.4008 17.7068 28.3122 19.3367C27.2236 20.9666 25.6761 22.2371 23.8654 22.9875C22.0547 23.7378 20.0621 23.9344 18.1397 23.5522C16.2173 23.1701 14.4514 22.2265 13.0653 20.8407C11.6792 19.4549 10.7352 17.6892 10.3527 15.7669C9.97017 13.8446 10.1663 11.852 10.9163 10.0411C11.6662 8.23025 12.9363 6.68247 14.566 5.5935C16.1957 4.50453 18.1117 3.92328 20.0717 3.92328C21.3742 3.91849 22.6648 4.17147 23.8691 4.66764C25.0734 5.16381 26.1676 5.89337 27.0887 6.81429C28.0098 7.7352 28.7396 8.82928 29.2361 10.0335C29.7325 11.2377 29.9857 12.5282 29.9812 13.8307Z" fill="#FFC1C8"/>
<path opacity="0.1" d="M24.5039 99.1434L24.5765 100.453C23.7083 100.645 22.0574 100.897 21.0955 100.308C19.852 99.5465 18.0155 99.361 16.3326 98.3244C16.3626 97.8597 16.3469 97.3932 16.2857 96.9316L24.5039 99.1434Z" fill="black"/>
<path opacity="0.1" d="M38.7241 102.089C38.6665 102.381 38.6132 102.56 38.6132 102.56C38.6132 102.56 31.9905 101.882 30.0815 100.967C30.0815 100.306 30.0623 99.4741 30.0623 99.4741L38.3978 100.487L38.7241 102.089Z" fill="black"/>
<path d="M37.229 72.3091C36.779 73.5099 36.5529 73.736 37.005 74.3354C37.4572 74.9347 37.229 78.0893 36.5123 78.3879C35.7957 78.6865 33.0996 80.4889 33.0996 80.4889C33.0996 80.4889 34.5927 82.4405 34.6375 83.2617C34.6767 83.7863 34.8796 84.2854 35.2176 84.6886C35.2176 84.6886 37.5297 89.6434 37.9905 91.2196C38.4512 92.7958 38.8735 95.2721 38.8735 95.2721C38.8735 95.2721 38.0651 97.5245 38.6239 98.8021C39.1828 100.08 38.6239 101.955 38.6239 101.955C38.6239 101.955 30.5593 101.129 29.6656 100.069C28.7719 99.009 29.367 96.6244 29.367 96.6244C29.1827 95.5618 28.8007 94.5431 28.2408 93.6213C27.3386 92.1943 28.4541 90.6949 28.2408 90.6181C28.0275 90.5413 27.3386 89.718 26.6603 88.3679C25.9821 87.0177 25.5597 87.5403 25.5597 87.5403C25.5597 87.5403 26.4385 95.1228 25.5597 95.799C24.681 96.4751 24.5615 96.1744 24.7876 97.0787C24.9628 97.9468 25.0881 98.8241 25.163 99.7065C25.163 99.7065 22.4606 100.532 21.1105 99.7065C19.7603 98.881 17.7276 98.7296 15.9424 97.4541C14.1571 96.1786 16.7507 94.0009 17.2008 93.7002C17.6508 93.3994 17.0515 89.0461 17.0515 89.0461L16.45 84.7675C16.45 84.7675 18.4763 85.2175 17.8108 83.5667C17.1453 81.9158 16.3753 76.2102 15.9999 75.3101C15.6246 74.41 17.2797 73.2071 17.0515 72.6077C16.8233 72.0083 18.0262 68.5551 18.0262 68.5551C18.0262 68.5551 18.103 65.7034 18.8517 65.1681C19.1375 64.9676 19.323 64.3448 19.4468 63.6558C19.578 62.8428 19.6557 62.0219 19.6793 61.1987C19.6793 61.1987 36.8685 59.9979 39.6456 61.6487C40.8955 62.391 40.8081 63.7582 40.2855 65.1425C39.6456 66.8317 38.3317 68.5551 38.0011 69.1801C37.3804 70.3319 37.679 71.1083 37.229 72.3091Z" fill="#575988"/>
<path opacity="0.1" d="M40.2642 65.1425C38.1313 65.7418 35.2902 66.6227 34.8274 67.1282C34.0766 67.9558 31.5234 62.4742 31.5234 62.4742C31.5234 62.4742 31.6749 66.595 28.2963 64.8716C25.372 63.3785 20.6519 63.5748 19.4318 63.6558C19.5631 62.8428 19.6407 62.0219 19.6643 61.1987C19.6643 61.1987 36.8536 59.9979 39.6307 61.6487C40.8806 62.391 40.7932 63.7582 40.2642 65.1425Z" fill="black"/>
<path d="M31.5234 19.7624C31.5234 19.7624 33.0164 17.96 33.3257 18.6362C33.635 19.3123 35.3968 20.6625 35.3968 20.6625C35.3968 20.6625 35.9023 22.2387 36.7917 22.4648C37.6811 22.6909 44.3614 31.6982 44.3614 31.6982L41.9576 36.5762L40.006 48.4373C40.006 48.4373 40.0913 50.3143 39.5602 50.9969C39.0291 51.6794 37.0007 51.5216 37.9413 52.347C38.882 53.1724 40.2321 53.9232 40.9829 57.6793C41.7337 61.4354 42.6338 63.6088 42.6338 63.6088C42.6338 63.6088 35.5781 65.4111 34.8273 66.2366C34.0765 67.062 31.5234 61.5825 31.5234 61.5825C31.5234 61.5825 31.6748 65.7012 28.2963 63.9799C24.9177 62.2587 19.1375 62.7834 19.1375 62.7834V58.3469C19.1375 58.3469 20.2637 56.6192 19.6643 55.4184C19.065 54.2176 20.0738 51.9652 20.0738 51.9652C20.0738 51.9652 19.739 49.6382 19.1375 48.2881C18.536 46.9379 18.7621 40.5562 18.7621 40.5562C18.7621 40.5562 18.3057 36.4269 18.7216 34.3238C19.0745 32.501 19.6978 30.7411 20.5708 29.1024C21.3963 27.4942 21.9188 25.9926 21.6949 25.3911C21.4709 24.7897 23.6763 23.4886 23.6763 23.4886L24.8985 25.4658L25.2099 26.6474C25.2099 26.6474 31.6748 22.0147 31.5234 19.7624Z" fill="#DCE6F2"/>
<path d="M43.2 30C43.2 30 46.3502 34.4315 46.8692 35.1575C47.3881 35.8835 49.1269 39.6577 46.8765 40.8028C44.6262 41.9479 35.8091 43.7136 34.9336 43.1044C33 43.1044 28.785 43.7915 28.785 43.7915C28.785 43.7915 19.9655 45.8069 21.8691 42.5021C23.7727 39.1974 28.2759 39.7539 28.2759 39.7539C28.2759 39.7539 35.5509 39.7424 36.3281 39.0668C37.1053 38.3912 46.2 39.7539 39.6 33C38.2719 30.0136 43.2 30 43.2 30Z" fill="#FFC1C8"/>
<path opacity="0.1" d="M29.9814 48.6635C29.9814 48.6635 20.189 57.1461 21.1638 57.1461C22.1385 57.1461 29.9814 48.6635 29.9814 48.6635Z" fill="black"/>
<path opacity="0.1" d="M36.5123 52.1167C36.5123 52.1167 33.4003 52.8654 34.0018 53.3176C34.6033 53.7697 36.5123 52.1167 36.5123 52.1167Z" fill="black"/>
<path opacity="0.1" d="M25.5384 31.5468C25.5384 31.5468 29.4224 31.8945 28.7377 33.1103C28.0531 34.326 25.5384 31.5468 25.5384 31.5468Z" fill="black"/>
<path opacity="0.1" d="M23.1175 68.0049C23.1175 68.0049 22.5907 69.532 23.1175 70.3511C23.6444 71.1701 23.1175 73.1239 23.1175 73.1239V79.9492C23.1175 79.9492 23.045 84.904 24.8431 86.6296L23.1175 68.0049Z" fill="black"/>
<path opacity="0.1" d="M17.975 89.2744C17.975 89.2744 19.0244 90.8122 19.1759 91.3753C19.3273 91.9384 17.975 89.2744 17.975 89.2744Z" fill="black"/>
<path opacity="0.1" d="M18.2374 86.1967C18.2374 86.1967 20.6775 85.7465 21.0529 86.0089C21.4283 86.2714 18.2374 86.1967 18.2374 86.1967Z" fill="black"/>
<path opacity="0.1" d="M17.525 95.3916C17.525 95.3916 16.8105 95.4663 18.2374 96.2447C19.6643 97.0232 22.4414 98.0086 22.4776 97.6716C22.5139 97.3346 17.525 95.3916 17.525 95.3916Z" fill="black"/>
<path opacity="0.1" d="M27.9699 87.9221C28.2216 87.9221 31.3634 87.7344 31.1821 88.2228C31.0008 88.7113 27.9699 87.9221 27.9699 87.9221Z" fill="black"/>
<path opacity="0.1" d="M32.2379 83.5304C32.2379 83.5304 32.9503 82.2933 33.2127 82.818C33.4751 83.3427 32.2379 83.5304 32.2379 83.5304Z" fill="black"/>
<path opacity="0.1" d="M29.9813 13.8307C29.9824 14.7519 29.8547 15.6687 29.6017 16.5545C29.1879 16.9299 28.4733 16.9341 27.9636 16.6547C27.3663 16.3262 26.976 15.729 26.5878 15.1617C26.1996 14.5943 25.7581 14.027 25.1225 13.7838C24.3184 13.4809 23.4012 13.7838 22.7016 14.2872C22.002 14.7905 21.4432 15.456 20.782 15.9935C20.1208 16.531 19.2783 16.9661 18.4358 16.8339C17.8919 16.7507 17.4098 16.4436 16.9427 16.1471C16.3028 15.744 15.616 15.1169 14.9143 14.846C14.2126 14.5751 13.6345 15.0593 12.9669 15.0593C12.4358 15.2512 11.8578 15.6885 11.9645 16.2409C12.0216 16.4459 12.114 16.6393 12.2375 16.8126C12.4518 17.2348 12.5364 17.7111 12.4806 18.1814C12.4248 18.6516 12.2312 19.0949 11.924 19.4553C11.0399 18.1771 10.4688 16.7089 10.2568 15.1693C10.0449 13.6297 10.1981 12.0618 10.704 10.5924C11.2098 9.12287 12.0543 7.79296 13.169 6.71007C14.2837 5.62718 15.6375 4.82165 17.1211 4.35857C18.6046 3.89548 20.1762 3.78781 21.7091 4.04426C23.2419 4.30071 24.6929 4.91409 25.9449 5.83485C27.1969 6.7556 28.2148 7.95793 28.9163 9.3447C29.6179 10.7315 29.9834 12.2638 29.9834 13.8179L29.9813 13.8307Z" fill="black"/>
<path d="M12.9648 14.7714C12.4337 14.9633 11.8556 15.4006 11.9602 15.9551C12.0194 16.159 12.1124 16.3515 12.2353 16.5246C12.8581 17.6359 12.3313 19.2313 11.1688 19.7475C10.9866 19.8424 10.7785 19.8753 10.5759 19.8413C10.4152 19.7914 10.2689 19.7037 10.1493 19.5854C9.5241 19.0266 9.09304 18.2833 8.91859 17.4631C8.73515 16.61 8.8482 15.7056 8.75435 14.829C8.6605 13.9523 8.35976 13.0885 8.25525 12.2055C8.18126 11.769 8.22772 11.3206 8.38962 10.9086C8.5303 10.6368 8.71154 10.3879 8.92712 10.1707C9.52648 9.50305 10.1514 8.82051 10.4522 7.97374C10.9278 6.62574 10.5823 4.90873 11.6231 3.92119C12.1052 3.46901 12.7792 3.30051 13.3764 3.0147C13.9387 2.71616 14.4771 2.37458 14.9868 1.99302C16.9171 0.666345 19.2633 -0.353197 21.5584 0.116046C22.4753 0.338056 23.3534 0.697618 24.1627 1.18251C25.6659 2.01117 27.0934 2.97041 28.4286 4.04916C29.0059 4.47622 29.5102 4.99414 29.9216 5.58273C30.2281 6.08668 30.4487 6.6381 30.5743 7.21442C30.8808 8.47182 30.9229 9.77915 30.698 11.0537C30.4847 12.3036 30.0005 13.5172 29.9813 14.7863C29.9813 15.2129 30.0155 15.6736 29.7958 16.0405C29.4438 16.6249 28.5715 16.6803 27.9742 16.3561C27.377 16.0319 26.9867 15.4304 26.6006 14.8631C26.2146 14.2957 25.7709 13.7284 25.1353 13.4873C24.3312 13.1823 23.414 13.4873 22.7144 13.9886C22.0148 14.4898 21.4581 15.1574 20.7948 15.6949C20.1314 16.2324 19.3017 16.6675 18.4485 16.5353C17.9046 16.4521 17.4226 16.1471 16.9555 15.8506C16.3156 15.4454 15.6288 14.8183 14.9292 14.5495C14.2296 14.2808 13.6302 14.7714 12.9648 14.7714Z" fill="#794F6A"/>
<g opacity="0.1">
<path opacity="0.1" d="M11.1646 19.1417C10.9832 19.2366 10.7757 19.2696 10.5738 19.2355C10.4125 19.1862 10.2659 19.0975 10.1472 18.9775C9.52198 18.4193 9.09026 17.6768 8.91439 16.8573C8.73309 15.9935 8.84613 15.0977 8.75228 14.2211C8.65843 13.3444 8.35556 12.4827 8.25318 11.5976C8.25318 11.5549 8.25318 11.5101 8.24251 11.4653C8.2194 11.7096 8.22298 11.9556 8.25318 12.1991C8.35556 13.0821 8.65843 13.9352 8.75228 14.8225C8.84613 15.7098 8.73309 16.595 8.91439 17.4567C9.0897 18.277 9.52148 19.0203 10.1472 19.5789C10.2665 19.6976 10.413 19.7855 10.5738 19.8349C10.7757 19.8689 10.9832 19.8359 11.1646 19.741C12.0818 19.3337 12.6001 18.2608 12.4785 17.2797C12.4341 17.6756 12.2903 18.0538 12.0606 18.3793C11.8309 18.7049 11.5227 18.9671 11.1646 19.1417Z" fill="black"/>
<path opacity="0.1" d="M30.683 10.45C30.4697 11.6999 29.9855 12.9136 29.9685 14.1827C29.9685 14.6092 30.0026 15.0699 29.7808 15.4368C29.431 16.0212 28.5586 16.0767 27.9614 15.7525C27.3642 15.4283 26.9738 14.8289 26.5856 14.2594C26.1975 13.6899 25.7581 13.1247 25.1203 12.8837C24.3184 12.5808 23.4012 12.8837 22.7016 13.3871C22.002 13.8904 21.4432 14.5538 20.782 15.0934C20.1208 15.633 19.2783 16.066 18.4358 15.9359C17.8919 15.8506 17.4098 15.5456 16.9427 15.2491C16.3028 14.8439 15.616 14.2189 14.9164 13.948C14.2168 13.6771 13.6367 14.1613 12.9691 14.1613C12.438 14.3554 11.86 14.7905 11.9623 15.3472C11.9754 15.4074 11.9947 15.466 12.0199 15.5221C12.2289 15.1581 12.568 14.8868 12.9691 14.7628C13.6345 14.7628 14.2232 14.285 14.9164 14.5495C15.6096 14.814 16.3092 15.4453 16.9427 15.8506C17.4055 16.1471 17.8876 16.4521 18.4358 16.5353C19.2889 16.6675 20.125 16.2388 20.782 15.6949C21.4389 15.151 22.0041 14.4791 22.7016 13.9886C23.3991 13.498 24.3184 13.1823 25.1203 13.4873C25.7602 13.7283 26.1996 14.3021 26.5856 14.8631C26.9717 15.424 27.3642 16.0191 27.9614 16.3561C28.5586 16.6931 29.431 16.6248 29.7808 16.0404C29.9941 15.6736 29.9621 15.215 29.9685 14.7863C29.9855 13.5172 30.4633 12.3035 30.683 11.0537C30.7955 10.4117 30.8413 9.75981 30.8195 9.10843C30.8059 9.55831 30.7603 10.0066 30.683 10.45Z" fill="black"/>
</g>
<path d="M34.0082 21.2746C34.0082 21.2746 25.1502 32.1525 25.5256 29.1131C25.7602 27.2041 24.5487 24.8729 23.6059 23.399C23.0492 22.5224 22.5885 21.9486 22.5885 21.9486C22.5885 21.9486 27.9934 12.0412 28.2941 13.3913C28.3901 13.8179 29.015 14.7969 29.8192 15.9146C31.5148 18.2565 34.0082 21.2746 34.0082 21.2746Z" fill="#FFC1C8"/>
<path d="M48.4396 115.533C49.8214 115.533 50.9415 114.413 50.9415 113.031C50.9415 111.649 49.8214 110.529 48.4396 110.529C47.0578 110.529 45.9377 111.649 45.9377 113.031C45.9377 114.413 47.0578 115.533 48.4396 115.533Z" fill="#474463"/>
<path d="M22.8829 112.02C24.2647 112.02 25.3848 110.9 25.3848 109.518C25.3848 108.136 24.2647 107.016 22.8829 107.016C21.5011 107.016 20.381 108.136 20.381 109.518C20.381 110.9 21.5011 112.02 22.8829 112.02Z" fill="#474463"/>
<path d="M59.9957 110.407C59.9817 110.586 59.9316 110.759 59.8486 110.917L58.3555 112.545L37.487 112.21L31.8753 112.118C31.8753 112.118 20.0632 109.968 17.7617 108.966C15.4603 107.963 6.41245 106.129 6.41245 106.129C6.41245 106.129 0.9479 105.212 0.145921 102.56C-0.12496 101.662 0.0115492 101.02 0.308025 100.564C0.890313 99.6703 2.09755 99.4826 2.09755 99.4826C4.5635 98.7542 7.19993 98.8516 9.60543 99.7599L44.5854 108.759L45.1271 108.897C45.1271 108.897 57.5962 108.665 57.8479 108.71C59.7611 109.059 60.0405 109.872 59.9957 110.407Z" fill="#E12C13"/>
<path opacity="0.3" d="M59.9957 110.407C57.8969 110.134 54.2368 109.731 53.2941 110.119C53.2941 110.119 46.6372 109.296 37.4785 112.21L31.8753 112.118C31.8753 112.118 20.0632 109.968 17.7617 108.966C15.4603 107.963 6.41245 106.129 6.41245 106.129C6.41245 106.129 0.9479 105.212 0.145921 102.56C-0.12496 101.662 0.0115492 101.02 0.308025 100.564C0.681287 101.652 1.40008 103.228 2.54759 103.669C4.34991 104.363 11.7576 105.775 11.7576 105.775L26.4193 109.364C26.4193 109.364 34.8848 111.201 38.1802 110.004C39.5303 109.518 42.0642 109.085 44.579 108.746L45.1207 108.884C45.1207 108.884 57.5898 108.652 57.8415 108.697C59.7611 109.059 60.0405 109.872 59.9957 110.407Z" fill="white"/>
<path d="M39.7479 107.705C39.7301 108.019 39.6909 108.332 39.6306 108.641C39.6306 108.641 31.3378 108.938 27.0208 108.298C25.8285 108.121 25.1545 107.739 24.8196 107.283C24.6701 107.067 24.5775 106.817 24.5502 106.556C24.523 106.295 24.5621 106.032 24.6639 105.79C24.7116 105.651 24.7723 105.516 24.8452 105.389C25.1673 104.826 25.6621 104.427 25.933 104.48C26.6838 104.631 27.9721 103.091 27.9721 103.091C27.8697 102.151 29.3478 101.812 29.5781 101.965C29.6192 101.997 29.6678 102.017 29.7192 102.025C29.7705 102.032 29.8229 102.026 29.8711 102.007C29.9194 101.988 29.962 101.957 29.9948 101.917C30.0275 101.877 30.0493 101.829 30.0581 101.778C30.073 101.707 30.0773 101.368 30.0773 100.971C30.0773 100.31 30.0581 99.4783 30.0581 99.4783L38.3935 100.491L38.7241 102.085C39.027 103.505 39.4493 105.457 39.6306 106.125C39.7566 106.641 39.7963 107.175 39.7479 107.705Z" fill="#474463"/>
<path opacity="0.1" d="M39.7479 107.705C39.7301 108.019 39.691 108.332 39.6306 108.641C39.6306 108.641 31.3378 108.938 27.0208 108.298C25.8285 108.121 25.1545 107.739 24.8196 107.283C25.9266 107.217 27.3663 107.18 28.2579 107.398C29.5291 107.714 37.133 107.714 39.7479 107.705Z" fill="black"/>
</svg>
