<svg width="19" height="23" viewBox="0 0 19 23" fill="none" xmlns="http://www.w3.org/2000/svg">
<path d="M18.3722 21.1111L15.6667 17.9477V5.77779L14.3889 3.01308C14.2946 2.8023 14.1532 2.62582 13.9799 2.5027C13.8066 2.37958 13.608 2.31451 13.4056 2.31451C13.2031 2.31451 13.0045 2.37958 12.8312 2.5027C12.6579 2.62582 12.5165 2.8023 12.4222 3.01308L11.2222 5.78433V12.7451L1.06111 0.849685C0.983403 0.757509 0.884124 0.694646 0.775931 0.66911C0.667738 0.643575 0.555532 0.656523 0.453619 0.706306C0.351706 0.756088 0.264702 0.840448 0.203702 0.948631C0.142701 1.05681 0.110467 1.18392 0.111109 1.31374V6.59478H1.31666V7.64053H0.111109V11.8235H1.31666V12.8693H0.111109V17.2157H1.31666V18.2614H0.111109V21.5752C0.111109 21.7485 0.16964 21.9148 0.273827 22.0373C0.378014 22.1599 0.519322 22.2288 0.666664 22.2288H17.9778C18.0881 22.2295 18.1962 22.1916 18.2881 22.1198C18.3801 22.0481 18.4518 21.9457 18.4941 21.8258C18.5364 21.7059 18.5474 21.5739 18.5257 21.4466C18.504 21.3193 18.4506 21.2025 18.3722 21.1111ZM4.55555 17.0523V11.1307L9.59444 17.0523H4.55555ZM14.5556 18.4314H12.3333V16.8431H14.5556V18.4314ZM14.5556 15.817H12.3333V6.10459L13.4111 3.64053L14.5556 6.11112V15.817Z" fill="#38117B"/>
</svg>
