<svg width="41" height="30" viewBox="0 0 41 30" fill="none" xmlns="http://www.w3.org/2000/svg">
<path d="M0.00965881 5C0.00965881 3.67392 0.536443 2.40215 1.47412 1.46447C2.41181 0.526784 3.68358 0 5.00966 0H35.0097C36.3357 0 37.6075 0.526784 38.5452 1.46447C39.4829 2.40215 40.0097 3.67392 40.0097 5V7.5H0.00965881V5Z" fill="#3B1283"/>
<path fill-rule="evenodd" clip-rule="evenodd" d="M0.00965881 12.5V25C0.00965881 26.3261 0.536443 27.5979 1.47412 28.5355C2.41181 29.4732 3.68358 30 5.00966 30H35.0097C36.3357 30 37.6075 29.4732 38.5452 28.5355C39.4829 27.5979 40.0097 26.3261 40.0097 25V12.5H0.00965881ZM7.50966 17.5C6.84662 17.5 6.21073 17.7634 5.74189 18.2322C5.27305 18.7011 5.00966 19.337 5.00966 20V22.5C5.00966 23.163 5.27305 23.7989 5.74189 24.2678C6.21073 24.7366 6.84662 25 7.50966 25H10.0097C10.6727 25 11.3086 24.7366 11.7774 24.2678C12.2463 23.7989 12.5097 23.163 12.5097 22.5V20C12.5097 19.337 12.2463 18.7011 11.7774 18.2322C11.3086 17.7634 10.6727 17.5 10.0097 17.5H7.50966Z" fill="#3B1283"/>
</svg>
