<svg width="28" height="31" viewBox="0 0 28 31" fill="none" xmlns="http://www.w3.org/2000/svg">
<path d="M13.4342 11.5177H16.121V7.19859H20.1513V4.31915H16.121V0H13.4342V4.31915H9.40394V7.19859H13.4342V11.5177ZM8.06052 24.4752C7.34792 24.4752 6.66452 24.7786 6.16064 25.3186C5.65676 25.8586 5.37368 26.591 5.37368 27.3546C5.37368 28.1183 5.65676 28.8507 6.16064 29.3907C6.66452 29.9307 7.34792 30.2341 8.06052 30.2341C8.77311 30.2341 9.45652 29.9307 9.9604 29.3907C10.4643 28.8507 10.7474 28.1183 10.7474 27.3546C10.7474 26.591 10.4643 25.8586 9.9604 25.3186C9.45652 24.7786 8.77311 24.4752 8.06052 24.4752ZM21.4947 24.4752C20.7821 24.4752 20.0987 24.7786 19.5948 25.3186C19.091 25.8586 18.8079 26.591 18.8079 27.3546C18.8079 28.1183 19.091 28.8507 19.5948 29.3907C20.0987 29.9307 20.7821 30.2341 21.4947 30.2341C22.2073 30.2341 22.8907 29.9307 23.3946 29.3907C23.8985 28.8507 24.1816 28.1183 24.1816 27.3546C24.1816 26.591 23.8985 25.8586 23.3946 25.3186C22.8907 24.7786 22.2073 24.4752 21.4947 24.4752ZM8.2889 19.7961L8.3292 19.6234L9.53828 17.2766H19.5468C20.5543 17.2766 21.441 16.6863 21.8977 15.7937L27.0833 5.70128L24.7458 4.31915H24.7324L23.2546 7.19859L19.5468 14.3972H10.116L9.94131 14.0085L6.93205 7.19859L5.6558 4.31915L4.39298 1.43972H0V4.31915H2.68684L7.52315 15.2466L5.70953 18.7739C5.49459 19.177 5.37368 19.6521 5.37368 20.156C5.37368 20.9197 5.65676 21.6521 6.16064 22.1921C6.66452 22.7321 7.34792 23.0355 8.06052 23.0355H24.1816V20.156H8.62475C8.45011 20.156 8.2889 19.9977 8.2889 19.7961Z" fill="white"/>
</svg>
