<svg width="30" height="30" viewBox="0 0 30 30" fill="none" xmlns="http://www.w3.org/2000/svg">
<circle cx="15" cy="15" r="15" fill="#1C1C1C"/>
<path d="M6.66666 9.16666V20.8333H23.3333V9.16666H6.66666ZM10.8333 19.1667C10.8333 18.5036 10.5699 17.8677 10.1011 17.3989C9.63226 16.93 8.99637 16.6667 8.33333 16.6667V13.3333C8.99637 13.3333 9.63226 13.0699 10.1011 12.6011C10.5699 12.1322 10.8333 11.4964 10.8333 10.8333H19.1667C19.1667 11.4964 19.4301 12.1322 19.8989 12.6011C20.3677 13.0699 21.0036 13.3333 21.6667 13.3333V16.6667C21.0036 16.6667 20.3677 16.93 19.8989 17.3989C19.4301 17.8677 19.1667 18.5036 19.1667 19.1667H10.8333ZM15 12.5C15.9167 12.5 16.6667 13.5833 16.6667 15C16.6667 16.4167 15.9167 17.5 15 17.5C14.0833 17.5 13.3333 16.4167 13.3333 15C13.3333 13.5833 14.0833 12.5 15 12.5Z" fill="white"/>
</svg>
