<svg width="50" height="50" viewBox="0 0 50 50" fill="none" xmlns="http://www.w3.org/2000/svg">
<circle cx="25" cy="25" r="25" fill="white"/>
<path d="M40.9697 14.2283C38.8484 13.3385 36.7254 13 34.6035 13C27.8677 12.9995 21.1323 16.4092 14.3965 16.4092C12.7072 16.4092 11.019 16.1948 9.32969 15.6589C9.13992 15.5988 8.94961 15.5703 8.76367 15.5703C7.8225 15.5703 7 16.2987 7 17.3099V34.6601C7 35.3508 7.39539 36.0054 8.03031 36.2712C10.1516 37.1615 12.2746 37.5 14.3965 37.5C21.1323 37.5 27.8682 34.0902 34.6041 34.0902C36.2934 34.0902 37.9816 34.3046 39.6709 34.8405C39.8606 34.9007 40.0509 34.9291 40.2369 34.9291C41.178 34.9291 42.0005 34.2007 42.0005 33.1895V15.8399C42 15.1487 41.6046 14.4946 40.9697 14.2283V14.2283ZM24.5 30.5C22.0834 30.5 20.125 28.149 20.125 25.25C20.125 22.3505 22.0839 20 24.5 20C26.9161 20 28.875 22.3505 28.875 25.25C28.875 28.1501 26.9155 30.5 24.5 30.5Z" fill="#3B1283"/>
</svg>
