<svg width="180" height="108" viewBox="0 0 180 108" fill="none" xmlns="http://www.w3.org/2000/svg">
<path d="M170.836 0H9.16378C4.10277 0 0 4.10277 0 9.16378V98.5797C0 103.641 4.10277 107.743 9.16378 107.743H170.836C175.897 107.743 180 103.641 180 98.5797V9.16378C180 4.10277 175.897 0 170.836 0Z" fill="#3F3D56"/>
<path opacity="0.3" d="M160.501 75.5701H19.4081V80.7007H160.501V75.5701Z" fill="white"/>
<path opacity="0.3" d="M160.592 62.1021H19.4993V67.2328H160.592V62.1021Z" fill="white"/>
<path opacity="0.3" d="M160.592 43.7173H135.366V48.848H160.592V43.7173Z" fill="white"/>
<path opacity="0.3" d="M160.592 30.0356H68.2404V35.1663H160.592V30.0356Z" fill="white"/>
<path opacity="0.3" d="M90.0456 89.2518H19.4081V94.3824H90.0456V89.2518Z" fill="white"/>
<path d="M50.64 13.3611H23.8456C21.4452 13.3611 19.4993 15.3069 19.4993 17.7073V44.5018C19.4993 46.9021 21.4452 48.848 23.8456 48.848H50.64C53.0404 48.848 54.9863 46.9021 54.9863 44.5018V17.7073C54.9863 15.3069 53.0404 13.3611 50.64 13.3611Z" fill="white"/>
</svg>

