<svg width="300" height="226" viewBox="0 0 300 226" fill="none" xmlns="http://www.w3.org/2000/svg">
<g clip-path="url(#clip0)">
<path d="M140.679 218.527C140.679 221.972 109.147 222.339 70.3394 224.764C31.5677 227.187 1.52588e-05 221.972 1.52588e-05 218.527C1.52588e-05 215.083 31.7131 208.152 70.3394 212.29C109.147 216.448 140.679 215.083 140.679 218.527Z" fill="#E6E6E6"/>
<path d="M288.996 0.000360496H205.622C201.599 0.000356124 197.696 1.36915 194.554 3.88175C191.411 6.39435 189.218 9.90121 188.333 13.8259L146.206 200.682C145.747 202.72 145.739 204.834 146.182 206.875C146.626 208.917 147.511 210.837 148.776 212.5C150.04 214.163 151.653 215.53 153.501 216.504C155.349 217.478 157.388 218.036 159.475 218.139L245.183 222.362C249.772 222.588 254.287 221.137 257.885 218.279C261.483 215.421 263.918 211.351 264.736 206.829L288.633 74.7202L290.411 75.2282L294.983 50.1885L293.153 49.731L299.824 12.8546C300.11 11.2751 300.043 9.65202 299.63 8.10108C299.216 6.55013 298.466 5.1095 297.432 3.88189C296.397 2.65429 295.105 1.66993 293.647 0.999C292.189 0.328069 290.601 -0.0129147 288.996 0.000357853L288.996 0.000360496Z" fill="#3F3D56"/>
<path d="M216.598 4.02851H206.866C204.071 4.02851 201.361 4.98437 199.184 6.7374C197.007 8.49044 195.495 10.9352 194.9 13.6659L154.464 198.997C154.231 200.064 154.231 201.169 154.464 202.236C154.697 203.303 155.158 204.307 155.815 205.18C156.472 206.052 157.309 206.773 158.27 207.292C159.231 207.811 160.292 208.117 161.382 208.188L246.813 213.787C249.223 213.945 251.607 213.21 253.51 211.723C255.413 210.235 256.701 208.099 257.129 205.722L291.634 14.1637C291.857 12.9238 291.806 11.6501 291.483 10.4323C291.16 9.21456 290.574 8.08245 289.766 7.11591C288.958 6.14936 287.948 5.37192 286.807 4.83846C285.665 4.305 284.421 4.02851 283.161 4.02851H273.929C273.035 4.02851 272.166 4.32309 271.457 4.86664C270.748 5.41018 270.238 6.17238 270.005 7.03523V7.03523C269.8 7.79697 269.35 8.46987 268.724 8.94972C268.097 9.42958 267.331 9.68964 266.542 9.68964H222.712C221.167 9.68964 219.679 9.10656 218.546 8.05699C217.412 7.00741 216.717 5.5687 216.598 4.0285V4.02851Z" fill="white"/>
<path d="M125.152 99.357L132.684 114.269L155.207 124.509C157.612 128.573 165.255 128.884 165.811 126.256C166.435 123.307 156.53 118.561 156.53 118.561L137.692 105.819L136.043 94.8493L125.152 99.357Z" fill="#A0616A"/>
<path d="M126.04 199.431L124.651 210.544L132.708 211.1L133.542 199.431H126.04Z" fill="#A0616A"/>
<path d="M127.152 208.877C126.431 208.116 125.767 207.303 125.164 206.446C124.009 204.848 122.984 213.045 122.984 213.045C122.984 213.045 121.873 216.379 122.151 218.046C122.429 219.713 128.819 219.713 129.93 219.435C131.041 219.157 136.598 219.435 136.598 219.435H144.933C152.157 216.101 144.933 213.878 144.933 213.878C142.71 213.6 135.209 206.655 135.209 206.655L133.542 203.599C132.431 203.321 131.319 207.488 131.319 207.488L127.152 208.877Z" fill="#2F2E41"/>
<path d="M105.203 199.57L103.814 210.683L111.871 211.239L112.705 199.57H105.203Z" fill="#A0616A"/>
<path d="M106.314 209.016C105.594 208.255 104.93 207.442 104.326 206.585C103.172 204.987 102.147 213.184 102.147 213.184C102.147 213.184 101.036 216.24 101.313 217.907C101.591 219.574 107.981 219.574 109.093 219.296C110.204 219.018 115.761 219.574 115.761 219.574H124.096C131.319 216.24 124.096 214.017 124.096 214.017C121.873 213.739 114.372 206.794 114.372 206.794L112.705 203.737C111.593 203.46 110.482 207.627 110.482 207.627L106.314 209.016Z" fill="#2F2E41"/>
<path d="M114.372 127.89C113.26 129.279 113.816 134.002 113.816 134.002C113.816 134.002 111.871 149.283 112.705 150.672C113.538 152.061 112.149 153.172 111.315 155.117C110.482 157.062 109.648 161.785 109.648 161.785C104.925 165.675 105.203 183.456 105.203 183.456L103.536 199.292C104.092 200.959 111.871 201.237 112.982 200.959C114.094 200.681 117.428 175.677 117.428 175.677L124.929 161.507C124.929 161.507 124.373 199.292 124.373 200.959C124.373 202.626 131.875 201.793 133.542 201.793C135.209 201.793 135.209 174.01 135.209 174.01L136.876 166.786L145.766 133.724V129.834L144.377 127.89C144.377 127.89 115.483 126.501 114.372 127.89Z" fill="#2F2E41"/>
<path d="M126.596 64.822C131.353 64.822 135.209 60.9659 135.209 56.2092C135.209 51.4526 131.353 47.5965 126.596 47.5965C121.839 47.5965 117.983 51.4526 117.983 56.2092C117.983 60.9659 121.839 64.822 126.596 64.822Z" fill="#A0616A"/>
<path d="M130.902 60.2378C129.157 64.1253 130.19 69.5553 133.681 75.5185L119.511 68.8506L121.734 66.9057L121.178 61.3491L130.902 60.2378Z" fill="#A0616A"/>
<path d="M130.902 69.1284C132.758 70.2315 133.868 72.2584 134.505 74.3208C135.685 78.1392 136.395 82.0871 136.62 86.0772L137.293 98.0229L145.628 129.696C138.404 135.808 134.236 134.419 124.512 129.418C114.788 124.417 113.677 131.085 113.677 131.085C113.677 131.085 112.843 130.807 113.677 129.973C114.51 129.14 113.677 129.973 112.843 129.14C112.01 128.306 112.843 129.14 113.121 128.306C113.399 127.473 113.121 128.029 112.843 127.751C112.566 127.473 113.955 124.972 113.955 124.972L111.732 104.135L108.954 74.685C112.288 70.5176 121.734 66.9058 121.734 66.9058L130.347 73.018C133.125 74.1293 130.902 69.684 130.902 69.684L130.902 69.1284Z" fill="#3B1283"/>
<path d="M104.37 92.3272L103.258 108.997L117.428 129.279C117.428 134.002 119.928 135.113 119.928 135.113C120.875 133.602 121.711 132.023 122.429 130.39C123.818 127.334 121.595 124.833 121.595 124.833L111.871 104.274L116.038 93.9943L104.37 92.3272Z" fill="#A0616A"/>
<path d="M109.093 74.8239C104.37 76.4909 103.536 94.5499 103.536 94.5499C109.093 91.4938 115.761 96.4947 115.761 96.4947C115.761 96.4947 117.15 91.7716 118.817 85.6593C119.32 83.94 119.38 82.1213 118.992 80.3725C118.603 78.6237 117.778 77.0017 116.594 75.6574C116.594 75.6574 113.816 73.157 109.093 74.8239Z" fill="#3B1283"/>
<path d="M118.678 58.8486C119.774 57.9715 121.27 59.5659 121.27 59.5659L122.147 51.6715C122.147 51.6715 127.63 52.3294 131.138 51.4522C134.647 50.575 135.195 54.6319 135.195 54.6319C135.376 52.9936 135.413 51.3426 135.305 49.6979C135.085 47.7243 132.235 45.7507 127.191 44.435C122.147 43.1193 119.516 48.8208 119.516 48.8208C116.007 50.5751 117.581 59.7258 118.678 58.8486Z" fill="#2F2E41"/>
<path d="M265.08 133.591C265.248 133.597 265.412 133.544 265.543 133.44C265.674 133.335 265.764 133.188 265.796 133.024L284.952 28.7562C284.97 28.6569 284.967 28.5549 284.941 28.4572C284.916 28.3595 284.87 28.2685 284.805 28.1906C284.741 28.1126 284.661 28.0497 284.57 28.006C284.479 27.9624 284.379 27.9392 284.279 27.938L197.125 26.9227H197.117C196.96 26.9232 196.807 26.9771 196.684 27.0754C196.562 27.1737 196.476 27.3107 196.441 27.4641L173.858 128.347C173.836 128.446 173.836 128.548 173.857 128.647C173.879 128.745 173.922 128.838 173.983 128.918C174.044 128.999 174.122 129.065 174.211 129.112C174.301 129.159 174.399 129.186 174.5 129.19L265.08 133.591Z" fill="#E6E6E6"/>
<path d="M189.234 140.251C189.156 140.251 189.08 140.278 189.019 140.327C188.957 140.375 188.915 140.443 188.897 140.519L188.092 143.969C188.081 144.018 188.08 144.069 188.09 144.118C188.1 144.167 188.121 144.213 188.151 144.253C188.18 144.294 188.219 144.327 188.262 144.351C188.306 144.376 188.355 144.39 188.405 144.393L233.876 147.625C233.96 147.631 234.044 147.605 234.111 147.554C234.178 147.502 234.224 147.429 234.241 147.346L235.015 143.355C235.024 143.306 235.023 143.256 235.012 143.208C235.001 143.16 234.979 143.115 234.949 143.076C234.918 143.037 234.88 143.005 234.837 142.982C234.793 142.959 234.745 142.946 234.696 142.943L189.255 140.252C189.248 140.252 189.241 140.251 189.234 140.251Z" fill="#E6E6E6"/>
<path d="M244.478 160.443C244.56 160.449 244.642 160.427 244.709 160.378C244.775 160.33 244.823 160.26 244.843 160.181L245.828 156.181C245.84 156.132 245.841 156.081 245.831 156.031C245.822 155.981 245.801 155.935 245.771 155.894C245.742 155.853 245.703 155.819 245.659 155.795C245.615 155.77 245.566 155.756 245.515 155.752L187.447 151.691C187.368 151.685 187.289 151.706 187.225 151.751C187.16 151.796 187.112 151.862 187.09 151.938L186.066 155.394C186.052 155.444 186.048 155.496 186.056 155.547C186.064 155.598 186.084 155.646 186.113 155.689C186.142 155.731 186.18 155.767 186.225 155.792C186.27 155.818 186.319 155.834 186.371 155.838L244.478 160.443Z" fill="#E6E6E6"/>
<path d="M241.36 173.264C241.442 173.27 241.524 173.247 241.59 173.199C241.657 173.151 241.704 173.081 241.724 173.001L242.709 169.001C242.721 168.952 242.723 168.901 242.713 168.852C242.703 168.802 242.683 168.755 242.653 168.714C242.623 168.673 242.585 168.64 242.54 168.615C242.496 168.591 242.447 168.576 242.397 168.573L184.328 164.511C184.25 164.505 184.171 164.526 184.106 164.571C184.041 164.616 183.994 164.682 183.972 164.758L182.948 168.215C182.933 168.264 182.93 168.316 182.938 168.367C182.946 168.418 182.965 168.467 182.994 168.509C183.023 168.552 183.062 168.587 183.106 168.613C183.151 168.639 183.201 168.654 183.252 168.658L241.36 173.264Z" fill="#E6E6E6"/>
<path d="M214.616 195.257C214.698 195.266 214.781 195.244 214.849 195.196C214.917 195.148 214.965 195.077 214.985 194.996L217.068 186.663C217.08 186.614 217.082 186.563 217.072 186.514C217.063 186.464 217.043 186.418 217.014 186.377C216.984 186.336 216.947 186.302 216.903 186.277C216.859 186.252 216.811 186.237 216.761 186.233L181.101 183.234C181.017 183.228 180.935 183.252 180.867 183.301C180.8 183.351 180.753 183.422 180.733 183.504L178.956 191.502C178.945 191.55 178.945 191.6 178.955 191.648C178.965 191.696 178.985 191.741 179.014 191.781C179.043 191.821 179.08 191.854 179.123 191.878C179.166 191.902 179.213 191.917 179.262 191.922L214.616 195.257Z" fill="#3B1283"/>
</g>
<defs>
<clipPath id="clip0">
<rect width="300" height="225.385" fill="white"/>
</clipPath>
</defs>
</svg>
