<svg width="150" height="150" viewBox="0 0 150 150" fill="none" xmlns="http://www.w3.org/2000/svg">
<g clip-path="url(#clip0)">
<path d="M75.0006 105.396L84.9071 127.685L75.0006 149.974H22.2892C9.9991 149.974 0 139.975 0 127.685C0 115.395 9.9991 105.396 22.2892 105.396H75.0006Z" fill="#171717"/>
<path d="M150 127.686C150 139.977 140.001 149.976 127.711 149.976H74.9994V105.397H127.711C140.001 105.397 150 115.396 150 127.686Z" fill="black"/>
<path d="M28.5242 132.391C31.1168 132.391 33.2184 130.289 33.2184 127.696C33.2184 125.104 31.1168 123.002 28.5242 123.002C25.9317 123.002 23.83 125.104 23.83 127.696C23.83 130.289 25.9317 132.391 28.5242 132.391Z" fill="#FFEA80"/>
<path d="M51.7624 132.391C54.3549 132.391 56.4566 130.289 56.4566 127.696C56.4566 125.104 54.3549 123.002 51.7624 123.002C49.1698 123.002 47.0681 125.104 47.0681 127.696C47.0681 130.289 49.1698 132.391 51.7624 132.391Z" fill="#FFEA80"/>
<path d="M75.0006 132.391C77.5931 132.391 79.6948 130.289 79.6948 127.696C79.6948 125.104 77.5931 123.002 75.0006 123.002C72.408 123.002 70.3063 125.104 70.3063 127.696C70.3063 130.289 72.408 132.391 75.0006 132.391Z" fill="#FFEA80"/>
<path d="M79.6957 127.695C79.6957 130.288 77.5922 132.391 74.9994 132.391V123.002C77.5922 123.002 79.6957 125.105 79.6957 127.695Z" fill="#F3D332"/>
<path d="M98.2387 132.391C100.831 132.391 102.933 130.289 102.933 127.696C102.933 125.104 100.831 123.002 98.2387 123.002C95.6462 123.002 93.5445 125.104 93.5445 127.696C93.5445 130.289 95.6462 132.391 98.2387 132.391Z" fill="#F3D332"/>
<path d="M121.477 132.391C124.069 132.391 126.171 130.289 126.171 127.696C126.171 125.104 124.069 123.002 121.477 123.002C118.884 123.002 116.783 125.104 116.783 127.696C116.783 130.289 118.884 132.391 121.477 132.391Z" fill="#F3D332"/>
<path d="M75.0006 0.024313C60.9977 0.024313 49.6056 11.4165 49.6056 25.4193V54.6274C49.6056 57.0544 51.5732 59.0219 54.0001 59.0219C56.4271 59.0219 58.3947 57.0544 58.3947 54.6274V25.4193C58.3947 16.2628 65.8441 8.81344 75.0006 8.81344C84.1571 8.81344 91.6065 16.2628 91.6065 25.4193V54.6274C91.6065 57.0544 93.5741 59.0219 96.0011 59.0219C98.428 59.0219 100.396 57.0544 100.396 54.6274V25.4193C100.396 11.4165 89.0034 0.024313 75.0006 0.024313V0.024313Z" fill="#5A5A5A"/>
<path d="M100.397 25.419V54.6283C100.397 57.0541 98.4283 59.0228 96.0025 59.0228C93.5738 59.0228 91.6079 57.0541 91.6079 54.6283V25.419C91.6079 16.2637 84.1577 8.81344 74.9994 8.81344V0.024313C89.0034 0.024313 100.397 11.415 100.397 25.419V25.419Z" fill="#444444"/>
<path d="M75.0006 42.5564V114.185C55.2514 114.185 39.1878 98.1184 39.1878 78.3721C39.1878 58.6229 55.2514 42.5564 75.0006 42.5564V42.5564Z" fill="#4A1F94"/>
<path d="M110.815 78.3706C110.815 89.1461 106.031 98.8259 98.4752 105.397C92.1851 110.87 83.9731 114.186 74.9994 114.186V42.5579C80.9907 42.5579 86.6421 44.0374 91.6079 46.6477C94.8658 48.3587 97.8277 50.556 100.397 53.1429C106.834 59.6234 110.815 68.5415 110.815 78.3706Z" fill="#3C1384"/>
<path d="M62.1714 73.6669C62.1714 79.1952 65.6899 83.9208 70.606 85.7167V91.5936C70.606 94.0194 72.5747 95.9882 75.0005 95.9882L78.1499 73.4105L75.0005 60.8378C67.9282 60.8378 62.1714 66.5917 62.1714 73.6669V73.6669Z" fill="#5A5A5A"/>
<path d="M74.9994 60.8363V95.9867C77.4281 95.9867 79.394 94.0209 79.394 91.5922V85.7182C84.31 83.9193 87.8285 79.1967 87.8285 73.6654C87.8285 66.5932 82.0746 60.8363 74.9994 60.8363Z" fill="#444444"/>
</g>
<defs>
<clipPath id="clip0">
<rect width="150" height="150" fill="white"/>
</clipPath>
</defs>
</svg>
