<svg width="200" height="232" viewBox="0 0 200 232" fill="none" xmlns="http://www.w3.org/2000/svg">
<g clip-path="url(#clip0)">
<path opacity="0.18" d="M26.2993 182.684C23.7104 170.004 29.0121 156.249 24.4119 144.154C20.6178 134.201 10.9716 127.753 5.30946 118.73C-1.94164 107.174 -1.75174 91.377 5.78227 80.0023C13.7503 67.9882 27.9735 61.9695 39.166 52.8737C46.4636 46.9364 52.552 39.5884 60.0938 33.9728C67.6355 28.3572 77.4096 24.5437 86.4473 27.1519C92.2606 28.8261 97.0236 32.9148 102.585 35.244C115.138 40.5069 129.365 36.1935 142.941 35.1393C154.792 34.2271 166.701 35.8808 177.855 39.9876C184.92 42.5919 191.912 46.4287 196.028 52.7342C200.357 59.3691 200.88 67.9766 198.88 75.6424C196.88 83.3081 192.609 90.1794 187.858 96.5275C180.495 106.364 171.348 117.843 175.313 129.469C177.824 136.833 184.955 141.484 189.699 147.638C199.973 160.993 196.911 182.572 183.347 192.544C177.84 196.59 170.945 198.942 166.651 204.259C164.275 207.201 162.888 210.848 160.45 213.75C154.156 221.304 142.964 221.889 133.136 221.811C121.207 221.718 109.281 221.532 97.3569 221.253C86.8581 221.009 72.3637 223.09 62.3455 219.94C47.5139 215.266 29.4501 198.066 26.2993 182.684Z" fill="#3C1384"/>
<path d="M44.9095 209.964C39.0962 211.661 32.1939 215.312 32.6745 221.35C33.1667 227.528 40.8557 229.954 47.0139 230.527C58.7412 231.613 70.5461 231.516 82.3238 231.415L131.593 231C142.968 230.903 154.42 230.799 165.578 228.597C169.112 227.9 172.79 226.892 175.344 224.334C177.898 221.777 178.809 217.269 176.383 214.603C174.123 212.123 170.205 212.235 167.244 210.654C163.934 208.887 162.167 205.228 159.493 202.597C153.622 196.872 144.398 196.872 136.193 197.225L82.4672 199.585C75.7935 199.876 66.5775 198.578 60.3031 201.136C54.9549 203.275 51.5793 209.964 44.9095 209.964Z" fill="url(#paint0_linear)"/>
<path d="M143.448 57.6871H65.5118C60.4476 57.6871 56.3423 61.7924 56.3423 66.8566V215.549C56.3423 220.613 60.4476 224.718 65.5118 224.718H143.448C148.513 224.718 152.618 220.613 152.618 215.549V66.8566C152.618 61.7924 148.513 57.6871 143.448 57.6871Z" fill="#3C1384"/>
<path d="M143.448 57.6871H65.5118C60.4476 57.6871 56.3423 61.7924 56.3423 66.8566V215.549C56.3423 220.613 60.4476 224.718 65.5118 224.718H143.448C148.513 224.718 152.618 220.613 152.618 215.549V66.8566C152.618 61.7924 148.513 57.6871 143.448 57.6871Z" fill="url(#paint1_linear)"/>
<path d="M147.045 57.6871H69.1082C64.0441 57.6871 59.9388 61.7924 59.9388 66.8566V215.549C59.9388 220.613 64.0441 224.718 69.1082 224.718H147.045C152.109 224.718 156.214 220.613 156.214 215.549V66.8566C156.214 61.7924 152.109 57.6871 147.045 57.6871Z" fill="#3C1384"/>
<path d="M151.606 70.8251V195.322C151.606 197.444 150.764 199.478 149.264 200.978C147.763 202.479 145.729 203.321 143.607 203.321H72.5458C70.4247 203.32 68.3907 202.477 66.8908 200.977C65.3909 199.477 64.5478 197.443 64.5468 195.322V70.8251C64.5478 68.7039 65.3909 66.6699 66.8908 65.17C68.3907 63.6701 70.4247 62.8271 72.5458 62.826H91.6328V65.4924C91.6328 66.6097 92.0766 67.6812 92.8666 68.4712C93.6567 69.2612 94.7282 69.7051 95.8455 69.7051H124.203C125.32 69.7051 126.391 69.2612 127.181 68.4712C127.971 67.6812 128.415 66.6097 128.415 65.4924V65.4924V62.8415H143.607C145.726 62.8415 147.758 63.6821 149.258 65.1789C150.758 66.6757 151.602 68.7063 151.606 70.8251V70.8251Z" fill="url(#paint2_linear)"/>
<path opacity="0.19" d="M124.439 64.9304C123.257 66.0466 121.513 66.7054 120.928 68.2246C120.443 69.4803 120.928 70.8755 121.122 72.2087C121.509 75.2044 120.242 78.1227 119.401 81.0255C118.57 83.8943 118.154 86.8672 118.165 89.8539C118.165 91.3188 118.254 92.8884 117.482 94.117C116.711 95.3455 114.661 95.892 113.808 94.7022C113.633 94.4383 113.503 94.1477 113.421 93.8418C112.037 89.4043 112.871 84.6103 112.812 79.9481C112.754 75.2858 111.301 70.0461 107.162 67.903C106.255 76.0067 104.818 84.0423 102.86 91.9583C102.442 93.6635 101.527 95.7369 99.7597 95.6982C99.4342 93.1868 99.3063 90.66 99.1784 88.1254C98.6823 78.5193 98.1992 68.908 97.7289 59.2916C97.6902 58.5165 97.6592 57.6561 98.0196 56.9662C98.5583 55.8966 99.8101 55.416 100.961 55.0827C105.333 53.7835 109.852 53.0452 114.409 52.8853C117.459 52.7768 121.955 53.3736 124.145 55.8385C126.187 58.1289 126.799 62.6981 124.439 64.9304Z" fill="url(#paint3_linear)"/>
<path d="M116.909 218.478H101.236C99.9659 218.478 98.7475 217.974 97.8492 217.075C96.9508 216.177 96.4462 214.959 96.4462 213.688V213.688C96.4441 213.06 96.5659 212.437 96.8046 211.856C97.0432 211.274 97.394 210.745 97.837 210.299C98.2801 209.853 98.8066 209.499 99.3865 209.257C99.9664 209.014 100.588 208.889 101.217 208.887H116.909C118.177 208.889 119.392 209.394 120.288 210.291C121.184 211.189 121.687 212.405 121.687 213.673C121.69 214.301 121.569 214.924 121.331 215.506C121.092 216.088 120.742 216.617 120.299 217.063C119.857 217.509 119.33 217.864 118.751 218.107C118.171 218.35 117.549 218.476 116.921 218.478V218.478H116.909Z" fill="url(#paint4_linear)"/>
<path d="M87.3736 130.5C92.3799 130.5 96.4384 126.442 96.4384 121.435C96.4384 116.429 92.3799 112.371 87.3736 112.371C82.3672 112.371 78.3087 116.429 78.3087 121.435C78.3087 126.442 82.3672 130.5 87.3736 130.5Z" stroke="white" stroke-width="0.82" stroke-miterlimit="10"/>
<path d="M110.677 130.496C115.683 130.496 119.742 126.438 119.742 121.432C119.742 116.425 115.683 112.367 110.677 112.367C105.671 112.367 101.612 116.425 101.612 121.432C101.612 126.438 105.671 130.496 110.677 130.496Z" stroke="white" stroke-width="0.82" stroke-miterlimit="10"/>
<path d="M133.981 130.496C138.987 130.496 143.045 126.438 143.045 121.432C143.045 116.425 138.987 112.367 133.981 112.367C128.974 112.367 124.916 116.425 124.916 121.432C124.916 126.438 128.974 130.496 133.981 130.496Z" stroke="white" stroke-width="0.82" stroke-miterlimit="10"/>
<path d="M96.1938 147.527C97.3438 142.655 94.3261 137.772 89.4536 136.622C84.5811 135.472 79.6989 138.49 78.5489 143.363C77.3989 148.235 80.4166 153.117 85.2891 154.267C90.1616 155.417 95.0438 152.4 96.1938 147.527Z" stroke="white" stroke-width="0.82" stroke-miterlimit="10"/>
<path d="M119.498 147.526C120.648 142.654 117.631 137.772 112.758 136.622C107.886 135.472 103.003 138.489 101.853 143.362C100.703 148.234 103.721 153.117 108.594 154.267C113.466 155.417 118.348 152.399 119.498 147.526Z" stroke="white" stroke-width="0.82" stroke-miterlimit="10"/>
<path d="M111.685 191.613C118.455 191.613 123.943 186.125 123.943 179.355C123.943 172.585 118.455 167.097 111.685 167.097C104.915 167.097 99.4264 172.585 99.4264 179.355C99.4264 186.125 104.915 191.613 111.685 191.613Z" fill="#FF354E"/>
<path d="M142.807 147.529C143.957 142.657 140.939 137.775 136.066 136.625C131.194 135.475 126.312 138.492 125.162 143.365C124.012 148.237 127.029 153.12 131.902 154.27C136.774 155.42 141.657 152.402 142.807 147.529Z" stroke="white" stroke-width="0.82" stroke-miterlimit="10"/>
<path d="M104.147 178.751C104.079 178.75 104.011 178.735 103.949 178.708C103.886 178.681 103.829 178.642 103.782 178.593C103.734 178.544 103.697 178.486 103.672 178.423C103.647 178.359 103.634 178.292 103.635 178.223V178.223C103.636 178.158 103.65 178.094 103.674 178.034C104.093 176.972 105.224 173.654 111.561 173.654C117.544 173.654 118.893 176.964 119.335 178.026C119.389 178.152 119.391 178.295 119.34 178.423C119.29 178.551 119.19 178.653 119.064 178.708C119.001 178.736 118.934 178.75 118.866 178.751H116.471C116.38 178.751 116.29 178.726 116.212 178.68C116.134 178.633 116.069 178.567 116.025 178.487C115.711 177.906 114.998 175.111 111.448 175.111C108.557 175.111 107.484 176.662 106.887 178.398C106.853 178.5 106.788 178.589 106.701 178.652C106.614 178.715 106.51 178.75 106.402 178.751H104.147Z" fill="white"/>
<path d="M106.643 178.274H103.565C102.774 178.274 102.132 178.916 102.132 179.708V180.308C102.132 181.1 102.774 181.742 103.565 181.742H106.643C107.435 181.742 108.077 181.1 108.077 180.308V179.708C108.077 178.916 107.435 178.274 106.643 178.274Z" fill="white"/>
<path d="M119.145 178.274H116.068C115.276 178.274 114.634 178.916 114.634 179.708V180.308C114.634 181.1 115.276 181.742 116.068 181.742H119.145C119.937 181.742 120.579 181.1 120.579 180.308V179.708C120.579 178.916 119.937 178.274 119.145 178.274Z" fill="white"/>
<path d="M101.074 31.6475C100.457 30.6321 98.1087 25.0979 97.2484 23.1213L94.21 16.188C94.0539 16.5065 93.9728 16.8565 93.9728 17.2112C93.9728 17.5658 94.0539 17.9158 94.21 18.2343C92.1896 18.3311 90.1778 18.5603 88.1874 18.9203C87.5015 19.0443 86.6643 19.3466 86.6062 20.0403C86.5636 20.5131 86.924 20.9162 87.2806 21.2301C88.4913 22.2809 89.9378 23.0241 91.4971 23.3965C92.3614 23.6019 93.3535 23.7492 93.8651 24.4739C94.1166 24.9015 94.2652 25.3818 94.2991 25.8768C94.7643 29.0594 95.4113 32.2128 96.2369 35.3215C96.5314 36.4299 97.012 37.6855 98.0816 38.0343C98.7792 38.263 99.5349 38.0343 100.229 37.8018C102.337 37.0926 104.449 36.2516 106.17 34.8448C108.235 33.1473 115.471 23.9933 111.89 21.8385C110.158 20.7805 105.41 26.4272 104.484 27.5782C103.085 29.3454 102.794 30.1554 101.074 31.6475Z" fill="url(#paint5_linear)"/>
<path d="M142.77 43.5376C142.027 43.9472 141.205 44.193 140.36 44.2584C139.817 44.332 139.263 44.3786 138.713 44.4018C135.407 44.5374 132.023 43.7778 129.473 41.7122C128.117 40.6115 127.02 39.1737 125.509 38.294C124.349 37.6783 123.08 37.2976 121.773 37.174C120.711 37.0306 119.626 36.9647 118.568 36.8368C116.204 36.5539 113.607 35.7323 112.51 33.6162C111.735 32.159 111.886 30.4112 112.123 28.7835C112.572 25.6831 113.312 22.5826 113.444 19.4241C113.518 17.7189 113.39 15.9361 112.475 14.4906C111.863 13.5294 110.948 12.8086 110.231 11.925C108.224 9.44464 109.611 5.51486 112.251 4.03829C112.751 3.80916 113.228 3.53 113.673 3.20505C114.212 2.73224 114.506 2.0424 114.979 1.49983C116.3 -0.0271289 118.626 -0.050382 120.622 0.0232528L124.051 0.170522C125.16 0.217029 126.439 0.360423 127.028 1.2983C127.481 2.01914 127.415 3.06553 128.063 3.59648C128.299 3.76591 128.56 3.89672 128.838 3.98403C130.087 4.45069 131.212 5.19638 132.129 6.16421C133.046 7.13204 133.729 8.29646 134.128 9.56865C135.116 12.8473 134.101 16.4787 135.085 19.7535C135.157 20.0588 135.302 20.3421 135.508 20.579C135.799 20.8079 136.13 20.9814 136.484 21.0906C138.639 22.0401 139.306 24.7994 139.131 27.1441C139.034 28.4657 138.767 29.857 139.255 31.0739C139.608 31.9575 140.313 32.6474 140.984 33.3217C142.398 34.7363 143.793 36.2826 144.375 38.1971C144.956 40.1116 144.472 42.4873 142.77 43.5376Z" fill="#3F3D56"/>
<path d="M138.713 44.4018C135.407 44.5375 132.023 43.7779 129.473 41.7122C128.117 40.6116 127.02 39.1737 125.509 38.294C124.349 37.6783 123.08 37.2977 121.773 37.174C120.381 35.6238 119.006 34.0464 117.672 32.442C116.641 31.2018 115.626 29.919 115.01 28.4269C114.394 26.9349 114.235 25.4195 114.037 23.8693C113.514 19.5481 113.006 15.068 114.359 10.9328C114.529 10.338 114.79 9.77323 115.134 9.25861C117.459 6.04193 123.629 6.54575 125.656 9.77793C126.177 10.7018 126.538 11.7066 126.726 12.7505C127.094 14.4394 127.338 16.1531 127.454 17.8778C127.547 19.3156 127.601 20.8852 128.543 21.9742C129.132 22.6524 129.997 23.0438 130.632 23.6833C133.066 26.121 131.14 30.6592 133.105 33.4961C133.611 34.1507 134.22 34.7198 134.907 35.182C136.457 36.3446 138.162 37.484 139.139 39.1776C140.115 40.8712 140.123 43.1694 138.713 44.4018Z" fill="#25233A"/>
<path d="M106.891 46.5488C106.891 46.5488 92.5164 49.1803 92.1017 53.0287C91.687 56.8771 94.706 88.7455 94.706 88.7455H97.9964C97.9964 88.7455 103.907 71.3057 102.887 66.1784C101.868 61.051 100.833 59.6248 100.833 59.6248C100.833 59.6248 106.821 62.5819 112.483 56.0594C118.145 49.5369 115.618 45.1769 115.618 45.1769L106.891 46.5488Z" fill="#3F3D56"/>
<path d="M114.975 45.766C114.975 45.766 101.267 50.8274 101.515 54.6797C101.763 58.532 110.2 89.4121 110.2 89.4121L113.444 88.8463C113.444 88.8463 116.277 70.6623 114.394 65.7714C112.51 60.8805 111.262 59.6791 111.262 59.6791C111.262 59.6791 119.192 63.3221 123.85 56.0477C127.795 49.8779 121.261 43.6228 117.238 44.9986L114.975 45.766Z" fill="#25233A"/>
<path d="M106.891 46.5489V38.4529C106.891 38.4529 104.511 34.0348 104.124 31.7599C103.899 30.4422 105.561 26.4 107.476 24.8382C108.809 23.7531 109.801 21.8192 111.506 21.7649L119.874 21.513L123.974 33.1396L122.528 46.6186C122.528 46.6186 119.013 44.7971 106.891 46.5489Z" fill="#FFD200"/>
<path d="M115.487 44.6963C115.39 44.8552 114.917 45.5877 114.963 45.766C115.01 45.9443 117.192 46.0024 117.975 46.0799C119.308 46.2117 121.184 46.4675 122.517 46.6147C123.42 42.185 122.97 39.383 123.629 36.9918C123.753 36.7112 123.815 36.4072 123.811 36.1004C123.734 35.5656 121.823 32.8179 121.346 32.6125C119.796 31.942 119.796 34.2867 119.618 35.1548C118.975 38.5847 117.308 41.751 115.487 44.6963Z" fill="url(#paint6_linear)"/>
<path d="M109.782 8.05333C109.782 8.05333 107.844 14.5138 109.169 15.6222C110.495 16.7306 111.65 16.8856 111.921 17.436C112.192 17.9863 112.874 20.3232 111.921 21.8579C110.968 23.3926 111.421 25.5745 112.812 24.8382C114.204 24.1018 117.296 21.8424 117.296 21.8424L119.079 15.3587C119.079 15.3587 121.932 8.56102 121.49 7.07282C121.048 5.58462 114.099 1.59671 109.782 8.05333Z" fill="url(#paint7_linear)"/>
<path d="M118.176 9.73918C118.385 10.553 118.013 11.4367 118.242 12.2466C118.525 13.2465 119.61 13.7968 120.622 14.0255C121.633 14.2542 122.73 14.3355 123.594 14.9207C124.571 15.5796 125.168 16.8585 126.307 17.1104C126.878 17.1924 127.46 17.1366 128.005 16.9476C129.26 16.6221 130.613 16.2345 131.403 15.2037C131.813 14.6351 132.059 13.9647 132.113 13.2659C132.392 10.5298 130.516 7.94869 128.179 6.49537C125.842 5.04205 123.083 4.47623 120.428 3.78251C118.955 3.39496 115.467 2.30206 114.653 4.28632C114.076 5.69314 115.394 8.25098 117.041 6.92168C116.882 8.01457 117.924 8.74705 118.176 9.73918Z" fill="#3F3D56"/>
<path d="M121.563 15.754C121.563 15.754 119.847 17.1414 118.804 16.7616C117.761 16.3818 115.975 18.6994 115.975 18.6994C115.975 18.6994 115.425 19.6372 116.641 20.0946C117.319 20.3361 118.038 20.4397 118.756 20.3991C119.474 20.3585 120.177 20.1746 120.823 19.8582C123.048 18.7304 125.602 15.4982 126.555 14.5448C128.652 12.4094 128.183 7.56888 125.807 7.28597C123.431 7.00306 123.823 9.70042 123.908 9.82444C124.07 9.93625 124.245 10.0298 124.427 10.1035C124.683 10.2171 124.883 10.4275 124.983 10.6884C125.083 10.9493 125.076 11.2394 124.962 11.4948V11.4948C124.943 11.5373 124.921 11.5787 124.896 11.6188C124.013 13.0295 122.462 15.3858 121.563 15.754Z" fill="#3C1384"/>
<path d="M121.563 15.754C121.563 15.754 119.847 17.1414 118.804 16.7616C117.761 16.3818 115.975 18.6994 115.975 18.6994C115.975 18.6994 115.425 19.6372 116.641 20.0946C117.319 20.3361 118.038 20.4397 118.756 20.3991C119.474 20.3585 120.177 20.1746 120.823 19.8582C123.048 18.7304 125.602 15.4982 126.555 14.5448C128.652 12.4094 128.183 7.56888 125.807 7.28597C123.431 7.00306 123.823 9.70042 123.908 9.82444C124.07 9.93625 124.245 10.0298 124.427 10.1035C124.683 10.2171 124.883 10.4275 124.983 10.6884C125.083 10.9493 125.076 11.2394 124.962 11.4948V11.4948C124.943 11.5373 124.921 11.5787 124.896 11.6188C124.013 13.0295 122.462 15.3858 121.563 15.754Z" fill="url(#paint8_linear)"/>
<path d="M92.5706 92.4272C92.509 92.5467 92.4809 92.6806 92.4893 92.8148C92.5137 92.9043 92.5631 92.9851 92.6317 93.0475C92.7004 93.11 92.7854 93.1516 92.8768 93.1675C93.0602 93.1953 93.2473 93.1861 93.4271 93.1403C94.6169 92.9582 95.8609 92.9039 96.8182 92.1753C97.7754 91.4467 98.9652 89.5904 98.1359 88.6176C98.1359 88.5207 94.8921 88.6176 94.5355 88.8734C93.617 89.5206 93.0086 91.4196 92.5706 92.4272Z" fill="url(#paint9_linear)"/>
<path d="M91.1716 94.5782L92.5706 92.4272C92.5706 92.4272 95.7873 94.0123 97.6476 90.6561C98.601 88.9315 98.1359 88.6292 98.1359 88.6292C98.1359 88.6292 99.2637 88.8811 99.4458 90.9197C99.5543 92.1367 99.5543 93.3611 99.4458 94.5782L98.6048 95.0432L98.1514 93.1985C98.1514 93.1985 96.0044 96.109 95.3339 97.0972C94.9928 97.6049 93.3961 97.9886 91.9583 98.2405C91.7646 98.2739 91.5663 98.2688 91.3746 98.2255C91.1829 98.1822 91.0016 98.1016 90.8411 97.9882C90.6806 97.8749 90.544 97.731 90.4391 97.5648C90.3342 97.3986 90.2631 97.2134 90.2298 97.0197V97.0197C90.1764 96.7128 90.2211 96.3968 90.3577 96.1167C90.5864 95.6672 90.8499 95.1634 91.1716 94.5782Z" fill="#FFD200"/>
<path d="M108.549 92.621C108.494 92.7422 108.476 92.8773 108.499 93.0086C108.528 93.0908 108.58 93.1632 108.649 93.2173C108.717 93.2715 108.8 93.3052 108.887 93.3147C109.061 93.3304 109.236 93.3107 109.402 93.2566C110.51 93.0163 111.84 92.7373 112.696 91.9932C113.553 91.2491 114.196 89.4276 113.557 88.7261C113.557 88.6409 110.507 88.9199 110.185 89.1796C109.324 89.8578 108.863 91.6599 108.549 92.621Z" fill="url(#paint10_linear)"/>
<path d="M107.348 94.737L108.549 92.621C108.549 92.621 111.65 93.9232 113.2 90.66C113.975 88.9819 113.541 88.7222 113.541 88.7222C113.541 88.7222 114.615 88.8966 114.905 90.7995C115.079 91.9367 115.15 93.0872 115.118 94.2371L114.343 94.7254L113.808 93.0086C113.808 93.0086 111.964 95.8842 111.402 96.8376C111.111 97.3336 109.642 97.791 108.301 98.1126C107.94 98.2031 107.557 98.1467 107.236 97.9557C106.916 97.7647 106.685 97.4546 106.592 97.0934C106.515 96.7897 106.542 96.4688 106.67 96.1826C106.856 95.7951 107.077 95.3067 107.348 94.737Z" fill="#FFD200"/>
<path d="M91.1716 94.5782L92.5706 92.4272C92.5706 92.4272 95.7873 94.0123 97.6476 90.6561C98.601 88.9315 98.1359 88.6292 98.1359 88.6292C98.1359 88.6292 99.2637 88.8811 99.4458 90.9197C99.5543 92.1367 99.5543 93.3611 99.4458 94.5782L98.6048 95.0432L98.1514 93.1985C98.1514 93.1985 96.0044 96.109 95.3339 97.0972C94.9928 97.6049 93.3961 97.9886 91.9583 98.2405C91.7646 98.2739 91.5663 98.2688 91.3746 98.2255C91.1829 98.1822 91.0016 98.1016 90.8411 97.9882C90.6806 97.8749 90.544 97.731 90.4391 97.5648C90.3342 97.3986 90.2631 97.2134 90.2298 97.0197V97.0197C90.1764 96.7128 90.2211 96.3968 90.3577 96.1167C90.5864 95.6672 90.8499 95.1634 91.1716 94.5782Z" fill="url(#paint11_linear)"/>
<path d="M107.348 94.737L108.549 92.621C108.549 92.621 111.65 93.9232 113.2 90.66C113.975 88.9819 113.541 88.7222 113.541 88.7222C113.541 88.7222 114.615 88.8966 114.905 90.7995C115.079 91.9367 115.15 93.0872 115.118 94.2371L114.343 94.7254L113.808 93.0086C113.808 93.0086 111.964 95.8842 111.402 96.8376C111.111 97.3336 109.642 97.791 108.301 98.1126C107.94 98.2031 107.557 98.1467 107.236 97.9557C106.916 97.7647 106.685 97.4546 106.592 97.0934C106.515 96.7897 106.542 96.4688 106.67 96.1826C106.856 95.7951 107.077 95.3067 107.348 94.737Z" fill="url(#paint12_linear)"/>
<path d="M117.657 26.028C117.657 26.028 123.831 44.4173 130.892 37.515C132.26 36.178 126.826 16.6531 126.54 16.1997C126.253 15.7462 126.927 12.7117 126.253 12.1498C125.74 11.743 125.174 11.4079 124.571 11.1537C124.571 11.1537 123.617 11.3088 123.652 11.956C123.687 12.6032 122.738 13.1806 122.544 13.638C122.35 14.0953 121.339 15.4982 121.501 16.0795C121.725 16.7377 122.026 17.3673 122.397 17.9553C122.544 18.1064 125.055 29.6361 125.055 29.6361C125.055 29.6361 122.672 20.7883 119.874 21.4975C117.076 22.2067 117.657 26.028 117.657 26.028Z" fill="url(#paint13_linear)"/>
</g>
<defs>
<linearGradient id="paint0_linear" x1="104.027" y1="174.073" x2="107.627" y2="310.91" gradientUnits="userSpaceOnUse">
<stop offset="0.01" stop-opacity="0"/>
<stop offset="0.91" stop-opacity="0.85"/>
<stop offset="0.93" stop-opacity="0.89"/>
<stop offset="0.98"/>
</linearGradient>
<linearGradient id="paint1_linear" x1="33.3178" y1="140.995" x2="241.189" y2="141.65" gradientUnits="userSpaceOnUse">
<stop offset="0.01" stop-opacity="0"/>
<stop offset="0.93" stop-opacity="0.89"/>
<stop offset="0.98"/>
</linearGradient>
<linearGradient id="paint2_linear" x1="35402.9" y1="120106" x2="38631.5" y2="25641.4" gradientUnits="userSpaceOnUse">
<stop offset="0.01" stop-opacity="0"/>
<stop offset="0.93" stop-opacity="0.89"/>
<stop offset="0.98"/>
</linearGradient>
<linearGradient id="paint3_linear" x1="106.751" y1="74.2859" x2="135.004" y2="74.2859" gradientUnits="userSpaceOnUse">
<stop stop-color="#183866"/>
<stop offset="1" stop-color="#1A7FC1"/>
</linearGradient>
<linearGradient id="paint4_linear" x1="10505.7" y1="6077.52" x2="10525.6" y2="8891.47" gradientUnits="userSpaceOnUse">
<stop offset="0.01" stop-opacity="0"/>
<stop offset="0.93" stop-opacity="0.89"/>
<stop offset="0.98"/>
</linearGradient>
<linearGradient id="paint5_linear" x1="86.6023" y1="27.1596" x2="112.871" y2="27.1596" gradientUnits="userSpaceOnUse">
<stop stop-color="#ECC4D7"/>
<stop offset="0.42" stop-color="#EFD4D1"/>
<stop offset="1" stop-color="#F2EAC9"/>
</linearGradient>
<linearGradient id="paint6_linear" x1="3633.96" y1="3641.29" x2="4440.88" y2="3766.27" gradientUnits="userSpaceOnUse">
<stop offset="0.01" stop-opacity="0"/>
<stop offset="0.93" stop-opacity="0.89"/>
<stop offset="0.98"/>
</linearGradient>
<linearGradient id="paint7_linear" x1="5438.44" y1="4228.03" x2="5863.76" y2="4228.03" gradientUnits="userSpaceOnUse">
<stop stop-color="#ECC4D7"/>
<stop offset="0.42" stop-color="#EFD4D1"/>
<stop offset="1" stop-color="#F2EAC9"/>
</linearGradient>
<linearGradient id="paint8_linear" x1="3895.62" y1="-7187.62" x2="4039.71" y2="-7086.94" gradientUnits="userSpaceOnUse">
<stop offset="0.01" stop-opacity="0"/>
<stop offset="0.93" stop-opacity="0.89"/>
<stop offset="0.98"/>
</linearGradient>
<linearGradient id="paint9_linear" x1="2306.63" y1="1941.12" x2="2397.56" y2="1941.12" gradientUnits="userSpaceOnUse">
<stop stop-color="#ECC4D7"/>
<stop offset="0.42" stop-color="#EFD4D1"/>
<stop offset="1" stop-color="#F2EAC9"/>
</linearGradient>
<linearGradient id="paint10_linear" x1="2317.67" y1="1945.69" x2="2391.06" y2="1945.69" gradientUnits="userSpaceOnUse">
<stop stop-color="#ECC4D7"/>
<stop offset="0.42" stop-color="#EFD4D1"/>
<stop offset="1" stop-color="#F2EAC9"/>
</linearGradient>
<linearGradient id="paint11_linear" x1="2368.51" y1="2411.93" x2="2475.29" y2="2507.43" gradientUnits="userSpaceOnUse">
<stop offset="0.01" stop-opacity="0"/>
<stop offset="0.93" stop-opacity="0.89"/>
<stop offset="0.98"/>
</linearGradient>
<linearGradient id="paint12_linear" x1="2534.43" y1="2338.86" x2="2637.41" y2="2444.67" gradientUnits="userSpaceOnUse">
<stop offset="0.01" stop-opacity="0"/>
<stop offset="0.93" stop-opacity="0.89"/>
<stop offset="0.98"/>
</linearGradient>
<linearGradient id="paint13_linear" x1="6038.01" y1="6508.86" x2="6508.67" y2="6508.86" gradientUnits="userSpaceOnUse">
<stop stop-color="#ECC4D7"/>
<stop offset="0.42" stop-color="#EFD4D1"/>
<stop offset="1" stop-color="#F2EAC9"/>
</linearGradient>
<clipPath id="clip0">
<rect width="200" height="231.473" fill="white"/>
</clipPath>
</defs>
</svg>
