<svg width="50" height="115" viewBox="0 0 50 115" fill="none" xmlns="http://www.w3.org/2000/svg">
<path d="M14.9268 100.16C15.2325 102.21 15.4363 104.457 14.3606 106.218C13.7209 107.248 12.7131 107.99 11.9771 108.953C11.2411 109.915 10.8448 111.319 11.5185 112.31C12.3734 113.516 14.2191 113.295 15.6118 112.808C17.5152 112.147 19.322 111.235 20.9846 110.096C21.3576 99.0768 21.0305 88.0448 20.0052 77.0668C18.5898 76.9762 13.551 76.0647 12.5263 77.0668C11.5015 78.0689 12.3564 83.2266 12.481 84.6136C12.9339 89.8562 14.1455 94.9799 14.9268 100.16Z" fill="#F7BC9F"/>
<path d="M12.2149 79.5579C12.2216 79.7161 12.2581 79.8717 12.3224 80.0165C12.426 80.1881 12.5698 80.3318 12.7414 80.4354C14.0605 81.3526 15.6571 81.7376 17.2197 82.0999C18.1368 82.315 19.1163 82.5302 19.9938 82.1905C20.1252 82.1499 20.2415 82.0711 20.3279 81.964C20.3994 81.8324 20.4327 81.6833 20.4241 81.5338C20.4539 80.5865 20.3932 79.6387 20.2429 78.703C20.2354 78.6168 20.2083 78.5336 20.1637 78.4595C20.0561 78.318 19.841 78.318 19.6598 78.3293C17.8085 78.4312 15.9911 77.8877 14.219 77.3555C13.7491 77.214 12.5206 76.5629 12.1809 77.0272C11.8412 77.4914 12.1526 79.003 12.2149 79.5579Z" fill="url(#paint0_linear)"/>
<path d="M34.4137 110.096C32.7524 111.233 30.9477 112.145 29.0466 112.808C27.6482 113.295 25.8082 113.516 24.9533 112.31C24.2513 111.319 24.6702 109.915 25.4062 108.953C26.1422 107.99 27.15 107.254 27.7897 106.218C28.8768 104.457 28.6729 102.21 28.3559 100.16C27.5746 94.9799 26.363 89.8562 25.8988 84.6249C25.8592 84.1267 25.7176 83.1529 25.5987 82.0546C25.471 81.0067 25.4199 79.9508 25.4459 78.8954C25.4062 78.2512 25.5814 77.612 25.9441 77.0781C26.7763 76.2515 30.2695 76.7044 32.302 76.9479C32.7492 77.0045 33.1229 77.0441 33.3833 77.0611H33.423C34.4523 88.0407 34.7832 99.0746 34.4137 110.096Z" fill="#F7BC9F"/>
<path d="M33.5533 79.5523C33.5565 79.7165 33.5216 79.8793 33.4514 80.0278C33.369 80.177 33.2573 80.308 33.123 80.4128C32.3262 81.0567 31.3798 81.489 30.3715 81.6697C28.8259 82.0603 27.2406 82.451 25.9385 82.1679C25.8281 82.1517 25.7221 82.1132 25.6271 82.0547C25.4994 81.0067 25.4483 79.9509 25.4742 78.8955C25.8875 78.4086 26.9689 78.4483 27.4048 78.369C29.1053 78.1292 30.7635 77.6508 32.3304 76.9479C32.4832 76.8743 32.6418 76.7951 32.7946 76.7102C32.9475 76.6252 33.1853 76.512 33.2928 76.6026C33.3414 76.6575 33.3694 76.7275 33.3721 76.8007C33.3721 76.8857 33.3721 76.9706 33.4117 77.0612C33.5344 77.8855 33.5818 78.7193 33.5533 79.5523Z" fill="url(#paint1_linear)"/>
<path d="M37.3125 36.2527L45.3066 52.7788C45.6979 53.7197 46.2496 54.5856 46.9371 55.3378C47.9109 56.2889 49.3376 56.7985 50 57.993C49.5175 58.1734 48.9953 58.2204 48.4884 58.1289C49.1638 59.6929 49.4903 61.3854 49.4452 63.0884C48.8788 62.7825 48.4097 62.3236 48.0914 61.7641C47.7731 61.2045 47.6183 60.5668 47.6448 59.9236C47.9115 61.0668 47.9328 62.2535 47.7071 63.4055C47.1515 62.6103 46.7519 61.717 46.5295 60.7729L46.4842 63.4508C46.4941 63.6005 46.4607 63.7498 46.3879 63.881C46.3355 63.9298 46.2734 63.9671 46.2058 63.9906C46.1381 64.0141 46.0663 64.0232 45.9949 64.0173C45.9235 64.0114 45.8541 63.9908 45.7911 63.9566C45.7282 63.9224 45.6731 63.8755 45.6293 63.8188C45.4656 63.5788 45.3698 63.2991 45.3519 63.0092C45.1188 61.6548 44.5805 60.3712 43.778 59.2556C43.7025 59.4891 43.5469 59.6885 43.3388 59.8186C43.1306 59.9487 42.8832 60.0011 42.6402 59.9666C42.3972 59.9321 42.1741 59.8128 42.0105 59.6299C41.8468 59.447 41.7529 59.2122 41.7455 58.9668C41.8054 58.5395 41.9235 58.1223 42.0965 57.727C42.2136 57.0464 42.1104 56.3463 41.8021 55.7284C40.9868 53.7299 39.6281 52.0145 38.5694 50.1405C38.1221 49.3535 37.7314 48.5383 37.3351 47.723L33.7684 40.3347C35.0082 39.0212 36.0726 37.5662 37.3125 36.2527Z" fill="#F7BC9F"/>
<path d="M8.82926 11.376C9.09211 12.2378 9.28151 13.1204 9.39541 14.0142C9.46901 15.5315 8.69905 16.9809 8.69905 18.4925C8.69905 19.4776 9.03307 20.4684 8.84624 21.4309C8.60801 22.2477 8.22444 23.0148 7.71394 23.6955C6.9167 24.9092 6.4181 26.2944 6.25892 27.7378C6.1074 29.1936 6.53671 30.6504 7.4535 31.7915C7.7479 32.1312 8.08193 32.4256 8.38199 32.7596C9.20661 33.8132 9.82335 35.014 10.1993 36.2981C10.3726 35.2014 10.8469 34.1744 11.5694 33.3314C12.3224 32.4595 13.3302 31.7858 13.834 30.7667C14.2311 29.8792 14.3477 28.8915 14.1681 27.936C14.0265 26.9735 13.7208 26.045 13.517 25.1052C13.1262 22.8763 13.0121 20.6078 13.1773 18.351C13.2396 16.3468 13.3019 14.3426 13.4944 12.3441C13.6721 11.2443 13.4383 10.1175 12.8376 9.17928C12.4696 8.61312 12.028 7.82617 11.3033 7.67331C9.20858 7.19208 8.47824 9.83602 8.82926 11.376Z" fill="#734A39"/>
<path d="M13.0754 6.9939C12.9622 6.9939 12.8489 6.9939 12.73 6.9939C12.2432 6.9939 11.8016 6.65421 11.3147 6.67119C11.0596 6.6974 10.8175 6.79611 10.6168 6.95564C10.4161 7.11517 10.2654 7.32885 10.1823 7.57138C10.0257 8.05501 9.96979 8.56562 10.0182 9.07169L11.2863 9.71145C11.3373 9.74863 11.3988 9.76847 11.4619 9.76806C11.5297 9.76118 11.5953 9.73995 11.6544 9.70579C11.7814 9.64417 11.9208 9.61215 12.062 9.61215C12.2032 9.61215 12.3426 9.64417 12.4696 9.70579C12.5206 9.70579 12.5772 9.7624 12.6281 9.73975C12.6791 9.71711 12.7131 9.62652 12.7187 9.54726L12.798 7.79218C12.7947 7.74098 12.8109 7.69044 12.8433 7.65064C12.8772 7.61101 12.9395 7.61101 12.9905 7.60535C13.1241 7.60494 13.2522 7.55208 13.3472 7.45815C13.5453 7.25433 13.2962 7.05618 13.0754 6.9939Z" fill="#F05A20"/>
<path d="M12.798 3.26297C13.4154 2.56999 14.1715 2.01448 15.0173 1.63245C16.3794 0.869376 17.8611 0.342931 19.3994 0.0755255C21.1627 -0.129993 22.9496 0.0853711 24.6136 0.703957C26.4423 1.33805 28.271 2.47602 28.9504 4.29337C29.3354 5.3351 29.3014 6.48439 29.5165 7.57141C29.6864 8.34704 29.9978 9.09436 30.0827 9.87565C30.3544 11.6817 29.5958 13.4764 28.6786 15.056C28.4291 15.5934 28.0172 16.0389 27.501 16.3298C27.0202 16.4922 26.5019 16.508 26.012 16.3751C24.6757 16.0957 23.4209 15.5148 22.3434 14.6766C20.6449 13.3518 19.3994 11.4043 17.4914 10.3739C16.4861 9.89093 15.4194 9.54804 14.321 9.35479C13.6302 9.19626 12.2658 9.13965 11.8638 8.46593C11.4619 7.7922 11.7053 6.63725 11.7619 5.99749C11.8284 5.00339 12.189 4.05152 12.798 3.26297Z" fill="#734A39"/>
<path d="M11.7563 11.6251C11.643 12.8649 11.292 14.0708 11.1278 15.3051C10.8461 17.175 11.1054 19.0865 11.8752 20.8137C12.2673 21.6717 12.8314 22.44 13.5326 23.0711C14.2338 23.7022 15.0571 24.1825 15.9515 24.4824C16.2572 24.573 16.6082 24.6692 16.7497 24.958C16.8271 25.1504 16.843 25.362 16.795 25.5638C16.6195 26.6961 16.1836 27.9359 16.6988 28.9607C17.1036 29.641 17.7443 30.1487 18.4991 30.3874C20.0972 30.9208 21.7825 31.1437 23.4643 31.0441C24.2182 31.0856 24.9728 30.9759 25.6836 30.7214C26.0368 30.5877 26.3455 30.3577 26.5747 30.0575C26.8038 29.7573 26.9443 29.3989 26.9801 29.023C26.891 28.3361 26.606 27.6895 26.1592 27.1603C25.4281 26.007 24.952 24.7107 24.7625 23.3584C24.5731 22.0061 24.6748 20.6289 25.0609 19.3191C26.0282 19.338 26.9725 19.0229 27.7346 18.4268C28.4967 17.8307 29.0301 16.9901 29.2447 16.0467C29.3749 15.4946 29.2962 14.9138 29.0239 14.4162C28.8818 14.1677 28.6584 13.9757 28.3914 13.8726C28.1243 13.7695 27.8299 13.7615 27.5576 13.85C27.2236 13.9916 26.9518 14.3256 26.5895 14.3143C26.0799 14.3143 25.8648 13.6689 25.8025 13.182C25.697 11.5985 25.4909 10.0233 25.1854 8.46591C24.7835 6.93163 23.9229 5.42 22.5075 4.70099C21.3412 4.13483 19.9711 4.13484 18.6633 4.07256C18.4768 4.08403 18.2913 4.03862 18.1311 3.94234C17.6499 3.58567 18.1651 2.77607 17.9443 2.24388C17.5254 3.31391 16.4214 3.94234 15.3457 4.34997C14.0095 4.83687 12.5149 4.91613 12.1752 6.46739C11.7846 8.14887 11.9204 9.88696 11.7563 11.6251Z" fill="#F7BC9F"/>
<path d="M13.2057 15.8712C13.2322 15.7878 13.2777 15.7117 13.3386 15.6488C13.3995 15.5859 13.4741 15.538 13.5567 15.5089C13.728 15.4618 13.9058 15.4427 14.0832 15.4523C14.3465 15.4467 14.6098 15.4637 14.8702 15.5032C15.3457 15.5881 15.7873 15.8259 16.2742 15.8825C16.4674 15.8832 16.6591 15.9176 16.8404 15.9844C16.9439 16.0475 17.0375 16.1257 17.1178 16.2166C17.331 16.4019 17.4846 16.6462 17.5594 16.9186C17.5732 17.1622 17.5203 17.4049 17.4065 17.6206C17.3027 17.884 17.1511 18.1258 16.9593 18.334C16.8635 18.4374 16.7454 18.5177 16.6139 18.5687C16.4825 18.6197 16.3411 18.6401 16.2006 18.6284C16.0075 18.5914 15.8242 18.5142 15.6628 18.4019L14.0492 17.4508C13.8616 17.3497 13.6884 17.224 13.534 17.0771C13.4567 17.0043 13.3948 16.9166 13.352 16.8193C13.3092 16.7221 13.2864 16.6172 13.2849 16.511" fill="white"/>
<path d="M39.1355 72.5772C37.9015 74.0157 36.5008 75.3023 34.963 76.4101C33.8508 77.2158 32.6595 77.9063 31.4075 78.4709C31.1018 78.6068 30.7904 78.7313 30.479 78.8502C27.7672 79.7766 24.9141 80.2212 22.049 80.1637C20.0304 80.2326 18.0121 80.0172 16.0534 79.5239C14.1564 78.9257 12.3302 78.1227 10.607 77.1291L5.75507 74.5588C6.95762 73.0476 7.97806 71.4 8.79533 69.6502C9.67853 67.5554 9.96161 65.2625 10.239 63.0036C10.5447 60.4672 11.3091 58.3554 11.326 55.7964C11.3589 51.385 11.0103 46.9791 10.2843 42.6277C10.2294 42.1712 10.1033 41.7261 9.91065 41.3086C9.73431 41.0061 9.52133 40.7266 9.27655 40.4763C8.23099 39.3441 7.09493 38.2989 5.87963 37.3511C5.10926 36.8251 4.40251 36.2114 3.77353 35.5225C3.64814 35.3959 3.57017 35.2299 3.55273 35.0526C3.5661 34.8851 3.62919 34.7254 3.73391 34.594C4.46991 33.4617 5.20025 32.2841 5.96456 31.1461C6.64542 29.9798 7.56118 28.9676 8.65379 28.1738C11.043 26.6565 14.2587 27.2906 16.8121 26.0734C17.2216 26.8931 17.83 27.5971 18.5816 28.1213C19.3332 28.6454 20.2041 28.973 21.1148 29.074C21.9728 29.1073 22.8241 28.9107 23.5806 28.5046C24.3371 28.0985 24.9713 27.4976 25.4176 26.7641C25.4994 26.5728 25.6351 26.4095 25.8083 26.2942C25.9629 26.2336 26.1302 26.2122 26.2951 26.2319C26.7594 26.2319 27.235 26.2715 27.7049 26.3055C29.296 26.336 30.8574 26.7414 32.2624 27.4887C32.5806 27.6817 32.8817 27.9014 33.1626 28.1455C35.5291 30.1723 36.4067 33.6542 38.258 36.2698C37.4823 37.1756 36.6727 38.0588 35.8405 38.9194C35.5631 39.2025 35.2743 39.4855 34.9969 39.763C34.4931 40.2725 33.9665 40.7764 33.4343 41.2689C33.4343 41.5294 33.474 41.7841 33.491 42.0446C33.8533 47.1399 33.842 52.2353 34.4138 57.3307C34.9969 62.6752 36.2821 68.0367 39.1355 72.5772Z" fill="#785EE2"/>
<path d="M18.618 45.9283C18.8253 46.3682 18.8557 46.8708 18.703 47.3324C18.5477 47.5927 18.3016 47.7865 18.0121 47.8763C17.7226 47.9662 17.4101 47.9459 17.1347 47.8193C16.8633 47.6791 16.6231 47.4854 16.4285 47.25C16.2339 47.0145 16.089 46.7421 16.0024 46.4492C15.302 47.7891 14.3727 48.9962 13.2565 50.016C12.5545 50.5821 11.694 51.069 11.3486 51.9069C11.5411 50.1632 10.6183 48.4477 10.7485 46.6983C10.7484 46.5572 10.7855 46.4186 10.8561 46.2963C10.9671 46.1526 11.1161 46.0428 11.2863 45.9793C11.8727 45.7015 12.4255 45.3577 12.9338 44.9546C13.5624 44.4081 14.1439 43.8096 14.6719 43.1655C15.0682 42.7069 15.708 41.7105 16.3704 41.7048C17.0328 41.6992 17.4178 42.939 17.6499 43.4825C18.0179 44.2695 18.335 45.0904 18.618 45.9283Z" fill="url(#paint2_linear)"/>
<path d="M37.069 36.5585C37.0576 36.7507 36.9796 36.9329 36.8482 37.0737C36.429 37.6475 36.0829 38.2713 35.8178 38.9307C35.6607 39.3262 35.5339 39.7331 35.4385 40.1479C35.275 40.0345 35.1199 39.9097 34.9742 39.7742C34.4504 39.2965 34.0261 38.72 33.7259 38.0778C33.4257 37.4355 33.2554 36.7403 33.2248 36.032C33.2342 35.6103 33.2153 35.1885 33.1682 34.7694C32.9102 33.808 32.2918 32.9828 31.4414 32.4652C30.7451 31.9726 29.9524 31.5367 29.5391 30.7667C29.2484 30.0821 29.0927 29.3477 29.0806 28.604C29.0381 27.9483 28.7723 27.327 28.3276 26.8433C28.1577 26.6621 27.818 26.5093 27.6708 26.2771C29.2619 26.3076 30.8234 26.713 32.2284 27.4604C32.5465 27.6533 32.8477 27.873 33.1286 28.1171L33.1739 28.2473C34.074 31.0045 35.0478 33.807 36.8369 36.0942C36.9618 36.2203 37.0431 36.383 37.069 36.5585Z" fill="url(#paint3_linear)"/>
<path d="M19.4277 24.3352C19.3476 25.343 19.1246 26.3343 18.7653 27.2792C18.6446 27.7084 18.4756 28.1225 18.2614 28.5134C17.947 28.9835 17.5655 29.405 17.1291 29.7646L15.6231 31.1914C15.4795 31.3062 15.3683 31.4564 15.3004 31.6273C15.258 31.7907 15.258 31.9621 15.3004 32.1255C15.7817 34.509 16.9026 36.7567 17.1178 39.1741C17.141 39.3032 17.1292 39.4361 17.0838 39.5591C17.0098 39.6811 16.9041 39.7809 16.7781 39.8479L14.7286 41.167C14.5774 41.2742 14.4089 41.3546 14.2304 41.4048C14.0631 41.4245 13.8936 41.4011 13.738 41.3367C13.5824 41.2722 13.4459 41.169 13.3415 41.0368C13.1368 40.7706 12.9779 40.4721 12.8716 40.1536C11.6997 37.1303 10.5221 33.9712 8.18953 31.7235C8.0027 31.548 7.79322 31.3102 7.87248 31.0668C7.9217 30.9572 8.00002 30.8632 8.09894 30.795C9.93894 29.2721 12.3678 28.5304 14.0153 26.781C14.7425 25.9459 15.366 25.0258 15.8722 24.0408C16.1553 23.5426 17.633 20.0098 17.8991 20.0777C18.3124 20.174 18.8389 21.68 18.9748 22.0423C19.2732 22.77 19.427 23.5488 19.4277 24.3352Z" fill="url(#paint4_linear)"/>
<path d="M19.5635 22.1725C20.8714 21.6828 22.0784 20.9575 23.1246 20.0325C22.9774 20.525 22.8189 21.0176 22.6434 21.5045C22.4735 22.0375 22.2376 22.5472 21.9414 23.0217C21.668 23.4169 21.3571 23.7848 21.0129 24.1201L19.054 26.1639C18.8215 26.4458 18.5243 26.6672 18.1878 26.8093C18.016 26.8717 17.8275 26.8699 17.6569 26.8044C17.4863 26.7388 17.3451 26.6139 17.2593 26.4526C17.2231 26.2904 17.2231 26.1223 17.2593 25.9601L17.4065 24.4032C17.3869 23.9044 17.4461 23.4058 17.582 22.9255C17.7235 22.6368 17.9217 22.6085 18.2161 22.5575C18.6804 22.4899 19.1336 22.3604 19.5635 22.1725Z" fill="url(#paint5_linear)"/>
<path d="M12.4923 30.7339C12.4087 30.4816 12.1364 30.3448 11.8841 30.4284C11.6318 30.512 11.4951 30.7843 11.5786 31.0366L16.5836 46.1437C16.6672 46.396 16.9395 46.5327 17.1918 46.4492C17.4441 46.3656 17.5808 46.0933 17.4972 45.841L12.4923 30.7339Z" fill="white"/>
<path d="M31.4301 6.70516C31.3169 6.70516 31.2037 6.70516 31.0848 6.70516C30.5979 6.70516 30.1563 6.36547 29.6694 6.38245C29.4142 6.40798 29.1717 6.50644 28.9709 6.66606C28.7701 6.82569 28.6195 7.03974 28.5371 7.28264C28.3804 7.76627 28.3245 8.27688 28.3729 8.78295L29.6411 9.42271C29.6932 9.4574 29.754 9.47699 29.8166 9.47932C29.8844 9.47244 29.9501 9.45121 30.0091 9.41704C30.1361 9.35543 30.2755 9.32342 30.4167 9.32342C30.5579 9.32342 30.6973 9.35543 30.8244 9.41704C30.8753 9.41704 30.9319 9.47366 30.9829 9.45102C31.0338 9.42837 31.0678 9.33778 31.0735 9.25852L31.1527 7.50344C31.1498 7.47799 31.1524 7.45221 31.1602 7.42781C31.168 7.40341 31.1809 7.38095 31.198 7.3619C31.2181 7.34463 31.2416 7.33169 31.2669 7.32389C31.2922 7.3161 31.3189 7.31362 31.3452 7.31661C31.4777 7.31082 31.6039 7.25873 31.7019 7.16941C31.9001 6.96559 31.6509 6.73913 31.4301 6.70516Z" fill="#F05A20"/>
<path d="M32.353 6.98262C32.0058 6.93115 31.6513 6.98192 31.3325 7.12871C31.0138 7.2755 30.7448 7.51197 30.5582 7.80921C29.8958 8.90755 30.5582 10.289 30.6828 11.5685C30.8753 13.8954 29.0749 16.177 29.7147 18.4246C29.9525 19.2568 30.5073 19.9702 30.7904 20.7911C31.4924 22.8746 30.3148 25.1901 30.7904 27.3302C31.2037 29.1079 32.704 30.4667 33.2135 32.2218C33.3989 33.1364 33.5331 34.0607 33.6155 34.9903C33.7694 36.0435 34.2302 37.0281 34.9403 37.821C35.3008 38.2145 35.746 38.5209 36.2423 38.717C36.7385 38.9132 37.2729 38.994 37.805 38.9533C38.5681 38.8245 39.2876 38.5095 39.8998 38.0362C40.4462 37.7341 40.8526 37.2301 41.0321 36.6321C40.5641 37.0862 39.9376 37.3402 39.2855 37.3402C38.6334 37.3402 38.0069 37.0862 37.5389 36.6321C38.3995 36.4736 39.3563 36.1056 39.628 35.2733C39.9451 34.3222 39.1864 33.388 38.8467 32.4426C38.224 30.7045 39.0053 28.655 38.2183 26.9792C37.6693 26.0042 36.8191 25.2335 35.7952 24.7825C35.7235 24.7579 35.6575 24.7192 35.6011 24.6686C35.5447 24.618 35.499 24.5567 35.4668 24.4881C35.4399 24.3268 35.4743 24.1612 35.563 24.0239C35.8471 23.3927 35.8735 22.6756 35.6366 22.0253C35.2516 20.978 34.2213 20.2306 33.9721 19.1379C33.7627 18.2208 34.159 17.2866 34.459 16.3921C34.8044 15.356 35.0252 14.1728 34.5043 13.2047C34.3124 12.9201 34.1582 12.6118 34.0457 12.2875C33.9382 11.7779 34.2099 11.2627 34.1873 10.7475C34.1477 9.92096 33.6211 9.25856 33.6211 8.41499C33.6198 8.06294 33.4903 7.72343 33.2569 7.45985C33.0236 7.19626 32.7022 7.02663 32.353 6.98262Z" fill="#734A39"/>
<path d="M4.44723 35.9697C5.87751 37.2324 7.42439 38.3565 9.06705 39.327C8.06539 40.8288 7.43118 42.5452 7.21573 44.3375L9.63321 41.9823C9.88386 41.7613 10.0996 41.5036 10.273 41.2179C10.4207 40.8878 10.5235 40.5393 10.5787 40.1819C10.9498 38.6133 11.8544 37.2224 13.1377 36.2471C13.6509 35.8087 14.2975 35.5572 14.972 35.5338C16.3648 35.579 17.2367 37.1246 17.3329 38.5174C17.3593 40.2785 16.7886 41.9967 15.7137 43.392C14.6445 44.7727 13.4443 46.0468 12.13 47.1965C10.0352 49.1667 8.0159 51.2162 6.0721 53.345C5.84414 53.6383 5.54634 53.87 5.20588 54.0187C4.94766 54.0875 4.67906 54.1086 4.41326 54.081C3.20525 54.1067 2.00593 53.8711 0.897452 53.3903C0.670853 53.2885 0.475437 53.1283 0.331298 52.926C0.235301 52.751 0.1756 52.5585 0.155783 52.3599C-0.523602 47.9722 1.14089 43.5958 2.79406 39.4742C3.26866 38.1628 3.8757 36.9032 4.60576 35.7149" fill="#F7BC9F"/>
<path d="M17.5933 109.57C16.62 109.84 15.5851 109.789 14.6436 109.422C13.9982 109.1 13.5113 108.522 12.8886 108.171C12.7617 108.085 12.6116 108.04 12.4583 108.041C12.304 108.062 12.1578 108.123 12.0337 108.217L10.5617 109.162C10.056 109.428 9.62565 109.818 9.31046 110.294C9.12353 110.721 9.03084 111.182 9.03871 111.647C8.93244 112.378 9.07396 113.124 9.44068 113.765C9.84927 114.25 10.4213 114.568 11.0486 114.659C12.389 114.839 13.7524 114.727 15.0456 114.331C16.478 113.997 17.95 113.601 19.0823 112.661C19.4318 112.322 19.8107 112.015 20.2146 111.744C20.4107 111.654 20.5999 111.55 20.7807 111.432C21.0092 111.201 21.1705 110.911 21.2473 110.595C21.3241 110.279 21.3135 109.948 21.2167 109.638C21.1657 109.394 21.0525 108.59 20.8204 108.46C20.5882 108.33 20.1693 108.669 19.9258 108.8C19.1962 109.183 18.408 109.444 17.5933 109.57Z" fill="#785EE2"/>
<path d="M31.0848 109.57C30.1134 109.84 29.0803 109.789 28.1408 109.422C27.4954 109.1 27.0085 108.522 26.38 108.171C26.2535 108.084 26.1032 108.039 25.9498 108.041C25.7958 108.063 25.6499 108.124 25.5251 108.217L24.0588 109.162C23.5511 109.427 23.1187 109.817 22.8019 110.294C22.6141 110.72 22.5232 111.182 22.5358 111.647C22.4296 112.378 22.5711 113.124 22.9378 113.765C23.3443 114.249 23.9144 114.568 24.54 114.659C25.8824 114.839 27.2475 114.727 28.5427 114.331C29.9695 113.997 31.4471 113.601 32.5738 112.661C32.9247 112.324 33.3034 112.017 33.7061 111.744C33.903 111.656 34.0923 111.551 34.2722 111.432C34.5007 111.201 34.662 110.911 34.7388 110.595C34.8156 110.279 34.805 109.948 34.7082 109.638C34.6572 109.394 34.544 108.59 34.3119 108.46C34.0797 108.33 33.6608 108.669 33.423 108.8C32.6914 109.184 31.9013 109.444 31.0848 109.57Z" fill="#785EE2"/>
<path d="M17.5933 109.57C16.62 109.84 15.5851 109.789 14.6436 109.422C13.9982 109.1 13.5113 108.522 12.8886 108.171C12.7617 108.085 12.6116 108.04 12.4583 108.041C12.304 108.062 12.1578 108.123 12.0337 108.217L10.5617 109.162C10.056 109.428 9.62565 109.818 9.31046 110.294C9.12353 110.721 9.03084 111.182 9.03871 111.647C8.93244 112.378 9.07396 113.124 9.44068 113.765C9.84927 114.25 10.4213 114.568 11.0486 114.659C12.389 114.839 13.7524 114.727 15.0456 114.331C16.478 113.997 17.95 113.601 19.0823 112.661C19.4318 112.322 19.8107 112.015 20.2146 111.744C20.4107 111.654 20.5999 111.55 20.7807 111.432C21.0092 111.201 21.1705 110.911 21.2473 110.595C21.3241 110.279 21.3135 109.948 21.2167 109.638C21.1657 109.394 21.0525 108.59 20.8204 108.46C20.5882 108.33 20.1693 108.669 19.9258 108.8C19.1962 109.183 18.408 109.444 17.5933 109.57Z" fill="#785EE2"/>
<path d="M31.0848 109.57C30.1134 109.84 29.0803 109.789 28.1408 109.422C27.4954 109.1 27.0085 108.522 26.38 108.171C26.2535 108.084 26.1032 108.039 25.9498 108.041C25.7958 108.063 25.6499 108.124 25.5251 108.217L24.0588 109.162C23.5511 109.427 23.1187 109.817 22.8019 110.294C22.6141 110.72 22.5232 111.182 22.5358 111.647C22.4296 112.378 22.5711 113.124 22.9378 113.765C23.3443 114.249 23.9144 114.568 24.54 114.659C25.8824 114.839 27.2475 114.727 28.5427 114.331C29.9695 113.997 31.4471 113.601 32.5738 112.661C32.9247 112.324 33.3034 112.017 33.7061 111.744C33.903 111.656 34.0923 111.551 34.2722 111.432C34.5007 111.201 34.662 110.911 34.7388 110.595C34.8156 110.279 34.805 109.948 34.7082 109.638C34.6572 109.394 34.544 108.59 34.3119 108.46C34.0797 108.33 33.6608 108.669 33.423 108.8C32.6914 109.184 31.9013 109.444 31.0848 109.57Z" fill="url(#paint6_linear)"/>
<path d="M17.5933 109.57C16.62 109.84 15.5851 109.789 14.6436 109.422C13.9982 109.1 13.5113 108.522 12.8886 108.171C12.7617 108.085 12.6116 108.04 12.4583 108.041C12.304 108.062 12.1578 108.123 12.0337 108.217L10.5617 109.162C10.056 109.428 9.62565 109.818 9.31046 110.294C9.12353 110.721 9.03084 111.182 9.03871 111.647C8.93244 112.378 9.07396 113.124 9.44068 113.765C9.84927 114.25 10.4213 114.568 11.0486 114.659C12.389 114.839 13.7524 114.727 15.0456 114.331C16.478 113.997 17.95 113.601 19.0823 112.661C19.4318 112.322 19.8107 112.015 20.2146 111.744C20.4107 111.654 20.5999 111.55 20.7807 111.432C21.0092 111.201 21.1705 110.911 21.2473 110.595C21.3241 110.279 21.3135 109.948 21.2167 109.638C21.1657 109.394 21.0525 108.59 20.8204 108.46C20.5882 108.33 20.1693 108.669 19.9258 108.8C19.1962 109.183 18.408 109.444 17.5933 109.57Z" fill="url(#paint7_linear)"/>
<path d="M25.5251 108.217L24.0588 109.162L25.5251 108.217Z" fill="#785EE2"/>
<path d="M10.4711 30.3874C14.7423 30.3874 18.2048 26.9249 18.2048 22.6537C18.2048 18.3825 14.7423 14.92 10.4711 14.92C6.19996 14.92 2.73749 18.3825 2.73749 22.6537C2.73749 26.9249 6.19996 30.3874 10.4711 30.3874Z" fill="#785EE2"/>
<path d="M10.4711 30.3874C14.7423 30.3874 18.2048 26.9249 18.2048 22.6537C18.2048 18.3825 14.7423 14.92 10.4711 14.92C6.19996 14.92 2.73749 18.3825 2.73749 22.6537C2.73749 26.9249 6.19996 30.3874 10.4711 30.3874Z" fill="url(#paint8_linear)"/>
<path d="M9.35577 31.0668C13.627 31.0668 17.0894 27.6043 17.0894 23.3331C17.0894 19.0619 13.627 15.5994 9.35577 15.5994C5.08458 15.5994 1.6221 19.0619 1.6221 23.3331C1.6221 27.6043 5.08458 31.0668 9.35577 31.0668Z" fill="#785EE2"/>
<path d="M9.35577 31.0668C13.627 31.0668 17.0894 27.6043 17.0894 23.3331C17.0894 19.0619 13.627 15.5994 9.35577 15.5994C5.08458 15.5994 1.6221 19.0619 1.6221 23.3331C1.6221 27.6043 5.08458 31.0668 9.35577 31.0668Z" fill="url(#paint9_linear)"/>
<path d="M7.61766 30.863C8.93113 30.6365 9.47464 30.9423 10.6805 30.3591C11.0813 30.1763 11.461 29.9504 11.8129 29.6854C12.2341 29.3353 12.614 28.9383 12.9452 28.5021L14.8418 26.2035C15.1024 25.9075 15.3284 25.5827 15.5155 25.2354C15.7309 24.7509 15.839 24.2256 15.8325 23.6955C15.8733 22.1294 15.4196 20.5902 14.5361 19.2965C14.2971 18.9286 13.9941 18.6064 13.6415 18.3453C13.3099 18.1375 12.9544 17.9702 12.5828 17.8471L9.59919 16.7148C9.09104 16.455 8.50695 16.3848 7.95169 16.5167C7.63271 16.6706 7.34334 16.8795 7.0968 17.1338C6.17478 17.8135 5.21036 18.4338 4.20941 18.9908C4.08408 19.0608 3.97731 19.1598 3.89802 19.2795C3.83023 19.46 3.80693 19.6542 3.83009 19.8456C3.83009 20.6043 3.41113 21.3007 3.23563 22.0423C3.04169 23.1918 3.18933 24.3729 3.66024 25.4392C3.87223 26.0823 4.20037 26.681 4.62837 27.2056C5.19759 27.7897 5.86677 28.2671 6.60424 28.6154C7.04567 28.9168 7.57011 29.0732 8.10455 29.0626C8.50534 28.9668 8.88781 28.8061 9.23686 28.5871C9.98418 28.2134 10.8391 28.0775 11.5581 27.6472C12.2538 27.161 12.8481 26.5437 13.3075 25.8299C13.3992 25.7138 13.4753 25.5863 13.534 25.4506C13.5872 25.2668 13.6083 25.0753 13.5962 24.8844C13.6832 23.804 13.668 22.7179 13.5509 21.6404C13.4853 21.1005 13.285 20.5858 12.9684 20.1435C12.6518 19.7013 12.2292 19.3458 11.7393 19.1096C11.2053 18.9635 10.6598 18.8631 10.1087 18.8096C9.31045 18.6511 8.51218 18.2434 7.72523 18.4642C7.18344 18.6529 6.69973 18.9786 6.32116 19.4097C6.01668 19.6659 5.7681 19.9819 5.59083 20.3382C5.38701 20.8421 5.4776 21.4365 5.24547 21.9291C5.18202 22.0263 5.14137 22.1366 5.12658 22.2518C5.12962 22.3589 5.163 22.463 5.22283 22.5519C5.47054 23.0455 5.66052 23.566 5.78898 24.1031C5.83811 24.4042 5.94583 24.6927 6.10603 24.9524C6.30935 25.1774 6.56097 25.3535 6.84203 25.4675L7.6403 25.8582C7.73655 25.9165 7.84514 25.9514 7.95734 25.9601C8.06519 25.958 8.17135 25.9329 8.26873 25.8865L9.72941 25.3204C9.93253 25.2581 10.1239 25.1624 10.2956 25.0373C10.4844 24.8382 10.6318 24.6035 10.729 24.3469C10.8262 24.0903 10.8713 23.8169 10.8617 23.5426C10.8979 23.3248 10.8724 23.1013 10.7881 22.8972C10.7231 22.7868 10.6409 22.6874 10.5447 22.6028L9.49162 21.5894C9.41612 21.4896 9.30473 21.4232 9.18108 21.4042C9.05742 21.3852 8.93122 21.415 8.82923 21.4875C8.61265 21.5554 8.41189 21.6661 8.2388 21.8129C8.06571 21.9597 7.9238 22.1398 7.82147 22.3424C7.77745 22.4374 7.75356 22.5404 7.7513 22.6451C7.74904 22.7497 7.76846 22.8537 7.80834 22.9505C7.84822 23.0473 7.9077 23.1347 7.98304 23.2074C8.05837 23.2801 8.14794 23.3364 8.24609 23.3728C8.17523 23.121 8.17523 22.8546 8.24609 22.6028C8.2768 22.4722 8.34816 22.3547 8.44989 22.2672C8.55163 22.1797 8.6785 22.1267 8.81224 22.1159C9.00269 22.1402 9.1808 22.2234 9.32178 22.3537C9.88793 22.7953 10.4145 23.486 10.1937 24.1428C10.0596 24.4149 9.85376 24.6452 9.59831 24.8089C9.34287 24.9725 9.04756 25.0632 8.7443 25.0712C8.40171 25.146 8.04582 25.1333 7.70942 25.0344C7.37302 24.9354 7.06694 24.7534 6.81938 24.5051C6.6562 24.2768 6.53363 24.0221 6.45704 23.7521C6.24096 23.1813 6.12045 22.5787 6.10036 21.9687C6.09155 21.6637 6.14642 21.3601 6.26144 21.0774C6.37646 20.7947 6.54913 20.5391 6.76843 20.3269C7.37987 19.7607 8.28005 19.7607 9.10098 19.7607C9.55718 19.7504 10.0135 19.777 10.4654 19.84C11.1051 19.9239 11.7007 20.2118 12.1639 20.6609C12.6906 21.298 12.9789 22.0988 12.9791 22.9255C13.031 23.8619 12.9219 24.8002 12.6564 25.6997C12.627 25.8177 12.5792 25.9304 12.5149 26.0337C12.418 26.1506 12.2987 26.2469 12.1639 26.3168C11.0769 26.9811 9.97097 27.6057 8.84621 28.1907C8.60983 28.3288 8.35118 28.4246 8.0819 28.4738C7.7471 28.4986 7.41159 28.4362 7.10811 28.2927C6.37168 27.9875 5.71061 27.5255 5.17089 26.9389C4.63118 26.3522 4.22579 25.655 3.98295 24.8957C3.8591 24.4863 3.76636 24.068 3.70553 23.6445C3.65863 23.4596 3.649 23.2671 3.67723 23.0784C3.71572 22.9142 3.77669 22.756 3.8584 22.6085C4.18423 21.9346 4.37648 21.204 4.42455 20.4571C4.41992 20.3175 4.445 20.1786 4.49815 20.0495C4.58522 19.9098 4.70847 19.7963 4.85483 19.7211C6.15698 18.8832 7.42516 17.983 8.64239 17.0205C9.59353 17.7735 10.941 17.7282 12.0393 18.1981C12.4381 18.3825 12.8174 18.6063 13.1716 18.8662C13.8848 19.3135 14.4592 19.9506 14.8304 20.7062C15.1138 21.6244 15.147 22.6016 14.9267 23.537C14.8812 23.8872 14.8093 24.2336 14.7116 24.573C14.5813 24.9693 14.3775 25.3317 14.2133 25.7053C14.0502 26.2212 13.7845 26.6988 13.4321 27.1094C13.098 27.4151 12.6508 27.551 12.2997 27.8284C11.9487 28.1058 11.609 28.6663 11.2071 29.0343C10.7502 29.3814 10.2718 29.6991 9.7747 29.9855C9.29913 30.3308 9.7747 30.1496 9.30479 30.478C8.78676 30.7544 8.20429 30.8873 7.61766 30.863Z" fill="#785EE2"/>
<path d="M39.1355 72.5772C37.9014 74.0156 36.5007 75.3023 34.9629 76.41C33.8507 77.2158 32.6594 77.9063 31.4075 78.4708C31.52 77.4067 31.8372 76.3743 32.3416 75.4306C32.629 74.9924 32.8485 74.5133 32.9927 74.0096C33.0633 73.5096 33.0403 73.0008 32.9248 72.5092L31.6 64.8718C31.4377 63.8171 31.2185 62.772 30.9432 61.741C30.7963 61.3745 30.6826 60.9955 30.6035 60.6087C30.602 60.0085 30.657 59.4095 30.7677 58.8196C30.8601 58.0401 30.8847 57.2539 30.8413 56.4701C30.6413 55.1684 30.3113 53.89 29.8562 52.6542C29.4001 51.4108 29.3136 50.0619 29.6071 48.7704C29.7853 48.3168 29.9384 47.8538 30.0657 47.3833C30.2469 46.4378 29.8845 45.4641 29.9241 44.5016C29.9241 44.0487 30.0487 43.6071 30.0996 43.1598C30.3204 41.3595 29.7316 39.5761 29.5335 37.7757C29.6014 38.3418 30.6658 39.2873 31.0338 39.7063C31.5782 40.4137 32.1743 41.0798 32.8172 41.6991C33.0624 41.851 33.262 42.0665 33.3945 42.3227C33.5271 42.5789 33.5878 42.8662 33.5702 43.1542C33.6268 44.111 33.6777 45.0678 33.7174 46.0246C33.8929 49.8065 33.9948 53.594 34.4194 57.3476C34.9969 62.6752 36.282 68.0366 39.1355 72.5772Z" fill="url(#paint10_linear)"/>
<defs>
<linearGradient id="paint0_linear" x1="1538.67" y1="1096.81" x2="1537.66" y2="1204.56" gradientUnits="userSpaceOnUse">
<stop offset="0.01"/>
<stop offset="0.13" stop-opacity="0.69"/>
<stop offset="1" stop-opacity="0"/>
</linearGradient>
<linearGradient id="paint1_linear" x1="1684.99" y1="1124.3" x2="1683.79" y2="1243.35" gradientUnits="userSpaceOnUse">
<stop offset="0.01"/>
<stop offset="0.13" stop-opacity="0.69"/>
<stop offset="1" stop-opacity="0"/>
</linearGradient>
<linearGradient id="paint2_linear" x1="1395.17" y1="1481.84" x2="1510.15" y2="1481.84" gradientUnits="userSpaceOnUse">
<stop offset="0.01"/>
<stop offset="0.13" stop-opacity="0.69"/>
<stop offset="1" stop-opacity="0"/>
</linearGradient>
<linearGradient id="paint3_linear" x1="2133.8" y1="1516.97" x2="1911.05" y2="1611.47" gradientUnits="userSpaceOnUse">
<stop offset="0.01"/>
<stop offset="0.13" stop-opacity="0.69"/>
<stop offset="1" stop-opacity="0"/>
</linearGradient>
<linearGradient id="paint4_linear" x1="1936.75" y1="2427.5" x2="2172.48" y2="2427.5" gradientUnits="userSpaceOnUse">
<stop offset="0.01"/>
<stop offset="0.13" stop-opacity="0.69"/>
<stop offset="1" stop-opacity="0"/>
</linearGradient>
<linearGradient id="paint5_linear" x1="1103.27" y1="554.633" x2="1147.21" y2="751.996" gradientUnits="userSpaceOnUse">
<stop offset="0.01"/>
<stop offset="0.13" stop-opacity="0.69"/>
<stop offset="1" stop-opacity="0"/>
</linearGradient>
<linearGradient id="paint6_linear" x1="2388.07" y1="1819.03" x2="2653.25" y2="1819.03" gradientUnits="userSpaceOnUse">
<stop offset="0.01"/>
<stop offset="0.13" stop-opacity="0.69"/>
<stop offset="1" stop-opacity="0"/>
</linearGradient>
<linearGradient id="paint7_linear" x1="2082.7" y1="1819.06" x2="2348" y2="1819.06" gradientUnits="userSpaceOnUse">
<stop offset="0.01"/>
<stop offset="0.13" stop-opacity="0.69"/>
<stop offset="1" stop-opacity="0"/>
</linearGradient>
<linearGradient id="paint8_linear" x1="1701.05" y1="1252.31" x2="2123.46" y2="1252.31" gradientUnits="userSpaceOnUse">
<stop offset="0.01"/>
<stop offset="0.13" stop-opacity="0.69"/>
<stop offset="1" stop-opacity="0"/>
</linearGradient>
<linearGradient id="paint9_linear" x1="1.6221" y1="23.3331" x2="17.0838" y2="23.3331" gradientUnits="userSpaceOnUse">
<stop offset="0.01" stop-color="white"/>
<stop offset="0.13" stop-color="white" stop-opacity="0.69"/>
<stop offset="1" stop-color="white" stop-opacity="0"/>
</linearGradient>
<linearGradient id="paint10_linear" x1="2597.63" y1="5427.85" x2="1812.55" y2="5520.2" gradientUnits="userSpaceOnUse">
<stop offset="0.01"/>
<stop offset="0.13" stop-opacity="0.69"/>
<stop offset="1" stop-opacity="0"/>
</linearGradient>
</defs>
</svg>
