<svg width="41" height="35" viewBox="0 0 41 35" fill="none" xmlns="http://www.w3.org/2000/svg">
<path d="M9.73955 13.8067L13.1694 9.39029C13.5314 8.92409 14.1226 8.69753 14.7034 8.802C15.2844 8.90656 15.7594 9.32516 15.9361 9.88829L18.9726 19.5637L23.5187 12.7395C23.8315 12.27 24.3698 12.0025 24.9333 12.0353C25.4965 12.0689 25.9994 12.399 26.2544 12.9023L27.9159 16.1834L28.9577 14.6514C29.2531 14.217 29.7443 13.957 30.2696 13.957H39.4981C39.7511 12.94 39.869 11.8392 39.8043 10.6218C39.5169 5.23901 35.1263 0.793274 29.7496 0.793274C24.2219 0.793274 20.3069 6.70646 20.3069 6.70646C20.3069 6.70646 16.1565 0.793274 10.8665 0.793274C5.48936 0.793274 1.0986 5.23909 0.811279 10.6218C0.749325 11.7804 0.852607 12.8321 1.08043 13.8067H9.73955V13.8067Z" fill="#A3D8F4"/>
<path d="M2.33936 16.9797C2.54695 17.3516 2.76986 17.7153 3.0045 18.0731C5.77591 22.2976 20.2893 34.2067 20.2893 34.2067C20.2893 34.2067 34.8576 22.2609 37.6106 18.0731C37.8138 17.7641 38.0082 17.4502 38.1916 17.13H31.1095L29.0276 20.1915C28.712 20.656 28.1753 20.9185 27.614 20.8827C27.0537 20.8467 26.5541 20.5171 26.3003 20.0162L24.6521 16.7614L19.7733 24.0851C19.4766 24.5306 18.9787 24.7921 18.4532 24.7922C18.3788 24.7922 18.3037 24.7869 18.2287 24.7762C17.6238 24.6898 17.1222 24.2637 16.9392 23.6807L13.8164 13.7303L11.7693 16.3663C11.4687 16.7532 11.0063 16.9796 10.5163 16.9796" fill="#B9FFFC"/>
<path d="M5.39343 17.7363C5.05772 17.7363 4.75009 17.5152 4.6422 17.1977C4.53384 16.8789 4.64434 16.5189 4.91064 16.3136C5.16298 16.1191 5.51496 16.0988 5.79046 16.2569C6.07231 16.4187 6.23009 16.7514 6.17559 17.0721C6.1115 17.4496 5.77777 17.7363 5.39343 17.7363Z" fill="#393E46"/>
<path d="M8.01123 17.7363C7.67551 17.7363 7.36788 17.5152 7.26 17.1977C7.15164 16.8789 7.26214 16.5189 7.52844 16.3136C7.78078 16.1191 8.13276 16.0988 8.40826 16.2569C8.69011 16.4187 8.84789 16.7514 8.79339 17.0721C8.72929 17.4496 8.39557 17.7363 8.01123 17.7363Z" fill="#393E46"/>
<path d="M20.2894 35C20.1109 35 19.9325 34.9399 19.7861 34.8199C19.1898 34.3306 5.14681 22.7849 2.3413 18.5082C2.08278 18.1141 1.85567 17.7405 1.64672 17.3663C1.43326 16.9838 1.57025 16.5005 1.95284 16.287C2.33527 16.0737 2.8186 16.2107 3.03207 16.5932C3.22237 16.9342 3.43036 17.276 3.66786 17.6382C6.05501 21.277 17.7138 31.0412 20.2896 33.1778C22.805 31.093 33.9887 21.7362 36.7499 17.9233H31.5295L29.6837 20.6376C29.2126 21.3306 28.399 21.7283 27.5635 21.6743C26.7266 21.6205 25.9717 21.1225 25.5928 20.3746L24.5587 18.3325L20.4335 24.5249C19.9914 25.1888 19.2512 25.5853 18.4534 25.5855C18.3414 25.5855 18.2283 25.5774 18.117 25.5616C17.2146 25.4327 16.4553 24.7877 16.1825 23.9182L13.5135 15.4139L12.396 16.853C11.9417 17.4377 11.2567 17.7731 10.5165 17.7731C10.0784 17.7731 9.7232 17.4178 9.7232 16.9798C9.7232 16.5417 10.0784 16.1865 10.5165 16.1865C10.7632 16.1865 10.9915 16.0748 11.143 15.8798L13.19 13.2439C13.371 13.0108 13.6662 12.8975 13.9571 12.9497C14.2475 13.002 14.485 13.2113 14.5734 13.493L17.6962 23.4433C17.7871 23.733 18.0403 23.9481 18.341 23.991C18.3782 23.9962 18.416 23.999 18.4534 23.999C18.7191 23.9989 18.9658 23.8669 19.1131 23.6455L23.9921 16.3217C24.1485 16.0869 24.4177 15.9532 24.6993 15.9697C24.981 15.9864 25.2325 16.1515 25.3599 16.4032L27.0081 19.658C27.1344 19.9073 27.3861 20.0733 27.6649 20.0912C27.944 20.1093 28.2148 19.9767 28.3717 19.7457L30.4536 16.6841C30.6013 16.467 30.8469 16.3369 31.1096 16.3369H38.1917C38.4746 16.3369 38.7361 16.4876 38.878 16.7324C39.0199 16.9772 39.0207 17.279 38.8799 17.5244C38.6969 17.844 38.4928 18.1752 38.2735 18.509C35.4861 22.7491 21.391 34.3293 20.7923 34.8202C20.6462 34.94 20.4677 35 20.2894 35Z" fill="#393E46"/>
<path d="M18.9729 20.357C18.9357 20.357 18.8983 20.3544 18.8607 20.349C18.5582 20.3059 18.3074 20.0929 18.2159 19.8013L15.1794 10.1259C15.0907 9.84338 14.8545 9.63523 14.563 9.58279C14.2717 9.5302 13.9777 9.64308 13.7959 9.87693L10.3662 14.2934C10.2159 14.4869 9.98466 14.6001 9.7397 14.6001H1.08042C0.71187 14.6001 0.39187 14.3463 0.308023 13.9874C0.0500553 12.884 -0.0444217 11.7693 0.0191182 10.5797C0.169599 7.76052 1.3606 5.11302 3.37262 3.1248C5.41184 1.10977 8.07322 0 10.8664 0C15.2839 0 18.8635 3.68111 20.2923 5.39733C21.674 3.66993 25.1516 0 29.7496 0C32.5427 0 35.2039 1.10969 37.2431 3.1248C39.2551 5.11294 40.446 7.76044 40.5964 10.5797C40.6628 11.8263 40.5554 12.9936 40.268 14.1485C40.1801 14.5021 39.8626 14.7503 39.4982 14.7503H30.2698C30.0069 14.7503 29.7617 14.8802 29.6138 15.0975L28.572 16.6295C28.4142 16.8616 28.1461 16.9929 27.8652 16.9751C27.585 16.957 27.3352 16.7922 27.2084 16.5418L25.5469 13.2607C25.4199 13.0101 25.1667 12.844 24.8862 12.8272C24.6061 12.8102 24.3345 12.9458 24.179 13.1793L19.6329 20.0034C19.4846 20.2262 19.2356 20.357 18.9729 20.357ZM14.4193 7.98327C14.5601 7.98327 14.7021 7.99572 14.844 8.02134C15.7186 8.17873 16.4269 8.8031 16.6931 9.65078L19.2327 17.7427L22.8587 12.2998C23.3254 11.5992 24.1377 11.1952 24.9796 11.2435C25.822 11.2937 26.5813 11.7919 26.9622 12.5439L28.0163 14.6255L28.3019 14.2055C28.7455 13.5532 29.4811 13.1639 30.2698 13.1639H38.859C39.0084 12.3572 39.0586 11.534 39.0123 10.6642C38.7452 5.65886 34.5899 1.5866 29.7497 1.5866C24.7065 1.5866 21.0052 7.08887 20.9684 7.1444C20.8237 7.3631 20.58 7.49613 20.3178 7.4997C20.3142 7.49978 20.3106 7.49978 20.307 7.49978C20.0487 7.49978 19.8064 7.37397 19.6578 7.16225C19.6189 7.10704 15.6746 1.5866 10.8666 1.5866C6.02622 1.5866 1.87074 5.65886 1.60349 10.6643C1.55986 11.4811 1.60119 12.2552 1.72962 13.0136H9.35148L12.5431 8.90376C12.9994 8.31604 13.6924 7.98327 14.4193 7.98327Z" fill="#393E46"/>
</svg>
