<svg width="100" height="147" viewBox="0 0 100 147" fill="none" xmlns="http://www.w3.org/2000/svg">
<path fill-rule="evenodd" clip-rule="evenodd" d="M60.5623 15.9882C62.7835 14.5389 64.5766 12.5249 65.11 9.8901C66.6468 2.29862 55.2396 1.13387 52.0559 4.34871C48.8721 7.56354 46.4512 17.1664 49.015 18.5433C50.0375 19.0924 52.5598 19.0347 55.3205 18.2853L51.0202 27.9136L59.8401 30.1723L60.5623 15.9882Z" fill="#B28B67"/>
<path fill-rule="evenodd" clip-rule="evenodd" d="M57.5009 8.82313C55.9143 13.1918 54.3967 15.1906 52.9482 14.8196C50.7753 14.2632 49.298 12.4843 48.3446 12.2401C47.6496 12.0621 47.5738 12.9258 47.8632 13.6546C48.102 14.256 49.8168 15.2158 49.5978 15.9971C49.3787 16.7785 48.0857 15.7995 47.9558 16.2629C47.7409 17.0294 47.0799 18.4048 48.4843 18.7645C49.9056 19.1285 54.1182 19.6814 55.3768 17.862C56.1891 16.6878 57.2297 14.09 58.4987 10.0687C58.5876 10.0811 58.6768 10.0985 58.7658 10.1213C59.9835 10.4332 60.7086 11.6212 60.3851 12.7748C60.221 13.3604 59.8181 13.8246 59.302 14.0989C59.6209 14.9118 59.9929 15.7709 60.442 16.674C63.2956 15.9054 66.2703 12.2779 64.9668 7.72748C64.8419 5.62987 63.6247 4.2148 61.9803 3.28136C60.6997 2.34156 59.2222 1.8942 57.8639 1.91313C55.3328 1.48045 52.9227 1.62937 52.1774 1.89351C51.5552 4.11292 51.8245 4.88768 55.7183 5.82264C56.5374 6.54329 57.0397 7.55167 57.5009 8.82313Z" fill="#191847"/>
<path fill-rule="evenodd" clip-rule="evenodd" d="M55.5463 59.5257L36.8727 104.524L24.3483 142.566H19.4027L38.5498 59.5257L55.5463 59.5257Z" fill="#997659"/>
<path fill-rule="evenodd" clip-rule="evenodd" d="M59.3065 59.5257C59.5054 75.3384 62.4053 96.6276 62.8686 97.6133C63.1775 98.2704 73.8403 106.627 94.8569 122.683L91.4506 126.153C66.6529 112.387 53.6802 104.586 52.5327 102.75C50.8115 99.9963 45.2076 74.6534 40.7084 59.5257H59.3065Z" fill="#B28B67"/>
<path fill-rule="evenodd" clip-rule="evenodd" d="M95.335 121.517C96.479 121.904 97.2671 122.27 97.6992 122.617C98.2248 123.038 98.9182 123.737 99.7796 124.713C99.268 125.296 94.6702 130.533 85.9863 140.424C84.2156 139.7 83.6602 138.853 84.3198 137.883C84.9795 136.913 85.5193 136.1 85.9394 135.446L88.9443 125.412C89.0021 125.219 89.2127 125.107 89.4148 125.162C89.4182 125.163 89.4217 125.164 89.4251 125.165L91.0285 125.651C92.1409 125.156 92.9206 124.653 93.3676 124.144C93.7308 123.731 94.0575 123.019 94.3478 122.01L94.3478 122.01C94.4592 121.623 94.878 121.395 95.2832 121.502C95.3007 121.506 95.318 121.511 95.335 121.517Z" fill="#E4E4E4"/>
<path fill-rule="evenodd" clip-rule="evenodd" d="M26.3734 140.846C26.799 141.932 27.0118 142.744 27.0118 143.283C27.0118 143.939 26.8975 144.896 26.669 146.154C25.8731 146.154 18.7202 146.154 5.21037 146.154C4.65274 144.392 4.97464 143.441 6.17607 143.3C7.37749 143.16 8.37554 143.033 9.17021 142.92L19.1439 138.67C19.3359 138.588 19.5608 138.671 19.6464 138.854C19.6478 138.857 19.6492 138.86 19.6506 138.863L20.2917 140.35C21.4039 140.846 22.3077 141.094 23.0031 141.094C23.568 141.094 24.3482 140.876 25.3437 140.44L25.3437 140.44C25.7257 140.272 26.1774 140.433 26.3525 140.798C26.3601 140.813 26.367 140.829 26.3734 140.846Z" fill="#E4E4E4"/>
<path fill-rule="evenodd" clip-rule="evenodd" d="M42.9911 138.648L19.4771 136.218L36.9038 59.5257H57.9644L42.9911 138.648Z" fill="#69A1AC"/>
<path fill-rule="evenodd" clip-rule="evenodd" d="M89.993 117.084L74.5692 134.465C58.3236 117.572 48.8524 106.55 46.1556 101.398C43.4587 96.2453 41.0344 82.288 38.8826 59.5257H62.5931C63.7685 79.551 64.5608 90.0295 64.97 90.9614C65.3792 91.8933 73.7202 100.601 89.993 117.084Z" fill="#89C5CC"/>
<path fill-rule="evenodd" clip-rule="evenodd" d="M26.4223 51.1822L12.9308 57.5149C9.53577 57.8004 6.63664 58.379 4.23337 59.2506C3.63749 59.6092 2.85026 60.4062 5.0096 60.6095C7.16895 60.8127 9.4308 61.1189 9.59728 61.8596C9.76375 62.6002 8.32195 63.2095 8.74417 64.2422C9.02565 64.9306 11.1849 63.6872 15.222 60.5119L27.9184 57.8389L26.4223 51.1822ZM72.2573 59.2037L64.4221 57.9135C66.5183 73.5711 67.6753 81.8865 67.8931 82.8597C68.383 85.0493 65.9742 87.8522 64.8811 89.3924C67.2358 90.9105 67.7065 86.8373 70.6669 88.8068C73.369 90.6045 75.1719 93.3406 78.9393 91.9186C79.4025 91.7438 80.0308 90.8975 79.0574 89.9894C76.6323 87.7271 73.24 83.9111 72.8943 82.785C72.4229 81.2493 72.2106 73.3889 72.2573 59.2037Z" fill="#B28B67"/>
<path fill-rule="evenodd" clip-rule="evenodd" d="M55.7711 24.2066L52.6287 23.132C38.7859 30.9821 30.3484 49.1232 13.7596 56.6907L16.5348 61.4694C42.6522 62.7676 53.2571 40.6926 55.7711 24.2066Z" fill="#E87613"/>
<path fill-rule="evenodd" clip-rule="evenodd" d="M62.7506 65.3099C49.7598 63.1206 40.2041 61.5102 34.0834 60.4787C32.7734 60.2579 33.3522 58.5005 33.709 57.6247C37.8272 47.5164 48.4419 37.6609 51.1932 22.7477L59.6897 22.9081C64.5991 34.5223 64.5881 47.8013 62.7506 65.3099Z" fill="#DDE3E9"/>
<path fill-rule="evenodd" clip-rule="evenodd" d="M68.1174 34.9316C69.379 34.8057 70.4713 34.2002 71.3944 33.1152C75.3735 28.438 74.8089 25.3984 71.7521 23.9154C68.6954 22.4324 65.4583 23.8805 60.3122 23.0132C60.0323 22.9661 59.7728 22.9395 59.5339 22.9337L56.9193 22.6379C45.0758 45.3254 40.0809 60.9521 41.9345 69.5178L64.4978 73.3204C65.2877 76.5104 66.1068 79.2204 66.9551 81.4503L73.1032 82.4865C76.9644 64.7908 75.3025 48.9392 68.1174 34.9316Z" fill="#FF9B21"/>
<path fill-rule="evenodd" clip-rule="evenodd" d="M61.8527 60.1977C60.1013 65.7249 58.1919 69.6287 56.1244 71.9092L64.4978 73.3204C63.5764 69.5993 62.6947 65.2251 61.8527 60.1977Z" fill="black" fill-opacity="0.1"/>
</svg>
