<svg width="35" height="26" viewBox="0 0 35 26" fill="none" xmlns="http://www.w3.org/2000/svg">
<path d="M33.9697 1.97828C31.8484 1.08852 29.7254 0.75 27.6035 0.75C20.8677 0.749453 14.1323 4.15922 7.39648 4.15922C5.70719 4.15922 4.01898 3.94484 2.32969 3.40891C2.13992 3.34875 1.94961 3.32031 1.76367 3.32031C0.8225 3.32031 0 4.04875 0 5.05992V22.4101C0 23.1008 0.395391 23.7554 1.03031 24.0212C3.15164 24.9115 5.27461 25.25 7.39648 25.25C14.1323 25.25 20.8682 21.8402 27.6041 21.8402C29.2934 21.8402 30.9816 22.0546 32.6709 22.5905C32.8606 22.6507 33.0509 22.6791 33.2369 22.6791C34.178 22.6791 35.0005 21.9507 35.0005 20.9395V3.58992C35 2.89867 34.6046 2.24461 33.9697 1.97828V1.97828ZM17.5 18.25C15.0834 18.25 13.125 15.899 13.125 13C13.125 10.1005 15.0839 7.75 17.5 7.75C19.9161 7.75 21.875 10.1005 21.875 13C21.875 15.9001 19.9155 18.25 17.5 18.25Z" fill="#3B1283"/>
</svg>
