<svg width="361" height="96" viewBox="0 0 361 96" fill="none" xmlns="http://www.w3.org/2000/svg">
<g filter="url(#filter0_d)">
<rect x="4" y="7" width="188" height="15" rx="7.5" fill="white"/>
</g>
<g filter="url(#filter1_d)">
<rect x="4" y="43" width="351" height="20" rx="10" fill="white"/>
</g>
<g filter="url(#filter2_d)">
<rect x="4" y="68" width="294" height="20" rx="10" fill="white"/>
</g>
<g filter="url(#filter3_d)">
<path d="M267 0L269.245 6.90983H276.511L270.633 11.1803L272.878 18.0902L267 13.8197L261.122 18.0902L263.367 11.1803L257.489 6.90983H264.755L267 0Z" fill="white"/>
<path d="M347 0L349.245 6.90983H356.511L350.633 11.1803L352.878 18.0902L347 13.8197L341.122 18.0902L343.367 11.1803L337.489 6.90983H344.755L347 0Z" fill="white"/>
<path d="M327 0L329.245 6.90983H336.511L330.633 11.1803L332.878 18.0902L327 13.8197L321.122 18.0902L323.367 11.1803L317.489 6.90983H324.755L327 0Z" fill="white"/>
<path d="M307 0L309.245 6.90983H316.511L310.633 11.1803L312.878 18.0902L307 13.8197L301.122 18.0902L303.367 11.1803L297.489 6.90983H304.755L307 0Z" fill="white"/>
<path d="M287 0L289.245 6.90983H296.511L290.633 11.1803L292.878 18.0902L287 13.8197L281.122 18.0902L283.367 11.1803L277.489 6.90983H284.755L287 0Z" fill="white"/>
</g>
<defs>
<filter id="filter0_d" x="0" y="7" width="196" height="23" filterUnits="userSpaceOnUse" color-interpolation-filters="sRGB">
<feFlood flood-opacity="0" result="BackgroundImageFix"/>
<feColorMatrix in="SourceAlpha" type="matrix" values="0 0 0 0 0 0 0 0 0 0 0 0 0 0 0 0 0 0 127 0"/>
<feOffset dy="4"/>
<feGaussianBlur stdDeviation="2"/>
<feColorMatrix type="matrix" values="0 0 0 0 0 0 0 0 0 0 0 0 0 0 0 0 0 0 0.1 0"/>
<feBlend mode="normal" in2="BackgroundImageFix" result="effect1_dropShadow"/>
<feBlend mode="normal" in="SourceGraphic" in2="effect1_dropShadow" result="shape"/>
</filter>
<filter id="filter1_d" x="0" y="43" width="359" height="28" filterUnits="userSpaceOnUse" color-interpolation-filters="sRGB">
<feFlood flood-opacity="0" result="BackgroundImageFix"/>
<feColorMatrix in="SourceAlpha" type="matrix" values="0 0 0 0 0 0 0 0 0 0 0 0 0 0 0 0 0 0 127 0"/>
<feOffset dy="4"/>
<feGaussianBlur stdDeviation="2"/>
<feColorMatrix type="matrix" values="0 0 0 0 0 0 0 0 0 0 0 0 0 0 0 0 0 0 0.1 0"/>
<feBlend mode="normal" in2="BackgroundImageFix" result="effect1_dropShadow"/>
<feBlend mode="normal" in="SourceGraphic" in2="effect1_dropShadow" result="shape"/>
</filter>
<filter id="filter2_d" x="0" y="68" width="302" height="28" filterUnits="userSpaceOnUse" color-interpolation-filters="sRGB">
<feFlood flood-opacity="0" result="BackgroundImageFix"/>
<feColorMatrix in="SourceAlpha" type="matrix" values="0 0 0 0 0 0 0 0 0 0 0 0 0 0 0 0 0 0 127 0"/>
<feOffset dy="4"/>
<feGaussianBlur stdDeviation="2"/>
<feColorMatrix type="matrix" values="0 0 0 0 0 0 0 0 0 0 0 0 0 0 0 0 0 0 0.1 0"/>
<feBlend mode="normal" in2="BackgroundImageFix" result="effect1_dropShadow"/>
<feBlend mode="normal" in="SourceGraphic" in2="effect1_dropShadow" result="shape"/>
</filter>
<filter id="filter3_d" x="253.489" y="0" width="107.021" height="26.0902" filterUnits="userSpaceOnUse" color-interpolation-filters="sRGB">
<feFlood flood-opacity="0" result="BackgroundImageFix"/>
<feColorMatrix in="SourceAlpha" type="matrix" values="0 0 0 0 0 0 0 0 0 0 0 0 0 0 0 0 0 0 127 0"/>
<feOffset dy="4"/>
<feGaussianBlur stdDeviation="2"/>
<feColorMatrix type="matrix" values="0 0 0 0 0 0 0 0 0 0 0 0 0 0 0 0 0 0 0.1 0"/>
<feBlend mode="normal" in2="BackgroundImageFix" result="effect1_dropShadow"/>
<feBlend mode="normal" in="SourceGraphic" in2="effect1_dropShadow" result="shape"/>
</filter>
</defs>
</svg>

