<svg width="150" height="130" viewBox="0 0 150 130" fill="none" xmlns="http://www.w3.org/2000/svg">
<g clip-path="url(#clip0)">
<g opacity="0.8">
<path opacity="0.8" d="M77.1429 43.8875C91.5871 43.8875 103.296 34.8165 103.296 23.6268C103.296 12.4371 91.5871 3.36607 77.1429 3.36607C62.6986 3.36607 50.9893 12.4371 50.9893 23.6268C50.9893 34.8165 62.6986 43.8875 77.1429 43.8875Z" fill="url(#paint0_linear)"/>
</g>
<path d="M77.1429 43.4375C91.2666 43.4375 102.716 34.5679 102.716 23.6268C102.716 12.6856 91.2666 3.81607 77.1429 3.81607C63.0192 3.81607 51.5696 12.6856 51.5696 23.6268C51.5696 34.5679 63.0192 43.4375 77.1429 43.4375Z" fill="#3B1283"/>
<path opacity="0.1" d="M55.7036 25.8286C55.7036 14.8875 67.1518 6.01785 81.275 6.01785C85.6599 5.99372 90.001 6.88981 94.0179 8.64821C89.5232 5.6125 83.6429 3.76785 77.2072 3.76785C63.0839 3.76785 51.6339 12.6375 51.6339 23.5786C51.6339 30.925 56.7964 37.3375 64.4661 40.7589C59.0964 37.1268 55.7036 31.7857 55.7036 25.8286Z" fill="white"/>
<path opacity="0.2" d="M77.1429 31.5893L105.493 80.6928L133.843 129.795H77.1429H20.4429L48.7929 80.6928L77.1429 31.5893Z" fill="#6C63FF"/>
<g opacity="0.3">
<path opacity="0.3" d="M83.8696 101.111L86.0714 94.5768C86.8286 92.3014 86.8346 89.8429 86.0888 87.5638C85.3429 85.2846 83.8845 83.3054 81.9286 81.9179L81.9464 81.9072C81.0804 81.2975 80.1306 80.8163 79.1268 80.4786V80.4786L79.0964 80.4679L79.0625 80.4572C78.0881 80.1276 77.0722 79.9364 76.0446 79.8893C75.6812 79.8706 75.317 79.8706 74.9536 79.8893C74.3229 79.9223 73.6963 80.0089 73.0803 80.1482C72.9018 80.1875 72.7232 80.2322 72.5607 80.2804C72.3982 80.3286 72.2161 80.3804 72.0464 80.4357C71.7071 80.5482 71.3732 80.675 71.0464 80.8197C70.8821 80.8911 70.7196 80.9661 70.5607 81.0464C70.0801 81.2837 69.6176 81.5559 69.1768 81.8607C69.0286 81.9625 68.8839 82.0679 68.7411 82.175C66.976 83.5173 65.6546 85.3587 64.9482 87.4607L61.4875 97.7554C60.9428 99.3699 60.779 101.088 61.0089 102.777C61.0446 103.036 61.0893 103.293 61.1411 103.548C61.1929 103.804 61.2571 104.055 61.3196 104.305C61.3679 104.471 61.4179 104.638 61.4732 104.802C61.5554 105.046 61.6518 105.291 61.7429 105.53C61.8089 105.689 61.8786 105.848 61.9518 106.005C62.0964 106.318 62.2571 106.623 62.4304 106.921C62.6036 107.22 62.7875 107.511 62.9946 107.793C63.1446 108.004 63.3036 108.211 63.4678 108.411C63.6893 108.679 63.9214 108.946 64.1679 109.184C65.2344 110.259 66.5109 111.104 67.9179 111.664V111.664L67.9786 111.689C68.0541 111.555 68.1376 111.426 68.2286 111.302C68.7643 110.568 69.6964 110.052 70.5839 110.245C70.6482 110.259 70.7125 110.279 70.7768 110.298C71.2268 110.457 71.6696 110.741 72.1036 110.88C72.2614 110.951 72.4328 110.987 72.6058 110.985C72.7789 110.983 72.9493 110.943 73.1054 110.868C73.9732 110.405 73.6518 108.946 74.3964 108.307C74.4311 108.278 74.4675 108.25 74.5053 108.225C74.4948 108.212 74.4853 108.198 74.4768 108.184C75.0518 107.827 75.8482 108.064 76.5107 108.295C77.225 108.546 78.1571 108.716 78.6536 108.132C78.9893 107.732 78.9643 107.123 79.2839 106.704C79.6553 106.221 80.3553 106.168 80.9607 106.254L80.9911 106.263C82.1518 106.741 83.4196 105.946 83.3303 104.695C83.225 103.025 83.75 101.452 83.8696 101.111Z" fill="url(#paint1_linear)"/>
</g>
<path opacity="0.2" d="M72.3839 87.9625C73.026 87.9625 73.5464 87.442 73.5464 86.8C73.5464 86.158 73.026 85.6375 72.3839 85.6375C71.7419 85.6375 71.2214 86.158 71.2214 86.8C71.2214 87.442 71.7419 87.9625 72.3839 87.9625Z" fill="black"/>
<path opacity="0.2" d="M78.9947 90.1857C79.6367 90.1857 80.1572 89.6653 80.1572 89.0232C80.1572 88.3812 79.6367 87.8607 78.9947 87.8607C78.3526 87.8607 77.8322 88.3812 77.8322 89.0232C77.8322 89.6653 78.3526 90.1857 78.9947 90.1857Z" fill="black"/>
<path d="M75.3127 92.7007C75.6197 91.7884 75.3753 90.8829 74.7668 90.6781C74.1583 90.4733 73.4162 91.0469 73.1092 91.9591C72.8021 92.8714 73.0465 93.777 73.655 93.9818C74.2635 94.1865 75.0057 93.613 75.3127 92.7007Z" fill="#E0E0E0"/>
<path d="M98.6661 88.8C99.6286 88.8 100.409 88.0197 100.409 87.0571C100.409 86.0946 99.6286 85.3143 98.6661 85.3143C97.7035 85.3143 96.9232 86.0946 96.9232 87.0571C96.9232 88.0197 97.7035 88.8 98.6661 88.8Z" fill="white"/>
<path d="M104.188 85.1875C104.669 85.1875 105.059 84.7974 105.059 84.3161C105.059 83.8348 104.669 83.4446 104.188 83.4446C103.706 83.4446 103.316 83.8348 103.316 84.3161C103.316 84.7974 103.706 85.1875 104.188 85.1875Z" fill="white"/>
<g opacity="0.5">
<path opacity="0.2" d="M81.3161 20.0071C81.9581 20.0071 82.4786 19.4867 82.4786 18.8446C82.4786 18.2026 81.9581 17.6821 81.3161 17.6821C80.674 17.6821 80.1536 18.2026 80.1536 18.8446C80.1536 19.4867 80.674 20.0071 81.3161 20.0071Z" fill="black"/>
</g>
<path opacity="0.1" d="M101.7 17.7554C102.032 19.0385 102.199 20.3586 102.198 21.6839C102.198 32.625 90.75 41.4946 76.6268 41.4946C65.0678 41.4875 55.3018 35.5482 52.1429 27.3982C54.4893 36.4643 64.8214 43.2911 77.2161 43.2911C91.3393 43.2911 102.789 34.4214 102.789 23.4804C102.786 21.5209 102.416 19.5793 101.7 17.7554V17.7554Z" fill="black"/>
<g opacity="0.8">
<path opacity="0.8" d="M77.1428 46.0875C106.353 46.0875 130.032 39.8986 130.032 32.2643C130.032 24.6299 106.353 18.4411 77.1428 18.4411C47.9329 18.4411 24.2536 24.6299 24.2536 32.2643C24.2536 39.8986 47.9329 46.0875 77.1428 46.0875Z" fill="url(#paint2_linear)"/>
</g>
<path d="M77.1428 18.8982C48.8964 18.8982 25.9964 24.8821 25.9964 32.2661H128.289C128.289 24.8821 105.389 18.8982 77.1428 18.8982Z" fill="white"/>
<path d="M77.1428 45.6321C105.389 45.6321 128.289 39.6482 128.289 32.2661H25.9964C25.9964 39.6482 48.8964 45.6321 77.1428 45.6321Z" fill="white"/>
<path opacity="0.05" d="M77.1428 45.6321C105.389 45.6321 128.289 39.6482 128.289 32.2661H25.9964C25.9964 39.6482 48.8964 45.6321 77.1428 45.6321Z" fill="black"/>
<path opacity="0.05" d="M98.4786 28.7768H55.8071C54.1089 28.7768 52.7321 30.1535 52.7321 31.8518V32.6768C52.7321 34.3751 54.1089 35.7518 55.8071 35.7518H98.4786C100.177 35.7518 101.554 34.3751 101.554 32.6768V31.8518C101.554 30.1535 100.177 28.7768 98.4786 28.7768Z" fill="black"/>
<path opacity="0.5" d="M23.9089 10.3232C23.7614 10.2588 23.6426 10.1425 23.5751 9.99638C23.5077 9.85024 23.4962 9.68441 23.5429 9.53035C23.5504 9.50656 23.5551 9.482 23.5571 9.45714V9.45714C23.5617 9.38647 23.5433 9.31622 23.5047 9.25685C23.4661 9.19749 23.4093 9.15219 23.3429 9.1277C23.2764 9.10321 23.2039 9.10084 23.136 9.12095C23.0681 9.14105 23.0085 9.18256 22.9661 9.23928C22.9518 9.25929 22.9398 9.28086 22.9304 9.30357C22.8663 9.45136 22.75 9.57038 22.6038 9.6379C22.4575 9.70543 22.2915 9.71673 22.1375 9.66964C22.1137 9.66233 22.0891 9.65755 22.0643 9.65535C21.9936 9.6508 21.9234 9.66919 21.864 9.7078C21.8046 9.74641 21.7593 9.80316 21.7348 9.86961C21.7104 9.93606 21.708 10.0086 21.7281 10.0765C21.7482 10.1444 21.7897 10.204 21.8464 10.2464V10.2464C21.8662 10.2616 21.8878 10.2742 21.9107 10.2839C22.0583 10.3483 22.177 10.4646 22.2445 10.6107C22.312 10.7569 22.3235 10.9227 22.2768 11.0768C22.2695 11.1 22.2647 11.124 22.2625 11.1482V11.1482C22.2575 11.219 22.2756 11.2896 22.314 11.3493C22.3525 11.409 22.4093 11.4546 22.4758 11.4793C22.5424 11.504 22.6151 11.5066 22.6832 11.4865C22.7513 11.4664 22.8111 11.4248 22.8536 11.3679C22.8682 11.3474 22.8802 11.3252 22.8893 11.3018C22.9549 11.1556 23.0719 11.0386 23.2179 10.9728C23.364 10.907 23.5292 10.897 23.6821 10.9446C23.706 10.9519 23.7305 10.9567 23.7554 10.9589C23.826 10.9635 23.8963 10.9451 23.9556 10.9065C24.015 10.8679 24.0603 10.8111 24.0848 10.7447C24.1093 10.6782 24.1117 10.6056 24.0916 10.5377C24.0714 10.4698 24.0299 10.4102 23.9732 10.3679V10.3679C23.9539 10.3501 23.9323 10.3351 23.9089 10.3232V10.3232Z" fill="#4D8AF0"/>
<path opacity="0.5" d="M114.802 64.9661C114.656 64.9001 114.539 64.7832 114.473 64.6372C114.408 64.4912 114.397 64.3262 114.445 64.1732C114.452 64.1494 114.457 64.1249 114.459 64.1V64.1C114.463 64.0293 114.445 63.9591 114.406 63.8997C114.368 63.8403 114.311 63.795 114.245 63.7706C114.178 63.7461 114.106 63.7437 114.038 63.7638C113.97 63.7839 113.91 63.8254 113.868 63.8821C113.854 63.9021 113.842 63.9237 113.832 63.9464C113.768 64.0942 113.652 64.2132 113.506 64.2808C113.359 64.3483 113.193 64.3596 113.039 64.3125C113.015 64.3052 112.991 64.3004 112.966 64.2982V64.2982C112.895 64.2937 112.825 64.3121 112.766 64.3507C112.706 64.3893 112.661 64.446 112.637 64.5125C112.612 64.5789 112.61 64.6515 112.63 64.7194C112.65 64.7873 112.691 64.8469 112.748 64.8893V64.8893C112.768 64.9045 112.79 64.9171 112.812 64.9268C112.958 64.9927 113.075 65.1097 113.141 65.2557C113.207 65.4017 113.217 65.5667 113.17 65.7197C113.162 65.7429 113.158 65.7668 113.155 65.7911V65.7911C113.15 65.8619 113.168 65.9324 113.207 65.9921C113.245 66.0518 113.302 66.0975 113.369 66.1222C113.435 66.1469 113.508 66.1494 113.576 66.1293C113.644 66.1092 113.704 66.0676 113.746 66.0107V66.0107C113.761 65.9903 113.773 65.9681 113.782 65.9447C113.848 65.7985 113.965 65.6814 114.111 65.6156C114.257 65.5498 114.422 65.5398 114.575 65.5875C114.599 65.5948 114.623 65.5996 114.648 65.6018V65.6018C114.719 65.6064 114.789 65.588 114.848 65.5493C114.908 65.5107 114.953 65.454 114.978 65.3875C115.002 65.3211 115.005 65.2485 114.984 65.1806C114.964 65.1127 114.923 65.0531 114.866 65.0107C114.847 64.993 114.825 64.978 114.802 64.9661V64.9661Z" fill="#4D8AF0"/>
<path opacity="0.5" d="M14.4446 90.3232C14.2971 90.2588 14.1783 90.1425 14.1109 89.9964C14.0434 89.8502 14.0319 89.6844 14.0786 89.5304C14.0861 89.5066 14.0909 89.482 14.0929 89.4571V89.4571C14.0974 89.3865 14.079 89.3162 14.0404 89.2568C14.0018 89.1975 13.945 89.1522 13.8786 89.1277C13.8121 89.1032 13.7396 89.1008 13.6717 89.1209C13.6038 89.1411 13.5442 89.1826 13.5018 89.2393V89.2393C13.4875 89.2593 13.4755 89.2809 13.4661 89.3036C13.402 89.4514 13.2857 89.5704 13.1395 89.6379C12.9932 89.7054 12.8273 89.7167 12.6732 89.6696C12.6494 89.6623 12.6248 89.6575 12.6 89.6554V89.6554C12.5293 89.6508 12.4591 89.6692 12.3997 89.7078C12.3403 89.7464 12.295 89.8032 12.2705 89.8696C12.2461 89.9361 12.2437 90.0086 12.2638 90.0765C12.2839 90.1444 12.3254 90.204 12.3821 90.2464V90.2464C12.4019 90.2616 12.4235 90.2742 12.4464 90.2839C12.594 90.3483 12.7127 90.4646 12.7802 90.6108C12.8477 90.7569 12.8592 90.9227 12.8125 91.0768C12.8052 91.1 12.8004 91.124 12.7982 91.1482V91.1482C12.7932 91.219 12.8113 91.2896 12.8497 91.3493C12.8882 91.409 12.945 91.4546 13.0115 91.4793C13.0781 91.5041 13.1508 91.5066 13.2189 91.4865C13.287 91.4664 13.3468 91.4248 13.3893 91.3679C13.404 91.3474 13.416 91.3252 13.425 91.3018C13.4906 91.1556 13.6076 91.0386 13.7537 90.9728C13.8997 90.907 14.0649 90.897 14.2178 90.9446C14.2417 90.9519 14.2662 90.9567 14.2911 90.9589C14.3617 90.9635 14.432 90.9451 14.4913 90.9065C14.5507 90.8679 14.596 90.8111 14.6205 90.7447C14.645 90.6782 14.6474 90.6056 14.6273 90.5377C14.6072 90.4698 14.5656 90.4103 14.5089 90.3679V90.3679C14.4896 90.3501 14.468 90.3351 14.4446 90.3232V90.3232Z" fill="#4D8AF0"/>
<path opacity="0.5" d="M4.62321 31.2161C4.4773 31.1501 4.3605 31.0331 4.29474 30.8872C4.22898 30.7412 4.21878 30.5762 4.26607 30.4232C4.27356 30.3994 4.27835 30.3749 4.28035 30.35V30.35C4.28491 30.2793 4.26651 30.2091 4.22791 30.1497C4.1893 30.0903 4.13254 30.045 4.06609 30.0205C3.99965 29.9961 3.92707 29.9937 3.85917 30.0138C3.79126 30.0339 3.73168 30.0754 3.68928 30.1321V30.1321C3.67498 30.1521 3.663 30.1737 3.65357 30.1964C3.5895 30.3442 3.47324 30.4632 3.32699 30.5308C3.18075 30.5983 3.01476 30.6096 2.86071 30.5625C2.83687 30.5552 2.81233 30.5504 2.78749 30.5482V30.5482C2.71682 30.5437 2.64657 30.562 2.58721 30.6007C2.52784 30.6393 2.48254 30.696 2.45805 30.7625C2.43356 30.8289 2.43119 30.9015 2.4513 30.9694C2.47141 31.0373 2.51291 31.0969 2.56964 31.1393C2.58936 31.1545 2.61097 31.1671 2.63392 31.1768C2.78146 31.2412 2.90023 31.3575 2.96771 31.5036C3.03519 31.6498 3.04667 31.8156 2.99999 31.9696C2.99267 31.9929 2.98788 32.0168 2.98571 32.0411V32.0411C2.98071 32.1119 2.9988 32.1824 3.03725 32.2421C3.0757 32.3018 3.13246 32.3474 3.19902 32.3722C3.26557 32.3969 3.33835 32.3994 3.40645 32.3793C3.47455 32.3592 3.53431 32.3176 3.57678 32.2607V32.2607C3.59145 32.2403 3.60346 32.2181 3.61249 32.1946C3.67814 32.0485 3.79507 31.9314 3.94116 31.8656C4.08725 31.7998 4.25238 31.7898 4.40535 31.8375C4.42919 31.8448 4.45373 31.8496 4.47857 31.8518C4.54924 31.8563 4.61949 31.8379 4.67885 31.7993C4.73822 31.7607 4.78352 31.704 4.80801 31.6375C4.8325 31.5711 4.83487 31.4985 4.81476 31.4306C4.79465 31.3627 4.75315 31.3031 4.69642 31.2607V31.2607C4.67437 31.2423 4.6497 31.2272 4.62321 31.2161V31.2161Z" fill="#4D8AF0"/>
<path opacity="0.5" d="M113.016 1.21606C112.87 1.15011 112.753 1.03315 112.688 0.887157C112.622 0.741165 112.612 0.576187 112.659 0.423208C112.666 0.399417 112.671 0.374857 112.673 0.349993V0.349993C112.678 0.279324 112.659 0.209073 112.621 0.149708C112.582 0.0903426 112.525 0.0450399 112.459 0.0205492C112.393 -0.00394159 112.32 -0.00630927 112.252 0.0137985C112.184 0.0339063 112.125 0.0754132 112.082 0.132136V0.132136C112.068 0.152144 112.056 0.173711 112.046 0.196422C111.981 0.342582 111.864 0.459629 111.718 0.525435C111.572 0.591242 111.407 0.601248 111.254 0.553564C111.23 0.54626 111.205 0.541471 111.18 0.539278V0.539278C111.103 0.523131 111.023 0.535131 110.954 0.573096C110.885 0.61106 110.832 0.672472 110.805 0.746175C110.778 0.819878 110.777 0.900981 110.805 0.974753C110.832 1.04852 110.885 1.11007 110.954 1.14821V1.14821C110.973 1.16342 110.995 1.17603 111.018 1.18571C111.164 1.25166 111.281 1.36862 111.346 1.51461C111.412 1.66061 111.422 1.82559 111.375 1.97856C111.368 2.00179 111.363 2.02574 111.361 2.04999V2.04999C111.353 2.12352 111.371 2.19745 111.41 2.25983C111.45 2.32221 111.509 2.36939 111.579 2.39375C111.649 2.41812 111.725 2.41824 111.795 2.3941C111.865 2.36995 111.924 2.32296 111.964 2.26071V2.26071C111.979 2.2403 111.991 2.21809 112 2.19464C112.066 2.04847 112.183 1.93143 112.329 1.86562C112.475 1.79982 112.64 1.78981 112.793 1.83749C112.817 1.8448 112.841 1.84959 112.866 1.85178V1.85178C112.937 1.85634 113.007 1.83794 113.066 1.79933C113.126 1.76072 113.171 1.70397 113.196 1.63752C113.22 1.57107 113.222 1.49849 113.202 1.43059C113.182 1.36269 113.141 1.3031 113.084 1.26071V1.26071C113.064 1.24271 113.041 1.22768 113.016 1.21606V1.21606Z" fill="#4D8AF0"/>
<g opacity="0.5">
<path opacity="0.5" d="M20.1786 46.0446H19.6429V49.0804H20.1786V46.0446Z" fill="#47E6B1"/>
<path opacity="0.5" d="M21.4286 47.8304V47.2946H18.3928V47.8304H21.4286Z" fill="#47E6B1"/>
</g>
<g opacity="0.5">
<path opacity="0.5" d="M148.75 31.7589H148.214V34.7946H148.75V31.7589Z" fill="#47E6B1"/>
<path opacity="0.5" d="M150 33.5446V33.0089H146.964V33.5446H150Z" fill="#47E6B1"/>
</g>
<g opacity="0.5">
<path opacity="0.5" d="M130.893 81.5804H130.357V84.6161H130.893V81.5804Z" fill="#47E6B1"/>
<path opacity="0.5" d="M132.143 83.3661V82.8304H129.107V83.3661H132.143Z" fill="#47E6B1"/>
</g>
<path opacity="0.5" d="M1.07143 3.36606C1.66316 3.36606 2.14286 2.88637 2.14286 2.29463C2.14286 1.7029 1.66316 1.22321 1.07143 1.22321C0.479695 1.22321 0 1.7029 0 2.29463C0 2.88637 0.479695 3.36606 1.07143 3.36606Z" fill="#F55F44"/>
<path opacity="0.5" d="M33.2143 64.9732C33.806 64.9732 34.2857 64.4935 34.2857 63.9018C34.2857 63.31 33.806 62.8304 33.2143 62.8304C32.6225 62.8304 32.1429 63.31 32.1429 63.9018C32.1429 64.4935 32.6225 64.9732 33.2143 64.9732Z" fill="#F55F44"/>
<path opacity="0.05" d="M41.7857 28.8268C45.1389 28.8268 47.8572 28.2671 47.8572 27.5768C47.8572 26.8864 45.1389 26.3268 41.7857 26.3268C38.4326 26.3268 35.7143 26.8864 35.7143 27.5768C35.7143 28.2671 38.4326 28.8268 41.7857 28.8268Z" fill="black"/>
<path opacity="0.05" d="M41.7857 38.2911C45.1389 38.2911 47.8572 37.7314 47.8572 37.0411C47.8572 36.3507 45.1389 35.7911 41.7857 35.7911C38.4326 35.7911 35.7143 36.3507 35.7143 37.0411C35.7143 37.7314 38.4326 38.2911 41.7857 38.2911Z" fill="black"/>
<path opacity="0.05" d="M110.893 28.8268C114.246 28.8268 116.964 28.2671 116.964 27.5768C116.964 26.8864 114.246 26.3268 110.893 26.3268C107.54 26.3268 104.821 26.8864 104.821 27.5768C104.821 28.2671 107.54 28.8268 110.893 28.8268Z" fill="black"/>
<path opacity="0.05" d="M110.893 38.2911C114.246 38.2911 116.964 37.7314 116.964 37.0411C116.964 36.3507 114.246 35.7911 110.893 35.7911C107.54 35.7911 104.821 36.3507 104.821 37.0411C104.821 37.7314 107.54 38.2911 110.893 38.2911Z" fill="black"/>
<path opacity="0.05" d="M77.1428 23.4696C80.496 23.4696 83.2143 22.91 83.2143 22.2196C83.2143 21.5293 80.496 20.9696 77.1428 20.9696C73.7897 20.9696 71.0714 21.5293 71.0714 22.2196C71.0714 22.91 73.7897 23.4696 77.1428 23.4696Z" fill="black"/>
<path opacity="0.05" d="M81.6071 10.4339C84.9603 10.4339 87.6786 9.87429 87.6786 9.18393C87.6786 8.49357 84.9603 7.93393 81.6071 7.93393C78.254 7.93393 75.5357 8.49357 75.5357 9.18393C75.5357 9.87429 78.254 10.4339 81.6071 10.4339Z" fill="black"/>
<path opacity="0.05" d="M70 15.7911C73.3531 15.7911 76.0714 15.2314 76.0714 14.5411C76.0714 13.8507 73.3531 13.2911 70 13.2911C66.6468 13.2911 63.9286 13.8507 63.9286 14.5411C63.9286 15.2314 66.6468 15.7911 70 15.7911Z" fill="black"/>
<path opacity="0.05" d="M92.3214 18.1125C95.6746 18.1125 98.3929 17.5529 98.3929 16.8625C98.3929 16.1721 95.6746 15.6125 92.3214 15.6125C88.9683 15.6125 86.25 16.1721 86.25 16.8625C86.25 17.5529 88.9683 18.1125 92.3214 18.1125Z" fill="black"/>
<path opacity="0.05" d="M77.1428 42.0411C80.496 42.0411 83.2143 41.4814 83.2143 40.7911C83.2143 40.1007 80.496 39.5411 77.1428 39.5411C73.7897 39.5411 71.0714 40.1007 71.0714 40.7911C71.0714 41.4814 73.7897 42.0411 77.1428 42.0411Z" fill="black"/>
<path d="M69.7586 75.7586H87.6896L92.5172 97.1379V98.5172H82.8621L78.7241 88.8621L68.3793 113L61.4828 110.931L69.7586 75.7586Z" fill="#A2AFB9"/>
<path d="M87.6897 73H69.7586V75.7586H87.6897V73Z" fill="#0B68D6"/>
<path d="M86.3103 80.5862H88.7797L87.6897 75.7586H83.5517V77.8276C83.5517 79.3511 84.7868 80.5862 86.3103 80.5862Z" fill="#676F76"/>
<path d="M73.8966 77.8276V75.7586H69.7586L68.6228 80.5862H71.1379C72.6615 80.5862 73.8966 79.3511 73.8966 77.8276Z" fill="#676F76"/>
<path d="M74.5862 73H73.2069V75.7586H74.5862V73Z" fill="#A2AFB9"/>
<path d="M84.2414 73H82.8621V75.7586H84.2414V73Z" fill="#A2AFB9"/>
<path d="M80.1034 73H77.3448V75.7586H80.1034V73Z" fill="#E6E6E6"/>
<path d="M78.7241 75.7586V89.5517L81.4827 87.4827V75.7586H78.7241Z" fill="#676F76"/>
<path d="M92.5172 98.5172H78.7241V104.724L85.6207 106.103L92.5172 99.8966V98.5172Z" fill="#676F76"/>
</g>
<defs>
<linearGradient id="paint0_linear" x1="77.1429" y1="43.8893" x2="77.1429" y2="3.36607" gradientUnits="userSpaceOnUse">
<stop stop-color="#808080" stop-opacity="0.25"/>
<stop offset="0.54" stop-color="#808080" stop-opacity="0.12"/>
<stop offset="1" stop-color="#808080" stop-opacity="0.1"/>
</linearGradient>
<linearGradient id="paint1_linear" x1="-8410.45" y1="61474.3" x2="-6522.68" y2="55870" gradientUnits="userSpaceOnUse">
<stop stop-color="#808080" stop-opacity="0.25"/>
<stop offset="0.54" stop-color="#808080" stop-opacity="0.12"/>
<stop offset="1" stop-color="#808080" stop-opacity="0.1"/>
</linearGradient>
<linearGradient id="paint2_linear" x1="45720.6" y1="7153.71" x2="45720.6" y2="2873.49" gradientUnits="userSpaceOnUse">
<stop stop-color="#808080" stop-opacity="0.25"/>
<stop offset="0.54" stop-color="#808080" stop-opacity="0.12"/>
<stop offset="1" stop-color="#808080" stop-opacity="0.1"/>
</linearGradient>
<clipPath id="clip0">
<rect width="150" height="129.795" fill="white"/>
</clipPath>
</defs>
</svg>
