<svg width="180" height="172" viewBox="0 0 180 172" fill="none" xmlns="http://www.w3.org/2000/svg">
<path d="M108.947 9.61431L15.1695 29.7355L42.9705 159.305L136.747 139.184L108.947 9.61431Z" fill="#E0E0E0"/>
<g opacity="0.5">
<path opacity="0.5" d="M107.833 12.145L17.2254 31.5861L44.0866 156.776L134.694 137.335L107.833 12.145Z" fill="url(#paint0_linear)"/>
</g>
<path d="M106.876 13.314L18.5753 32.2602L44.8431 154.684L133.144 135.738L106.876 13.314Z" fill="#FAFAFA"/>
<path d="M83.6052 12.7555L39.8003 22.1544L42.0771 32.7656L85.882 23.3666L83.6052 12.7555Z" fill="url(#paint1_linear)"/>
<path d="M59.4777 7.09097C56.0957 7.81741 53.9559 11.2126 54.6999 14.6735C55.4439 18.1345 58.7863 20.3555 62.1617 19.6291C65.5371 18.9027 67.6835 15.5075 66.9395 12.0465C66.1955 8.58554 62.8596 6.36454 59.4777 7.09097ZM61.5999 16.9889C60.8851 17.1594 60.1358 17.1132 59.4474 16.8562C58.759 16.5992 58.1627 16.143 57.7345 15.5459C57.3063 14.9487 57.0656 14.2376 57.0431 13.5031C57.0205 12.7686 57.2172 12.0441 57.608 11.4218C57.9988 10.7995 58.566 10.3077 59.2374 10.009C59.9087 9.71026 60.6538 9.61821 61.3777 9.74454C62.1016 9.87088 62.7714 10.2099 63.3019 10.7184C63.8324 11.2268 64.1995 11.8817 64.3564 12.5996C64.4648 13.0688 64.4794 13.5549 64.3994 14.0298C64.3194 14.5048 64.1464 14.9592 63.8903 15.3671C63.6341 15.7749 63.2999 16.1282 62.9069 16.4065C62.5138 16.6848 62.0697 16.8828 61.5999 16.9889V16.9889Z" fill="url(#paint2_linear)"/>
<path d="M83.0462 12.3993L40.1639 21.6003L42.3403 31.7437L85.2226 22.5427L83.0462 12.3993Z" fill="#282E38"/>
<path d="M59.4776 7.09098C58.2923 7.34539 57.2091 7.94556 56.3648 8.81561C55.5206 9.68565 54.9534 10.7865 54.7348 11.9789C54.5162 13.1714 54.6561 14.4019 55.1368 15.5148C55.6175 16.6277 56.4174 17.5731 57.4354 18.2314C58.4534 18.8897 59.6438 19.2314 60.856 19.2132C62.0681 19.195 63.2477 18.8178 64.2455 18.1292C65.2433 17.4407 66.0145 16.4717 66.4616 15.3449C66.9087 14.218 67.0116 12.9839 66.7574 11.7985C66.5885 11.0114 66.2663 10.2653 65.809 9.60269C65.3518 8.94012 64.7685 8.3741 64.0925 7.93695C63.4166 7.49981 62.6611 7.2001 61.8692 7.05495C61.0774 6.9098 60.2647 6.92204 59.4776 7.09098V7.09098ZM61.5055 16.55C60.8214 16.6968 60.109 16.6374 59.4586 16.3794C58.8082 16.1213 58.2489 15.6762 57.8515 15.1002C57.4541 14.5243 57.2363 13.8434 57.2259 13.1438C57.2154 12.4441 57.4127 11.7571 57.7927 11.1695C58.1728 10.582 58.7185 10.1203 59.3609 9.84294C60.0033 9.56556 60.7136 9.48492 61.4018 9.61122C62.0901 9.73751 62.7254 10.0651 63.2275 10.5525C63.7296 11.0399 64.0758 11.6652 64.2225 12.3494C64.4192 13.2667 64.2434 14.2246 63.7339 15.0123C63.2243 15.8001 62.4228 16.3532 61.5055 16.55V16.55Z" fill="#282E38"/>
<path d="M152.51 25.6579H56.5983V158.176H152.51V25.6579Z" fill="#E0E0E0"/>
<g opacity="0.5">
<path opacity="0.5" d="M150.89 27.8986H58.2201V155.938H150.89V27.8986Z" fill="url(#paint3_linear)"/>
</g>
<path d="M149.709 28.8423H59.3987V154.052H149.709V28.8423Z" fill="white"/>
<path d="M127.073 23.4127H82.2715V34.2653H127.073V23.4127Z" fill="url(#paint4_linear)"/>
<path d="M104.672 12.819C101.214 12.819 98.4089 15.6897 98.4089 19.2319C98.4089 22.7741 101.214 25.6447 104.672 25.6447C108.131 25.6447 110.936 22.7741 110.936 19.2319C110.936 15.6897 108.131 12.819 104.672 12.819ZM104.672 22.9321C103.937 22.9495 103.213 22.7474 102.593 22.3516C101.973 21.9558 101.486 21.3842 101.192 20.7098C100.898 20.0354 100.812 19.2888 100.945 18.5653C101.078 17.8418 101.423 17.1744 101.937 16.6481C102.451 16.1218 103.11 15.7605 103.83 15.6105C104.55 15.4605 105.298 15.5284 105.98 15.8057C106.661 16.083 107.244 16.557 107.655 17.1673C108.065 17.7776 108.285 18.4963 108.285 19.2319C108.292 20.1986 107.916 21.1287 107.239 21.8189C106.562 22.509 105.639 22.9029 104.672 22.9145V22.9321Z" fill="url(#paint5_linear)"/>
<path d="M126.602 22.9474H82.7433V33.3216H126.602V22.9474Z" fill="#282E38"/>
<path d="M104.672 12.819C103.46 12.819 102.275 13.1785 101.267 13.8521C100.259 14.5256 99.4733 15.4829 99.0093 16.603C98.5454 17.7231 98.424 18.9555 98.6605 20.1446C98.897 21.3336 99.4808 22.4258 100.338 23.2831C101.195 24.1404 102.288 24.7241 103.477 24.9607C104.666 25.1972 105.898 25.0758 107.018 24.6118C108.138 24.1479 109.096 23.3622 109.769 22.3542C110.443 21.3462 110.802 20.1611 110.802 18.9487C110.802 17.323 110.156 15.7639 109.007 14.6144C107.857 13.4648 106.298 12.819 104.672 12.819ZM104.672 22.4865C103.973 22.4857 103.29 22.2777 102.709 21.8888C102.128 21.4999 101.675 20.9476 101.408 20.3016C101.141 19.6556 101.071 18.9448 101.207 18.2591C101.343 17.5733 101.68 16.9434 102.174 16.4487C102.668 15.954 103.297 15.6168 103.983 15.4797C104.668 15.3425 105.379 15.4116 106.026 15.6781C106.672 15.9447 107.225 16.3968 107.614 16.9773C108.004 17.5579 108.213 18.2408 108.215 18.94C108.214 19.4047 108.122 19.8649 107.944 20.2942C107.766 20.7234 107.505 21.1134 107.176 21.4417C106.847 21.77 106.457 22.0303 106.027 22.2077C105.598 22.3851 105.137 22.4761 104.672 22.4756V22.4865Z" fill="#282E38"/>
<g opacity="0.5">
<path opacity="0.5" d="M4.17645 161.758H3.35126V166.439H4.17645V161.758Z" fill="#47E6B1"/>
<path opacity="0.5" d="M6.10555 164.512V163.687H1.42434V164.512H6.10555Z" fill="#47E6B1"/>
</g>
<g opacity="0.5">
<path opacity="0.5" d="M99.9122 0H99.087V4.68122H99.9122V0Z" fill="#47E6B1"/>
<path opacity="0.5" d="M101.841 2.75211V1.92693L97.1601 1.92693V2.75211L101.841 2.75211Z" fill="#47E6B1"/>
</g>
<path opacity="0.5" d="M169.226 169.551C168.999 169.452 168.816 169.273 168.711 169.047C168.607 168.822 168.59 168.566 168.662 168.329C168.674 168.292 168.681 168.255 168.684 168.217V168.217C168.691 168.108 168.662 168 168.603 167.909C168.543 167.818 168.456 167.748 168.354 167.711C168.251 167.673 168.14 167.669 168.035 167.7C167.931 167.731 167.839 167.794 167.773 167.881V167.881C167.751 167.912 167.732 167.945 167.716 167.98C167.617 168.207 167.438 168.391 167.213 168.495C166.987 168.599 166.731 168.616 166.494 168.544C166.458 168.532 166.42 168.525 166.382 168.522V168.522C166.273 168.515 166.165 168.544 166.074 168.603C165.983 168.663 165.914 168.75 165.876 168.853C165.838 168.955 165.834 169.066 165.865 169.171C165.896 169.275 165.959 169.367 166.046 169.433V169.433C166.077 169.455 166.11 169.475 166.145 169.49C166.373 169.589 166.556 169.768 166.66 169.993C166.764 170.219 166.781 170.475 166.709 170.712C166.697 170.748 166.69 170.786 166.687 170.824V170.824C166.681 170.933 166.709 171.041 166.769 171.132C166.828 171.223 166.916 171.293 167.018 171.33C167.12 171.368 167.232 171.372 167.336 171.341C167.441 171.31 167.532 171.247 167.598 171.16V171.16C167.621 171.129 167.64 171.096 167.655 171.061C167.754 170.833 167.933 170.65 168.159 170.546C168.384 170.442 168.64 170.425 168.877 170.497C168.914 170.509 168.951 170.516 168.989 170.519C169.098 170.526 169.206 170.497 169.297 170.437C169.388 170.378 169.458 170.29 169.495 170.188C169.533 170.086 169.537 169.975 169.506 169.87C169.476 169.766 169.412 169.674 169.325 169.608V169.608C169.295 169.585 169.261 169.566 169.226 169.551V169.551Z" fill="#4D8AF0"/>
<path opacity="0.5" d="M29.9945 124.547C29.7669 124.448 29.5837 124.269 29.4797 124.044C29.3757 123.818 29.3582 123.562 29.4305 123.325C29.4422 123.289 29.4495 123.251 29.4524 123.213V123.213C29.459 123.104 29.4304 122.996 29.3708 122.905C29.3112 122.814 29.2239 122.744 29.1217 122.707C29.0196 122.669 28.908 122.665 28.8035 122.696C28.699 122.727 28.6072 122.79 28.5416 122.877V122.877C28.5188 122.908 28.4997 122.941 28.4846 122.976C28.3855 123.204 28.2062 123.387 27.9808 123.491C27.7554 123.595 27.4996 123.612 27.2622 123.54C27.2258 123.528 27.1883 123.521 27.1502 123.518V123.518C27.0415 123.512 26.9336 123.54 26.8425 123.6C26.7513 123.659 26.6817 123.747 26.6441 123.849C26.6064 123.951 26.6026 124.062 26.6333 124.167C26.664 124.271 26.7275 124.363 26.8144 124.429V124.429C26.845 124.452 26.8782 124.471 26.9132 124.486C27.1408 124.585 27.324 124.764 27.428 124.99C27.532 125.215 27.5495 125.471 27.4772 125.708C27.4656 125.745 27.4582 125.782 27.4553 125.82C27.4487 125.929 27.4773 126.037 27.5369 126.128C27.5965 126.219 27.6838 126.289 27.786 126.326C27.8881 126.364 27.9997 126.368 28.1042 126.337C28.2087 126.306 28.3005 126.243 28.3661 126.156V126.156C28.3889 126.125 28.408 126.092 28.4231 126.057C28.5222 125.83 28.7015 125.646 28.9269 125.542C29.1523 125.438 29.4081 125.421 29.6456 125.493C29.6819 125.505 29.7195 125.512 29.7575 125.515C29.8662 125.522 29.9741 125.493 30.0653 125.434C30.1564 125.374 30.226 125.287 30.2636 125.185C30.3013 125.082 30.3051 124.971 30.2744 124.866C30.2437 124.762 30.1802 124.67 30.0933 124.604V124.604C30.0627 124.582 30.0296 124.562 29.9945 124.547Z" fill="#FDD835"/>
<path opacity="0.5" d="M145.963 14.9632C145.735 14.8642 145.552 14.6848 145.448 14.4594C145.344 14.234 145.327 13.9783 145.399 13.7408C145.411 13.7045 145.418 13.6669 145.421 13.6289C145.427 13.5202 145.399 13.4123 145.339 13.3211C145.28 13.2299 145.192 13.1604 145.09 13.1227C144.988 13.085 144.876 13.0813 144.772 13.112C144.667 13.1426 144.576 13.2062 144.51 13.2931V13.2931C144.487 13.3237 144.468 13.3568 144.453 13.3918C144.354 13.6195 144.175 13.8027 143.949 13.9067C143.724 14.0107 143.468 14.0282 143.231 13.9559C143.194 13.9442 143.157 13.9368 143.119 13.9339V13.9339C143.01 13.9274 142.902 13.956 142.811 14.0156C142.72 14.0751 142.65 14.1624 142.612 14.2646C142.575 14.3668 142.571 14.4784 142.602 14.5828C142.632 14.6873 142.696 14.7791 142.783 14.8447V14.8447C142.813 14.8675 142.847 14.8867 142.882 14.9018C143.109 15.0009 143.292 15.1802 143.396 15.4056C143.5 15.631 143.518 15.8867 143.446 16.1242C143.434 16.1605 143.427 16.1981 143.424 16.2361V16.2361C143.417 16.3448 143.446 16.4527 143.505 16.5439C143.565 16.6351 143.652 16.7046 143.754 16.7423C143.857 16.78 143.968 16.7837 144.073 16.7531C144.177 16.7224 144.269 16.6589 144.334 16.5719V16.5719C144.357 16.5414 144.376 16.5082 144.392 16.4732C144.491 16.2456 144.67 16.0623 144.895 15.9583C145.121 15.8543 145.376 15.8368 145.614 15.9091C145.65 15.9208 145.688 15.9282 145.726 15.9311C145.835 15.9376 145.942 15.909 146.034 15.8494C146.125 15.7899 146.194 15.7026 146.232 15.6004C146.27 15.4982 146.273 15.3866 146.243 15.2822C146.212 15.1777 146.149 15.0859 146.062 15.0203V15.0203C146.031 14.9975 145.998 14.9783 145.963 14.9632V14.9632Z" fill="#FDD835"/>
<path opacity="0.5" d="M178.347 70.6683C179.26 70.6683 180 69.9284 180 69.0157C180 68.103 179.26 67.3631 178.347 67.3631C177.435 67.3631 176.695 68.103 176.695 69.0157C176.695 69.9284 177.435 70.6683 178.347 70.6683Z" fill="#F55F44"/>
<path opacity="0.5" d="M50.6375 165.517C51.5502 165.517 52.2901 164.778 52.2901 163.865C52.2901 162.952 51.5502 162.212 50.6375 162.212C49.7249 162.212 48.985 162.952 48.985 163.865C48.985 164.778 49.7249 165.517 50.6375 165.517Z" fill="#F55F44"/>
<path opacity="0.5" d="M161.376 106.389C162.289 106.389 163.029 105.649 163.029 104.736C163.029 103.823 162.289 103.083 161.376 103.083C160.463 103.083 159.723 103.823 159.723 104.736C159.723 105.649 160.463 106.389 161.376 106.389Z" fill="#F55F44"/>
<path opacity="0.5" d="M19.1243 22.7982C20.037 22.7982 20.7769 22.0583 20.7769 21.1456C20.7769 20.2329 20.037 19.493 19.1243 19.493C18.2116 19.493 17.4717 20.2329 17.4717 21.1456C17.4717 22.0583 18.2116 22.7982 19.1243 22.7982Z" fill="#4D8AF0"/>
<path opacity="0.5" d="M1.65258 67.8788C2.56528 67.8788 3.30517 67.139 3.30517 66.2263C3.30517 65.3136 2.56528 64.5737 1.65258 64.5737C0.739887 64.5737 0 65.3136 0 66.2263C0 67.139 0.739887 67.8788 1.65258 67.8788Z" fill="#47E6B1"/>
<defs>
<linearGradient id="paint0_linear" x1="89.3893" y1="147.056" x2="62.5281" y2="21.8658" gradientUnits="userSpaceOnUse">
<stop stop-color="#808080" stop-opacity="0.25"/>
<stop offset="0.54" stop-color="#808080" stop-opacity="0.12"/>
<stop offset="1" stop-color="#808080" stop-opacity="0.1"/>
</linearGradient>
<linearGradient id="paint1_linear" x1="24098.8" y1="-3138.13" x2="23986.2" y2="-3662.85" gradientUnits="userSpaceOnUse">
<stop stop-color="#808080" stop-opacity="0.25"/>
<stop offset="0.54" stop-color="#808080" stop-opacity="0.12"/>
<stop offset="1" stop-color="#808080" stop-opacity="0.1"/>
</linearGradient>
<linearGradient id="paint2_linear" x1="7036.92" y1="357.943" x2="6879.85" y2="-374.086" gradientUnits="userSpaceOnUse">
<stop stop-color="#808080" stop-opacity="0.25"/>
<stop offset="0.54" stop-color="#808080" stop-opacity="0.12"/>
<stop offset="1" stop-color="#808080" stop-opacity="0.1"/>
</linearGradient>
<linearGradient id="paint3_linear" x1="44206.1" y1="91003.5" x2="44206.1" y2="16304.2" gradientUnits="userSpaceOnUse">
<stop stop-color="#808080" stop-opacity="0.25"/>
<stop offset="0.54" stop-color="#808080" stop-opacity="0.12"/>
<stop offset="1" stop-color="#808080" stop-opacity="0.1"/>
</linearGradient>
<linearGradient id="paint4_linear" x1="21450.1" y1="1717.83" x2="21450.1" y2="1181.17" gradientUnits="userSpaceOnUse">
<stop stop-color="#808080" stop-opacity="0.25"/>
<stop offset="0.54" stop-color="#808080" stop-opacity="0.12"/>
<stop offset="1" stop-color="#808080" stop-opacity="0.1"/>
</linearGradient>
<linearGradient id="paint5_linear" x1="8452.26" y1="2275.13" x2="8452.26" y2="1525.6" gradientUnits="userSpaceOnUse">
<stop stop-color="#808080" stop-opacity="0.25"/>
<stop offset="0.54" stop-color="#808080" stop-opacity="0.12"/>
<stop offset="1" stop-color="#808080" stop-opacity="0.1"/>
</linearGradient>
</defs>
</svg>
