<svg width="300" height="225" viewBox="0 0 300 225" fill="none" xmlns="http://www.w3.org/2000/svg">
<path d="M70.4925 150.187L244.418 150.188L244.418 26.1825L70.4925 26.1825L70.4925 150.187Z" fill="#E6E6E6"/>
<path d="M185.768 104.85H128.018V118.777H185.768V104.85Z" fill="white"/>
<path d="M138.42 113.677C139.377 113.677 140.152 112.902 140.152 111.945C140.152 110.988 139.377 110.212 138.42 110.212C137.463 110.212 136.688 110.988 136.688 111.945C136.688 112.902 137.463 113.677 138.42 113.677Z" fill="#24285B"/>
<path d="M147.503 113.677C148.459 113.677 149.235 112.902 149.235 111.945C149.235 110.988 148.459 110.212 147.503 110.212C146.546 110.212 145.77 110.988 145.77 111.945C145.77 112.902 146.546 113.677 147.503 113.677Z" fill="#24285B"/>
<path d="M157.185 113.677C158.142 113.677 158.918 112.902 158.918 111.945C158.918 110.988 158.142 110.212 157.185 110.212C156.228 110.212 155.452 110.988 155.452 111.945C155.452 112.902 156.228 113.677 157.185 113.677Z" fill="#24285B"/>
<path d="M166.268 113.677C167.224 113.677 168 112.902 168 111.945C168 110.988 167.224 110.212 166.268 110.212C165.311 110.212 164.535 110.988 164.535 111.945C164.535 112.902 165.311 113.677 166.268 113.677Z" fill="#24285B"/>
<path d="M175.358 113.677C176.314 113.677 177.09 112.902 177.09 111.945C177.09 110.988 176.314 110.212 175.358 110.212C174.401 110.212 173.625 110.988 173.625 111.945C173.625 112.902 174.401 113.677 175.358 113.677Z" fill="#24285B"/>
<path opacity="0.4" d="M178.658 60.72H134.52V91.3875H178.658V60.72Z" fill="#A5A5A5"/>
<path d="M96 134.085C96 134.085 99.2025 148.912 107.655 148.147C116.107 147.382 118.905 123.217 118.905 123.217L115.8 120.3L96 134.085Z" fill="#F4A28C"/>
<path d="M87.75 100.568C87.75 100.568 105.96 103.275 107.685 123.218L95.7375 128.325L87.75 100.568Z" fill="#3B1283"/>
<path opacity="0.2" d="M95.7375 128.325L87.75 100.575C87.75 100.575 105.96 103.283 107.685 123.225" fill="white"/>
<path opacity="0.08" d="M157.5 103.448L162.84 112.328L155.647 116.378L149.805 105.878L141.75 109.913L147.75 121.163L140.137 125.61L134.767 116.363L131.017 119.168C129.91 119.998 129.026 121.091 128.444 122.348C127.863 123.604 127.603 124.986 127.687 126.368C128.047 132.465 128.062 143.438 124.297 149.933L99.165 150.173L102.045 127.208L75 102.233L71.655 91.215L69.525 81.06L74.3625 78.48C75.1099 78.0806 75.9565 77.9049 76.8012 77.9741C77.6458 78.0432 78.4526 78.3543 79.125 78.87C80.8875 80.2275 82.695 82.5675 81.6675 86.19C79.8525 92.61 80.8575 99.69 85.065 100.665C89.2725 101.64 106.522 96.42 110.332 106.043C114.142 115.665 116.145 116.468 125.37 108.855C134.595 101.243 150 93.69 150 93.69L157.5 103.448Z" fill="black"/>
<path opacity="0.45" d="M156.592 205.088C220.92 205.088 273.068 201.276 273.068 196.575C273.068 191.874 220.92 188.062 156.592 188.062C92.2651 188.062 40.1175 191.874 40.1175 196.575C40.1175 201.276 92.2651 205.088 156.592 205.088Z" fill="#E6E6E6"/>
<path d="M70.3875 190.372C70.3875 190.372 68.8875 192.225 69.765 194.062C70.6425 195.9 69.225 197.385 67.8375 196.072C66.45 194.76 66.0525 189.495 66.0525 189.495L68.6475 188.107L70.3875 190.372Z" fill="#3B1283"/>
<path d="M114.803 176.82C114.803 176.82 115.733 179.07 117.803 179.07C119.873 179.07 120.488 181.095 118.68 181.71C116.873 182.325 112.035 180.21 112.035 180.21V177.263L114.803 176.82Z" fill="#3B1283"/>
<path d="M71.3025 83.25C71.3025 83.25 73.8075 86.925 74.6025 89.8575C74.7518 90.4302 74.6694 91.0387 74.3732 91.5511C74.077 92.0635 73.5908 92.4386 73.02 92.595C72.1184 92.8917 71.1505 92.9229 70.2316 92.6848C69.3128 92.4468 68.4817 91.9496 67.8375 91.2525L64.7775 88.5C64.2213 87.8882 63.8686 87.1189 63.7678 86.2982C63.6671 85.4775 63.8233 84.6457 64.215 83.9175C65.5125 81.1275 69.885 80.925 71.3025 83.25Z" fill="#F4A28C"/>
<path d="M66.1575 88.4025L68.19 100.5L76.3875 100.875L71.6175 91.425L66.1575 88.4025Z" fill="#F4A28C"/>
<path d="M70.425 83.94C69.2484 84.6647 67.9895 85.2463 66.675 85.6725C67.328 86.0023 67.8688 86.518 68.2292 87.1546C68.5895 87.7913 68.7534 88.5204 68.7 89.25C68.678 89.9692 68.3924 90.6552 67.8975 91.1775C67.719 91.3467 67.5036 91.472 67.2682 91.5434C67.0329 91.6148 66.7842 91.6304 66.5418 91.5889C66.2993 91.5474 66.0699 91.45 65.8718 91.3043C65.6736 91.1587 65.512 90.9689 65.4 90.75L63.375 87.045C62.957 86.3429 62.7363 85.5409 62.7363 84.7237C62.7363 83.9066 62.957 83.1046 63.375 82.4025C63.737 81.7948 64.1378 81.2111 64.575 80.655C65.685 79.275 68.325 79.05 69.075 77.355C69.1522 77.1869 69.2713 77.0414 69.4208 76.9325C69.5703 76.8237 69.7453 76.755 69.929 76.7332C70.1127 76.7113 70.2989 76.7371 70.4698 76.8079C70.6407 76.8787 70.7906 76.9922 70.905 77.1375C71.9775 78.525 73.05 81.06 71.4675 83.04C71.1705 83.3939 70.8185 83.6978 70.425 83.94V83.94Z" fill="#24285B"/>
<path d="M69.0525 88.8675C69.0525 88.8675 68.1825 87.3675 67.125 88.1175C66.0675 88.8675 67.3125 91.005 68.9475 90.3675L69.0525 88.8675Z" fill="#F4A28C"/>
<path d="M72.75 85.6275L74.67 86.5125C74.7726 86.5688 74.8605 86.6482 74.9269 86.7446C74.9933 86.8409 75.0362 86.9514 75.0522 87.0673C75.0683 87.1832 75.057 87.3012 75.0192 87.4119C74.9815 87.5226 74.9184 87.623 74.835 87.705L73.5 88.8225L72.75 85.6275Z" fill="#F4A28C"/>
<path opacity="0.31" d="M72.33 92.85C71.3456 92.9111 70.3632 92.7037 69.4875 92.25C69.4875 92.25 69.72 95.43 73.695 95.5575L72.33 92.85Z" fill="#CE8172"/>
<path d="M54.285 104.925C65.055 97.8225 83.1975 96.33 93.4725 103.425C103.605 110.385 98.7225 151.56 98.7225 151.56L77.685 157.898C77.685 157.898 37.02 127.575 54.285 104.925Z" fill="#3B1283"/>
<path d="M74.3175 158.25L77.3775 165.63C77.7775 167.785 77.717 170.001 77.1999 172.131C76.6829 174.261 75.721 176.258 74.3775 177.99L66.75 187.822L70.9575 190.822L82.0125 182.018C84.2704 180.22 86.0972 177.94 87.3587 175.344C88.6202 172.749 89.2844 169.903 89.3025 167.018V163.268L87.93 158.453L74.3175 158.25Z" fill="#24285B"/>
<path opacity="0.08" d="M66.75 107.362C66.75 107.362 74.73 111.112 73.665 123.217C72.6 135.322 72.6 149.542 91.4775 148.822V155.16L79.11 157.02L64.3725 142.77L63.0975 120.87L66.75 107.362Z" fill="black"/>
<path opacity="0.08" d="M101.055 145.012L103.065 146.865L114.982 122.167L99.9075 132.195L101.055 145.012Z" fill="black"/>
<path d="M81.63 163.853L85.725 166.538L100.8 161.873C101.535 161.645 102.309 161.57 103.074 161.653C103.839 161.735 104.579 161.974 105.249 162.353C105.918 162.732 106.503 163.245 106.967 163.859C107.431 164.473 107.765 165.175 107.947 165.922L110.737 177.413L115.853 176.985L114.195 161.46C113.897 158.669 112.589 156.084 110.516 154.192C108.444 152.299 105.751 151.23 102.945 151.185L91.3125 151.027L81.63 163.853Z" fill="#24285B"/>
<path d="M156.082 108.623L163.5 104.175L152.715 86.175L95.25 124.89C91.5271 121.181 86.5612 118.985 81.3127 118.725C76.0641 118.466 70.9059 120.162 66.8355 123.486C62.7652 126.81 60.072 131.525 59.2769 136.719C58.4817 141.914 59.641 147.218 62.5307 151.608C65.4203 155.997 69.8349 159.158 74.9207 160.481C80.0064 161.804 85.402 161.193 90.0639 158.768C94.7257 156.343 98.3226 152.275 100.159 147.352C101.995 142.428 101.94 136.998 100.005 132.113L135.75 108L142.785 118.898L150.045 114.21L142.92 103.17L149.977 98.4225L156.082 108.623ZM80.25 152.528C77.758 152.528 75.3219 151.789 73.2498 150.404C71.1778 149.02 69.5628 147.052 68.6091 144.749C67.6554 142.447 67.4059 139.914 67.8921 137.469C68.3783 135.025 69.5783 132.78 71.3404 131.018C73.1026 129.256 75.3477 128.056 77.7919 127.57C80.236 127.083 82.7695 127.333 85.0718 128.287C87.3742 129.24 89.342 130.855 90.7265 132.927C92.111 134.999 92.85 137.435 92.85 139.928C92.846 143.268 91.5173 146.471 89.1552 148.833C86.7931 151.195 83.5905 152.524 80.25 152.528V152.528Z" fill="#FFD200"/>
<path d="M66.9375 112.95C67.6875 104.993 57.9375 100.538 52.4925 106.418C48.1425 111.135 44.025 119.093 44.43 132.18C45.2625 159.18 53.2875 165.525 73.68 164.22C76.101 164.691 78.6085 164.4 80.8575 163.388C81.1874 163.217 81.4563 162.948 81.6274 162.618C81.7986 162.289 81.8636 161.914 81.8134 161.546C81.7633 161.178 81.6006 160.835 81.3475 160.563C81.0945 160.291 80.7635 160.104 80.4 160.028C78.105 159.578 75.2325 159.278 73.65 160.155C73.65 160.155 55.0125 154.26 60.4875 132.233C60.5325 132.233 66.06 122.168 66.9375 112.95Z" fill="#F4A28C"/>
<path d="M52.3275 106.162C48.4575 109.365 43.74 115.672 43.8225 127.358L63.1275 129.518C63.1275 129.518 74.3775 110.813 64.0725 104.932C62.2203 103.925 60.106 103.503 58.0089 103.723C55.9118 103.942 53.9307 104.793 52.3275 106.162V106.162Z" fill="#3B1283"/>
<path opacity="0.2" d="M52.3275 106.162C48.4575 109.365 43.74 115.672 43.8225 127.358L63.1275 129.518C63.1275 129.518 74.3775 110.813 64.0725 104.932C62.2203 103.925 60.106 103.503 58.0089 103.723C55.9118 103.942 53.9307 104.793 52.3275 106.162V106.162Z" fill="white"/>
<path d="M114.982 122.168C114.982 122.168 119.573 116.528 122.19 118.83C124.808 121.133 120 128.077 114.982 122.168Z" fill="#F4A28C"/>
<path opacity="0.08" d="M44.4825 127.432V133.117L60.5325 132.232L61.89 129.517L44.4825 127.432Z" fill="black"/>
<path d="M83.0775 39.1425C85.0823 39.1425 86.7075 37.5173 86.7075 35.5125C86.7075 33.5077 85.0823 31.8825 83.0775 31.8825C81.0727 31.8825 79.4475 33.5077 79.4475 35.5125C79.4475 37.5173 81.0727 39.1425 83.0775 39.1425Z" fill="#24285B"/>
<path d="M93.8775 39.1425C95.8823 39.1425 97.5075 37.5173 97.5075 35.5125C97.5075 33.5077 95.8823 31.8825 93.8775 31.8825C91.8727 31.8825 90.2475 33.5077 90.2475 35.5125C90.2475 37.5173 91.8727 39.1425 93.8775 39.1425Z" fill="#3B1283"/>
<path d="M104.055 39.1425C106.06 39.1425 107.685 37.5173 107.685 35.5125C107.685 33.5077 106.06 31.8825 104.055 31.8825C102.05 31.8825 100.425 33.5077 100.425 35.5125C100.425 37.5173 102.05 39.1425 104.055 39.1425Z" fill="#FFD200"/>
<path d="M173.287 60.75H168.127V58.0725C168.127 55.0132 166.912 52.0792 164.749 49.916C162.586 47.7528 159.652 46.5375 156.592 46.5375C153.533 46.5375 150.599 47.7528 148.436 49.916C146.273 52.0792 145.057 55.0132 145.057 58.0725V60.75H139.897V58.0725C139.897 53.6447 141.656 49.3983 144.787 46.2673C147.918 43.1364 152.165 41.3775 156.592 41.3775C161.02 41.3775 165.267 43.1364 168.398 46.2673C171.529 49.3983 173.287 53.6447 173.287 58.0725V60.75Z" fill="white"/>
<path d="M157.163 75.0975C159.548 75.0975 161.482 73.1634 161.482 70.7775C161.482 68.3916 159.548 66.4575 157.163 66.4575C154.777 66.4575 152.842 68.3916 152.842 70.7775C152.842 73.1634 154.777 75.0975 157.163 75.0975Z" fill="#A5A5A5"/>
<path d="M159.765 72.9975H155.033V84.51H159.765V72.9975Z" fill="#A5A5A5"/>
<path d="M168.428 126.345H144.757V138.112H168.428V126.345Z" fill="#24285B"/>
<path opacity="0.13" d="M165.885 128.325H157.612V132.225H165.885V128.325Z" fill="white"/>
<path opacity="0.58" d="M239.385 183.563C239.385 183.563 230.7 181.23 228.75 173.16C228.75 173.16 242.182 170.385 242.625 184.26L239.385 183.563Z" fill="#3B1283"/>
<path opacity="0.73" d="M240.45 182.693C240.45 182.693 234.345 173.138 239.648 164.145C239.648 164.145 249.9 170.603 245.407 182.693H240.45Z" fill="#3B1283"/>
<path d="M242.01 182.693C242.01 182.693 245.175 172.56 254.85 170.603C254.85 170.603 256.695 177.165 248.633 182.693H242.01Z" fill="#3B1283"/>
<path d="M235.717 182.497L237.525 194.528H248.61L250.193 182.497H235.717Z" fill="#24285B"/>
</svg>
