<svg width="90" height="90" viewBox="0 0 90 90" fill="none" xmlns="http://www.w3.org/2000/svg">
<circle cx="45" cy="45" r="44" stroke="#222831" stroke-width="2"/>
<circle cx="45" cy="45" r="39" fill="url(#paint0_linear)" stroke="url(#paint1_linear)" stroke-width="2"/>
<circle cx="45" cy="45" r="30" fill="white"/>
<path fill-rule="evenodd" clip-rule="evenodd" d="M55.9091 36.8181C55.9091 39.7114 54.7598 42.4862 52.7139 44.532C50.6681 46.5779 47.8933 47.7272 45 47.7272C42.1068 47.7272 39.332 46.5779 37.2861 44.532C35.2403 42.4862 34.0909 39.7114 34.0909 36.8181C34.0909 33.9249 35.2403 31.1501 37.2861 29.1043C39.332 27.0584 42.1068 25.9091 45 25.9091C47.8933 25.9091 50.6681 27.0584 52.7139 29.1043C54.7598 31.1501 55.9091 33.9249 55.9091 36.8181V36.8181ZM50.4546 36.8181C50.4546 38.2648 49.8799 39.6522 48.857 40.6751C47.8341 41.698 46.4467 42.2727 45 42.2727C43.5534 42.2727 42.166 41.698 41.1431 40.6751C40.1202 39.6522 39.5455 38.2648 39.5455 36.8181C39.5455 35.3715 40.1202 33.9841 41.1431 32.9612C42.166 31.9383 43.5534 31.3636 45 31.3636C46.4467 31.3636 47.8341 31.9383 48.857 32.9612C49.8799 33.9841 50.4546 35.3715 50.4546 36.8181V36.8181Z" fill="#222831"/>
<path fill-rule="evenodd" clip-rule="evenodd" d="M45 15C28.4318 15 15 28.4318 15 45C15 61.5682 28.4318 75 45 75C61.5682 75 75 61.5682 75 45C75 28.4318 61.5682 15 45 15ZM20.4545 45C20.4545 50.7 22.3991 55.9473 25.6582 60.1145C27.947 57.1088 30.8997 54.6729 34.2857 52.9972C37.6717 51.3215 41.3993 50.4513 45.1773 50.4545C48.9064 50.451 52.587 51.2987 55.9389 52.933C59.2908 54.5674 62.2254 56.9452 64.5191 59.8855C66.8821 56.7862 68.4732 53.1688 69.1606 49.3325C69.8481 45.4963 69.6121 41.5515 68.4723 37.8245C67.3324 34.0975 65.3215 30.6956 62.6059 27.9001C59.8902 25.1046 56.548 22.996 52.8556 21.7487C49.1632 20.5013 45.2269 20.1512 41.3723 20.7272C37.5178 21.3032 33.8558 22.7888 30.6894 25.0611C27.5229 27.3333 24.9431 30.3269 23.1634 33.7942C21.3836 37.2614 20.455 41.1026 20.4545 45V45ZM45 69.5455C39.3653 69.5539 33.9007 67.6155 29.5309 64.0582C31.2898 61.5402 33.6309 59.4843 36.3551 58.0655C39.0792 56.6467 42.1058 55.9069 45.1773 55.9091C48.2104 55.9067 51.2004 56.6279 53.8989 58.013C56.5974 59.398 58.9265 61.4069 60.6927 63.8727C56.289 67.5456 50.7343 69.5535 45 69.5455V69.5455Z" fill="#222831"/>
<defs>
<linearGradient id="paint0_linear" x1="45" y1="5" x2="45" y2="85" gradientUnits="userSpaceOnUse">
<stop stop-color="#43A6AC"/>
<stop offset="1" stop-color="#98CDD1"/>
</linearGradient>
<linearGradient id="paint1_linear" x1="45" y1="5" x2="45" y2="85" gradientUnits="userSpaceOnUse">
<stop stop-color="#43A6AC"/>
<stop offset="1" stop-color="#9ED0D3"/>
</linearGradient>
</defs>
</svg>
