<svg width="50" height="44" viewBox="0 0 50 44" fill="none" xmlns="http://www.w3.org/2000/svg">
<path d="M49.0016 32.526L31.559 3.59909C30.8537 2.49572 29.8819 1.58768 28.7334 0.958685C27.5848 0.329694 26.2963 0 24.9868 0C23.6772 0 22.3888 0.329694 21.2402 0.958685C20.0916 1.58768 19.1198 2.49572 18.4145 3.59909L0.971974 32.526C0.355806 33.5531 0.0209075 34.7244 0.000947583 35.922C-0.0190124 37.1196 0.27667 38.3013 0.858267 39.3484C1.53068 40.527 2.50396 41.5059 3.67864 42.1852C4.85333 42.8644 6.18729 43.2196 7.5442 43.2144H42.4293C43.7773 43.2288 45.1053 42.8873 46.2791 42.2245C47.453 41.5617 48.4313 40.601 49.1153 39.4393C49.7139 38.3814 50.0191 37.1827 49.9991 35.9672C49.9791 34.7518 49.6347 33.5637 49.0016 32.526ZM24.9868 34.1179C24.537 34.1179 24.0973 33.9845 23.7233 33.7346C23.3493 33.4847 23.0579 33.1296 22.8857 32.714C22.7136 32.2985 22.6686 31.8412 22.7563 31.4001C22.8441 30.959 23.0607 30.5538 23.3787 30.2357C23.6968 29.9177 24.102 29.7011 24.5431 29.6133C24.9842 29.5256 25.4415 29.5706 25.857 29.7427C26.2726 29.9149 26.6278 30.2063 26.8776 30.5803C27.1275 30.9543 27.2609 31.394 27.2609 31.8438C27.2609 32.4469 27.0213 33.0253 26.5948 33.4518C26.1683 33.8783 25.5899 34.1179 24.9868 34.1179ZM27.2609 25.0214C27.2609 25.6245 27.0213 26.2029 26.5948 26.6294C26.1683 27.0559 25.5899 27.2955 24.9868 27.2955C24.3836 27.2955 23.8052 27.0559 23.3787 26.6294C22.9522 26.2029 22.7126 25.6245 22.7126 25.0214V15.9249C22.7126 15.3217 22.9522 14.7433 23.3787 14.3168C23.8052 13.8903 24.3836 13.6507 24.9868 13.6507C25.5899 13.6507 26.1683 13.8903 26.5948 14.3168C27.0213 14.7433 27.2609 15.3217 27.2609 15.9249V25.0214Z" fill="#BF0000"/>
</svg>
