<svg width="250" height="283" viewBox="0 0 250 283" fill="none" xmlns="http://www.w3.org/2000/svg">
<path d="M36.2886 242.386C34.8884 242.92 33.1851 244.183 33.8636 245.518C34.1648 245.987 34.607 246.348 35.1266 246.55C49.388 254.071 66.0888 255.009 82.1906 255.803L144.981 258.87C154.963 259.354 165.399 259.758 174.464 255.565C177.914 253.844 181.189 251.791 184.243 249.437C188.574 246.319 192.856 243.16 197.09 239.961C198.151 239.167 199.255 238.243 199.493 236.937C199.731 235.435 198.57 233.992 197.169 233.393C195.723 232.899 194.186 232.727 192.666 232.888C178.794 233.369 164.918 233.564 151.036 233.472C142.231 233.422 133.397 233.27 124.657 232.159C110.425 230.347 96.8561 228.406 82.4937 230.21C66.7456 232.18 51.0407 236.72 36.2886 242.386Z" fill="url(#paint0_linear)"/>
<path d="M186.127 41.6149H102.594C95.2038 41.6149 89.213 47.6058 89.213 54.9958V220.395C89.213 227.785 95.2038 233.776 102.594 233.776H186.127C193.517 233.776 199.508 227.785 199.508 220.395V54.9958C199.508 47.6058 193.517 41.6149 186.127 41.6149Z" fill="#3B1283"/>
<path d="M186.127 41.6149H102.594C95.2038 41.6149 89.213 47.6058 89.213 54.9958V220.395C89.213 227.785 95.2038 233.776 102.594 233.776H186.127C193.517 233.776 199.508 227.785 199.508 220.395V54.9958C199.508 47.6058 193.517 41.6149 186.127 41.6149Z" fill="url(#paint1_linear)"/>
<path d="M179.263 41.6149H95.7302C88.3402 41.6149 82.3494 47.6058 82.3494 54.9958V220.395C82.3494 227.785 88.3402 233.776 95.7302 233.776H179.263C186.653 233.776 192.644 227.785 192.644 220.395V54.9958C192.644 47.6058 186.653 41.6149 179.263 41.6149Z" fill="#3B1283"/>
<path d="M184.323 63.6133V205.007C184.323 207.826 183.204 210.529 181.211 212.522C179.219 214.516 176.517 215.637 173.699 215.638H101.814C100.419 215.638 99.0366 215.363 97.7472 214.829C96.4578 214.295 95.2863 213.512 94.2997 212.524C93.3131 211.537 92.5307 210.365 91.9972 209.075C91.4637 207.785 91.1896 206.403 91.1906 205.007V63.6133C91.1896 62.4636 91.4151 61.325 91.8542 60.2625C92.2933 59.2 92.9373 58.2343 93.7496 57.4207C94.5619 56.6071 95.5265 55.9615 96.5882 55.5206C97.65 55.0798 98.7883 54.8524 99.9379 54.8515H175.561C177.884 54.8534 180.111 55.7771 181.754 57.4198C183.397 59.0626 184.321 61.2901 184.323 63.6133V63.6133Z" fill="white"/>
<path d="M184.323 158.044V205.007C184.323 207.826 183.204 210.529 181.211 212.522C179.219 214.516 176.517 215.637 173.699 215.638H110.786V158.044H184.323Z" fill="#3B1283"/>
<path d="M184.315 158.044V205.007C184.313 207.824 183.195 210.525 181.205 212.517C179.214 214.51 176.515 215.633 173.699 215.638H110.786V158.044H184.315Z" fill="url(#paint2_linear)"/>
<path d="M184.315 185.131V205.007C184.32 207.736 183.27 210.36 181.385 212.333H113.073V185.131H184.315Z" fill="url(#paint3_linear)"/>
<path d="M90.1007 54.9453L67.6477 78.9573H167.34L187.347 54.6061L90.1007 54.9453Z" fill="#3B1283"/>
<path d="M102.413 54.8515L82.2989 78.8129L167.521 78.8995H67.6477L68.254 78.3293L76.2868 70.8017L91.1256 54.8442L102.413 54.8515Z" fill="url(#paint4_linear)"/>
<path d="M131.932 54.505L111.955 78.8129L197.177 78.8995H97.3036L97.9099 78.3293L116.913 54.8442L131.932 54.505Z" fill="url(#paint5_linear)"/>
<path d="M160.527 54.505L140.55 78.8129L125.899 78.8995L126.505 78.3293L145.508 54.8442L160.527 54.505Z" fill="url(#paint6_linear)"/>
<path d="M187.491 54.505L167.513 78.8129L152.862 78.8995L153.469 78.3293L172.472 54.8442L187.491 54.505Z" fill="url(#paint7_linear)"/>
<path d="M111.717 78.95H126.014C125.774 80.6757 124.919 82.2565 123.605 83.4006C122.291 84.5447 120.607 85.1749 118.865 85.1749C117.123 85.1749 115.44 84.5447 114.126 83.4006C112.812 82.2565 111.956 80.6757 111.717 78.95V78.95Z" fill="#3B1283"/>
<path d="M97.1954 78.95H111.493C111.253 80.6757 110.398 82.2565 109.084 83.4006C107.77 84.5447 106.086 85.1749 104.344 85.1749C102.602 85.1749 100.918 84.5447 99.6045 83.4006C98.2906 82.2565 97.4349 80.6757 97.1954 78.95V78.95Z" fill="#3B1283"/>
<path d="M155.02 78.8634C154.796 80.5959 153.951 82.1884 152.643 83.3454C151.334 84.5023 149.65 85.1453 147.903 85.155C146.156 85.1647 144.465 84.5405 143.143 83.3981C141.821 82.2557 140.959 80.6727 140.716 78.9428H154.934L155.02 78.8634Z" fill="#3B1283"/>
<path d="M167.449 78.8634C167.102 82.4721 164.446 85.2652 161.227 85.2652C158.008 85.2652 155.388 82.5009 155.013 78.9428H167.398L167.449 78.8634Z" fill="#3B1283"/>
<path d="M82.7608 78.95H97.0582C96.8186 80.6757 95.9629 82.2565 94.649 83.4006C93.3351 84.5447 91.6517 85.1749 89.9095 85.1749C88.1673 85.1749 86.4839 84.5447 85.17 83.4006C83.856 82.2565 83.0003 80.6757 82.7608 78.95V78.95Z" fill="#3B1283"/>
<path d="M126.216 78.95H140.499C140.26 80.6757 139.404 82.2565 138.09 83.4006C136.776 84.5447 135.093 85.1749 133.35 85.1749C131.608 85.1749 129.925 84.5447 128.611 83.4006C127.297 82.2565 126.441 80.6757 126.202 78.95H126.216Z" fill="#3B1283"/>
<path d="M68.2251 78.95H82.5226C82.283 80.6757 81.4273 82.2565 80.1134 83.4006C78.7995 84.5447 77.1161 85.1749 75.3738 85.1749C73.6316 85.1749 71.9482 84.5447 70.6343 83.4006C69.3204 82.2565 68.4647 80.6757 68.2251 78.95V78.95Z" fill="#3B1283"/>
<path d="M111.717 78.95H126.014C125.774 80.6757 124.919 82.2565 123.605 83.4006C122.291 84.5447 120.607 85.1749 118.865 85.1749C117.123 85.1749 115.44 84.5447 114.126 83.4006C112.812 82.2565 111.956 80.6757 111.717 78.95V78.95Z" fill="url(#paint8_linear)"/>
<path d="M97.1954 78.95H111.493C111.253 80.6757 110.398 82.2565 109.084 83.4006C107.77 84.5447 106.086 85.1749 104.344 85.1749C102.602 85.1749 100.918 84.5447 99.6045 83.4006C98.2906 82.2565 97.4349 80.6757 97.1954 78.95V78.95Z" fill="url(#paint9_linear)"/>
<path d="M155.013 78.95C154.789 80.6825 153.944 82.275 152.635 83.432C151.326 84.5889 149.642 85.2319 147.895 85.2416C146.149 85.2513 144.457 84.6271 143.136 83.4847C141.814 82.3423 140.952 80.7593 140.708 79.0294H154.934L155.013 78.95Z" fill="url(#paint10_linear)"/>
<path d="M167.405 78.9067C167.066 82.5154 164.417 85.3157 161.206 85.3157C157.994 85.3157 155.388 82.5442 155.013 78.9933H167.355L167.405 78.9067Z" fill="url(#paint11_linear)"/>
<path d="M82.7608 78.95H97.0582C96.8186 80.6757 95.9629 82.2565 94.649 83.4006C93.3351 84.5447 91.6517 85.1749 89.9095 85.1749C88.1673 85.1749 86.4839 84.5447 85.17 83.4006C83.856 82.2565 83.0003 80.6757 82.7608 78.95V78.95Z" fill="url(#paint12_linear)"/>
<path d="M126.216 78.95H140.499C140.26 80.6757 139.404 82.2565 138.09 83.4006C136.776 84.5447 135.093 85.1749 133.35 85.1749C131.608 85.1749 129.925 84.5447 128.611 83.4006C127.297 82.2565 126.441 80.6757 126.202 78.95H126.216Z" fill="url(#paint13_linear)"/>
<path d="M68.2251 78.95H82.5226C82.283 80.6757 81.4273 82.2565 80.1134 83.4006C78.7995 84.5447 77.1161 85.1749 75.3738 85.1749C73.6316 85.1749 71.9482 84.5447 70.6343 83.4006C69.3204 82.2565 68.4647 80.6757 68.2251 78.95V78.95Z" fill="url(#paint14_linear)"/>
<path d="M82.5154 78.95L102.276 55.0247L116.913 54.8442L97.0149 78.95H82.5154Z" fill="url(#paint15_linear)"/>
<path d="M111.587 78.95L131.348 55.0247L145.089 54.7143L126.086 78.95H111.587Z" fill="url(#paint16_linear)"/>
<path d="M140.658 78.95L160.412 55.0247L174.161 54.7143L155.15 78.95H140.658Z" fill="url(#paint17_linear)"/>
<path d="M167.355 78.9933L186.524 75.197L187.563 54.505L167.355 78.9933Z" fill="#3B1283"/>
<path d="M167.513 78.7912L186.683 74.9949L187.729 54.303L167.513 78.7912Z" fill="url(#paint18_linear)"/>
<path d="M141.012 220.135H125.653C123.397 220.135 121.568 221.964 121.568 224.22C121.568 226.476 123.397 228.305 125.653 228.305H141.012C143.268 228.305 145.097 226.476 145.097 224.22C145.097 221.964 143.268 220.135 141.012 220.135Z" fill="url(#paint19_linear)"/>
<path d="M85.0775 136.241C95.5567 136.241 104.052 127.746 104.052 117.267C104.052 106.787 95.5567 98.2924 85.0775 98.2924C74.5983 98.2924 66.1032 106.787 66.1032 117.267C66.1032 127.746 74.5983 136.241 85.0775 136.241Z" fill="#3B1283"/>
<path d="M81.707 136.241C92.1862 136.241 100.681 127.746 100.681 117.267C100.681 106.787 92.1862 98.2924 81.707 98.2924C71.2278 98.2924 62.7328 106.787 62.7328 117.267C62.7328 127.746 71.2278 136.241 81.707 136.241Z" fill="url(#paint20_linear)"/>
<path d="M63.3029 174.348C72.5823 174.348 80.1048 166.826 80.1048 157.546C80.1048 148.267 72.5823 140.745 63.3029 140.745C54.0235 140.745 46.5011 148.267 46.5011 157.546C46.5011 166.826 54.0235 174.348 63.3029 174.348Z" fill="#3B1283"/>
<path d="M60.315 174.348C69.5944 174.348 77.1168 166.826 77.1168 157.546C77.1168 148.267 69.5944 140.745 60.315 140.745C51.0355 140.745 43.5131 148.267 43.5131 157.546C43.5131 166.826 51.0355 174.348 60.315 174.348Z" fill="url(#paint21_linear)"/>
<path d="M143.451 137.172C141.098 139.698 139.734 142.946 138.399 146.15L134.639 155.259C134.517 155.466 134.443 155.698 134.422 155.938C134.401 156.177 134.433 156.419 134.516 156.644C134.659 156.825 134.839 156.973 135.045 157.076C135.251 157.18 135.477 157.237 135.707 157.243C137.621 157.533 139.548 157.725 141.481 157.821C151.243 158.427 161.023 158.651 170.819 158.492C171.993 158.554 173.167 158.354 174.254 157.907C176.954 156.543 177.141 152.79 176.687 149.809C176.142 146.336 175.172 142.942 173.8 139.705C173.318 138.422 172.609 137.236 171.707 136.205C169.469 133.859 165.933 133.484 162.678 133.39C156.5 133.239 148.085 132.185 143.451 137.172Z" fill="#FFD200"/>
<path d="M136.27 135.086C136.208 134.756 136.027 134.459 135.761 134.254C135.494 134.049 135.162 133.95 134.826 133.975C133.976 133.937 133.124 133.969 132.279 134.069C131.735 134.083 131.212 134.279 130.792 134.624C130.488 134.992 130.3 135.442 130.251 135.916C129.565 139.633 130.359 143.444 130.662 147.211C130.871 149.781 130.893 152.509 132.279 154.674C132.905 155.632 133.762 156.417 134.771 156.958C135.78 157.499 136.908 157.778 138.052 157.77C139.02 157.77 140.117 157.417 140.485 156.529C140.634 156.08 140.676 155.603 140.607 155.136C140.109 148.373 139.135 141.307 136.27 135.086Z" fill="#FFD200"/>
<path d="M135.779 131.773C136.234 130.792 136.854 129.897 137.396 128.959C137.55 128.723 137.651 128.457 137.692 128.179C137.709 128.035 137.682 127.889 137.615 127.76C137.548 127.632 137.444 127.526 137.316 127.457C136.775 127.248 136.342 127.999 135.779 128.114C135.216 128.23 134.812 127.782 134.444 127.393C132.839 125.794 130.942 124.518 128.858 123.632C128.75 123.568 128.631 123.526 128.507 123.508C128.383 123.491 128.257 123.499 128.136 123.531C127.912 123.632 127.847 124.029 128.078 124.101C127.855 124.119 127.632 124.063 127.443 123.943C127.241 123.856 126.945 123.849 126.851 124.051C126.757 124.253 127.032 124.549 126.959 124.773C126.714 124.779 126.469 124.739 126.238 124.657C125.992 124.614 125.668 124.657 125.624 124.939C125.606 125.032 125.606 125.127 125.624 125.22C125.657 125.597 125.657 125.976 125.624 126.353C125.738 127.36 126.158 128.308 126.83 129.067C128.168 130.732 129.374 132.498 130.438 134.35C130.694 134.955 131.036 135.519 131.456 136.024C132.048 136.66 134.242 137.562 134.819 136.457C135.093 135.938 134.87 134.797 134.971 134.191C135.133 133.353 135.405 132.54 135.779 131.773V131.773Z" fill="url(#paint22_linear)"/>
<path d="M165.558 147.016C165.699 147.474 165.738 147.956 165.672 148.43C165.606 148.904 165.436 149.358 165.175 149.759C164.547 150.524 163.45 150.676 162.461 150.726C157.647 150.979 152.732 150.149 148.027 151.246C147.351 151.332 146.727 151.654 146.266 152.155C145.863 152.867 145.747 153.706 145.941 154.501L146.345 157.943L141.654 157.092C141.478 157.068 141.309 157.009 141.156 156.918C140.934 156.704 140.802 156.412 140.788 156.103C140.403 154.308 140.236 152.474 140.29 150.639C140.353 148.789 141.08 147.024 142.34 145.667C143.533 144.607 144.972 143.863 146.526 143.502C150.134 142.462 153.931 142.159 157.691 141.856C159.315 141.726 162.021 141.365 163.414 142.469C164.576 143.408 165.269 145.638 165.558 147.016Z" fill="url(#paint23_linear)"/>
<path d="M145.696 122.167C145.566 123.346 145.608 124.537 145.818 125.704C146.073 126.727 146.568 127.676 147.262 128.47C147.956 129.265 148.829 129.883 149.809 130.272C151.253 130.842 152.963 130.994 153.952 132.17C154.941 133.347 154.89 134.913 155.908 135.895C156.436 136.336 157.096 136.591 157.784 136.618C158.472 136.646 159.15 136.444 159.712 136.046C160.82 135.209 161.563 133.975 161.783 132.603C161.989 131.245 162.069 129.87 162.021 128.497C162.043 126.665 162.195 124.837 162.476 123.026C162.721 121.766 162.873 120.49 162.93 119.208C162.919 117.725 162.632 116.257 162.086 114.878C160.866 111.666 158.355 108.772 155.028 107.92C153.506 107.544 151.905 107.664 150.456 108.261C149.008 108.858 147.788 109.902 146.973 111.24C146.136 112.59 146.215 113.961 146.114 115.571C145.979 117.76 145.84 119.959 145.696 122.167Z" fill="url(#paint24_linear)"/>
<path d="M144.75 103.698C144.151 103.453 143.343 103.229 142.96 103.749C142.829 103.966 142.766 104.217 142.78 104.47C142.769 105.385 143.075 106.275 143.646 106.989C143.048 106.947 142.455 107.124 141.979 107.487C141.307 108.151 141.639 109.32 142.231 110.049C142.823 110.778 143.639 111.37 143.992 112.215C144.18 112.669 144.223 113.174 144.404 113.658C144.473 113.895 144.608 114.108 144.793 114.271C144.978 114.435 145.206 114.543 145.45 114.582C146.1 114.582 146.511 113.932 146.894 113.391C147.914 112.003 149.427 111.058 151.122 110.751C152.818 110.443 154.566 110.797 156.009 111.738C158.795 113.716 159.567 117.447 160.123 120.818C160.404 121.02 160.57 120.478 160.679 120.154C160.924 119.432 162.05 119.497 162.454 120.11C162.622 120.438 162.696 120.805 162.668 121.172C162.64 121.539 162.511 121.891 162.295 122.189C161.906 122.81 161.335 123.3 160.91 123.899C160.785 124.04 160.72 124.224 160.729 124.412C160.767 124.569 160.856 124.708 160.982 124.809C161.327 125.153 161.694 125.476 162.079 125.776C162.22 125.917 162.389 126.026 162.576 126.096C162.763 126.166 162.963 126.195 163.161 126.18C163.433 126.102 163.671 125.937 163.84 125.711C165.283 124.094 165.846 121.85 166.157 119.692C166.467 117.534 166.445 115.101 164.771 113.802C164.439 113.55 164.049 113.362 163.746 113.081C163.205 112.545 162.761 111.92 162.433 111.233C160.631 108.202 157.855 105.872 154.558 104.622C153.074 103.926 151.413 103.694 149.795 103.958C148.134 104.454 146.352 104.362 144.75 103.698V103.698Z" fill="#B7A451"/>
<path d="M136.097 156.572C135.844 156.89 135.613 157.373 135.894 157.662C135.993 157.732 136.104 157.781 136.222 157.807C136.34 157.833 136.462 157.835 136.58 157.813L145.198 157.301C145.338 157.302 145.477 157.278 145.609 157.229C146.042 157.034 146.071 156.449 146.042 155.973L145.89 153.75C145.84 152.949 146.006 152.704 145.226 152.595C144.054 152.543 142.882 152.707 141.769 153.079C139.566 153.636 137.586 154.855 136.097 156.572V156.572Z" fill="url(#paint25_linear)"/>
<path d="M184.315 160.628H113.045V181.76H184.315V160.628Z" fill="url(#paint26_linear)"/>
<path d="M92.4103 128.201H74.201L77.29 111.731H89.7688L92.4103 128.201Z" fill="white"/>
<path d="M87.6396 113.189H79.8305V112.467C79.8305 111.432 80.2419 110.438 80.9742 109.706C81.7064 108.974 82.6995 108.563 83.7351 108.563C84.7707 108.563 85.7638 108.974 86.496 109.706C87.2283 110.438 87.6396 111.432 87.6396 112.467V113.189ZM81.3173 111.782H86.124C85.9718 111.262 85.6553 110.806 85.2221 110.481C84.7888 110.157 84.262 109.981 83.7207 109.981C83.1793 109.981 82.6525 110.157 82.2193 110.481C81.786 110.806 81.4695 111.262 81.3173 111.782Z" fill="white"/>
<path d="M131.708 166.647H118.046V181.486H131.708V166.647Z" fill="#3B1283"/>
<path d="M131.708 166.647H118.046V181.486H131.708V166.647Z" fill="url(#paint27_linear)"/>
<path d="M149.355 173.078H135.692V181.486H149.355V173.078Z" fill="url(#paint28_linear)"/>
<path d="M129.767 166.647H116.105V181.486H129.767V166.647Z" fill="#3B1283"/>
<path d="M146.591 173.922H135.974V181.652H146.591V173.922Z" fill="#3B1283"/>
<path d="M131.405 196.65H117.743V211.488H131.405V196.65Z" fill="#3B1283"/>
<path d="M146.287 203.925H135.671V211.654H146.287V203.925Z" fill="#3B1283"/>
<path d="M159.329 181.652C161.984 181.652 164.136 179.5 164.136 176.845C164.136 174.191 161.984 172.039 159.329 172.039C156.674 172.039 154.522 174.191 154.522 176.845C154.522 179.5 156.674 181.652 159.329 181.652Z" fill="url(#paint29_linear)"/>
<path d="M157.561 181.652C160.216 181.652 162.368 179.5 162.368 176.845C162.368 174.191 160.216 172.039 157.561 172.039C154.906 172.039 152.754 174.191 152.754 176.845C152.754 179.5 154.906 181.652 157.561 181.652Z" fill="#3B1283"/>
<path d="M154.948 211.784C157.603 211.784 159.755 209.632 159.755 206.978C159.755 204.323 157.603 202.171 154.948 202.171C152.293 202.171 150.141 204.323 150.141 206.978C150.141 209.632 152.293 211.784 154.948 211.784Z" fill="url(#paint30_linear)"/>
<path d="M153.173 211.784C155.827 211.784 157.979 209.632 157.979 206.978C157.979 204.323 155.827 202.171 153.173 202.171C150.518 202.171 148.366 204.323 148.366 206.978C148.366 209.632 150.518 211.784 153.173 211.784Z" fill="#3B1283"/>
<path d="M174.536 181.652C178.075 181.652 180.945 178.783 180.945 175.243C180.945 171.704 178.075 168.834 174.536 168.834C170.996 168.834 168.127 171.704 168.127 175.243C168.127 178.783 170.996 181.652 174.536 181.652Z" fill="url(#paint31_linear)"/>
<path d="M172.176 181.652C175.715 181.652 178.585 178.783 178.585 175.243C178.585 171.704 175.715 168.834 172.176 168.834C168.636 168.834 165.767 171.704 165.767 175.243C165.767 178.783 168.636 181.652 172.176 181.652Z" fill="#3B1283"/>
<path d="M168.466 211.561C172.006 211.561 174.875 208.691 174.875 205.152C174.875 201.612 172.006 198.743 168.466 198.743C164.927 198.743 162.057 201.612 162.057 205.152C162.057 208.691 164.927 211.561 168.466 211.561Z" fill="url(#paint32_linear)"/>
<path d="M166.106 211.561C169.646 211.561 172.515 208.691 172.515 205.152C172.515 201.612 169.646 198.743 166.106 198.743C162.567 198.743 159.697 201.612 159.697 205.152C159.697 208.691 162.567 211.561 166.106 211.561Z" fill="#3B1283"/>
<defs>
<linearGradient id="paint0_linear" x1="119.814" y1="192.247" x2="114.25" y2="276.228" gradientUnits="userSpaceOnUse">
<stop offset="0.01"/>
<stop offset="0.13" stop-opacity="0.69"/>
<stop offset="1" stop-opacity="0"/>
</linearGradient>
<linearGradient id="paint1_linear" x1="18159.9" y1="36986.4" x2="43133.9" y2="36405.3" gradientUnits="userSpaceOnUse">
<stop offset="0.01"/>
<stop offset="0.13" stop-opacity="0.69"/>
<stop offset="1" stop-opacity="0"/>
</linearGradient>
<linearGradient id="paint2_linear" x1="18024.1" y1="19944.5" x2="17748.3" y2="10316.7" gradientUnits="userSpaceOnUse">
<stop offset="0.01"/>
<stop offset="0.13" stop-opacity="0.69"/>
<stop offset="1" stop-opacity="0"/>
</linearGradient>
<linearGradient id="paint3_linear" x1="17068.7" y1="6908.38" x2="17218.2" y2="10061.2" gradientUnits="userSpaceOnUse">
<stop offset="0.01"/>
<stop offset="0.13" stop-opacity="0.69"/>
<stop offset="1" stop-opacity="0"/>
</linearGradient>
<linearGradient id="paint4_linear" x1="16665.5" y1="1679.78" x2="16632.1" y2="3449.59" gradientUnits="userSpaceOnUse">
<stop offset="0.01"/>
<stop offset="0.13" stop-opacity="0.69"/>
<stop offset="1" stop-opacity="0"/>
</linearGradient>
<linearGradient id="paint5_linear" x1="20804" y1="1687.96" x2="20769.1" y2="3505.06" gradientUnits="userSpaceOnUse">
<stop offset="0.01"/>
<stop offset="0.13" stop-opacity="0.69"/>
<stop offset="1" stop-opacity="0"/>
</linearGradient>
<linearGradient id="paint6_linear" x1="7076.2" y1="1599.65" x2="6976.22" y2="3411.87" gradientUnits="userSpaceOnUse">
<stop offset="0.01"/>
<stop offset="0.13" stop-opacity="0.69"/>
<stop offset="1" stop-opacity="0"/>
</linearGradient>
<linearGradient id="paint7_linear" x1="8396.89" y1="1599.65" x2="8296.74" y2="3411.89" gradientUnits="userSpaceOnUse">
<stop offset="0.01"/>
<stop offset="0.13" stop-opacity="0.69"/>
<stop offset="1" stop-opacity="0"/>
</linearGradient>
<linearGradient id="paint8_linear" x1="116.646" y1="58.5251" x2="121.893" y2="106.794" gradientUnits="userSpaceOnUse">
<stop offset="0.02" stop-color="white" stop-opacity="0"/>
<stop offset="0.32" stop-color="white" stop-opacity="0.39"/>
<stop offset="0.68" stop-color="white" stop-opacity="0.68"/>
<stop offset="1" stop-color="white"/>
</linearGradient>
<linearGradient id="paint9_linear" x1="2643.57" y1="639.06" x2="2663.47" y2="1059.35" gradientUnits="userSpaceOnUse">
<stop offset="0.01"/>
<stop offset="0.13" stop-opacity="0.69"/>
<stop offset="1" stop-opacity="0"/>
</linearGradient>
<linearGradient id="paint10_linear" x1="3540.36" y1="604.999" x2="3560.67" y2="1029.85" gradientUnits="userSpaceOnUse">
<stop offset="0.02" stop-color="white" stop-opacity="0"/>
<stop offset="0.32" stop-color="white" stop-opacity="0.39"/>
<stop offset="0.68" stop-color="white" stop-opacity="0.68"/>
<stop offset="1" stop-color="white"/>
</linearGradient>
<linearGradient id="paint11_linear" x1="3330.24" y1="618.541" x2="3354.15" y2="1044.01" gradientUnits="userSpaceOnUse">
<stop offset="0.01"/>
<stop offset="0.13" stop-opacity="0.69"/>
<stop offset="1" stop-opacity="0"/>
</linearGradient>
<linearGradient id="paint12_linear" x1="2345.19" y1="652.444" x2="2365.08" y2="1072.8" gradientUnits="userSpaceOnUse">
<stop offset="0.02" stop-color="white" stop-opacity="0"/>
<stop offset="0.32" stop-color="white" stop-opacity="0.39"/>
<stop offset="0.68" stop-color="white" stop-opacity="0.68"/>
<stop offset="1" stop-color="white"/>
</linearGradient>
<linearGradient id="paint13_linear" x1="3240.33" y1="612.169" x2="3260.22" y2="1032.46" gradientUnits="userSpaceOnUse">
<stop offset="0.01"/>
<stop offset="0.13" stop-opacity="0.69"/>
<stop offset="1" stop-opacity="0"/>
</linearGradient>
<linearGradient id="paint14_linear" x1="2046.85" y1="665.889" x2="2066.74" y2="1086.25" gradientUnits="userSpaceOnUse">
<stop offset="0.01"/>
<stop offset="0.13" stop-opacity="0.69"/>
<stop offset="1" stop-opacity="0"/>
</linearGradient>
<linearGradient id="paint15_linear" x1="4015.2" y1="2289.21" x2="5654.59" y2="2289.21" gradientUnits="userSpaceOnUse">
<stop offset="0.02" stop-color="white" stop-opacity="0"/>
<stop offset="0.32" stop-color="white" stop-opacity="0.39"/>
<stop offset="0.68" stop-color="white" stop-opacity="0.68"/>
<stop offset="1" stop-color="white"/>
</linearGradient>
<linearGradient id="paint16_linear" x1="5291.44" y1="2298.94" x2="6846.63" y2="2298.94" gradientUnits="userSpaceOnUse">
<stop offset="0.02" stop-color="white" stop-opacity="0"/>
<stop offset="0.32" stop-color="white" stop-opacity="0.39"/>
<stop offset="0.68" stop-color="white" stop-opacity="0.68"/>
<stop offset="1" stop-color="white"/>
</linearGradient>
<linearGradient id="paint17_linear" x1="6670" y1="2298.94" x2="8225.19" y2="2298.94" gradientUnits="userSpaceOnUse">
<stop offset="0.02" stop-color="white" stop-opacity="0"/>
<stop offset="0.32" stop-color="white" stop-opacity="0.39"/>
<stop offset="0.68" stop-color="white" stop-opacity="0.68"/>
<stop offset="1" stop-color="white"/>
</linearGradient>
<linearGradient id="paint18_linear" x1="5742.79" y1="2667.94" x2="4606.5" y2="2208.97" gradientUnits="userSpaceOnUse">
<stop offset="0.01"/>
<stop offset="0.13" stop-opacity="0.69"/>
<stop offset="1" stop-opacity="0"/>
</linearGradient>
<linearGradient id="paint19_linear" x1="4433.85" y1="2559.2" x2="4442.87" y2="2993.4" gradientUnits="userSpaceOnUse">
<stop offset="0.01"/>
<stop offset="0.13" stop-opacity="0.69"/>
<stop offset="1" stop-opacity="0"/>
</linearGradient>
<linearGradient id="paint20_linear" x1="3361.22" y1="6264.17" x2="5356.18" y2="6264.17" gradientUnits="userSpaceOnUse">
<stop offset="0.02" stop-color="white" stop-opacity="0"/>
<stop offset="0.32" stop-color="white" stop-opacity="0.39"/>
<stop offset="0.68" stop-color="white" stop-opacity="0.68"/>
<stop offset="1" stop-color="white"/>
</linearGradient>
<linearGradient id="paint21_linear" x1="2069.48" y1="7476.11" x2="3634.07" y2="7476.11" gradientUnits="userSpaceOnUse">
<stop offset="0.02" stop-color="white" stop-opacity="0"/>
<stop offset="0.32" stop-color="white" stop-opacity="0.39"/>
<stop offset="0.68" stop-color="white" stop-opacity="0.68"/>
<stop offset="1" stop-color="white"/>
</linearGradient>
<linearGradient id="paint22_linear" x1="125.61" y1="130.294" x2="137.692" y2="130.294" gradientUnits="userSpaceOnUse">
<stop stop-color="#E5C5D5"/>
<stop offset="0.42" stop-color="#EAD4D1"/>
<stop offset="1" stop-color="#F0E9CB"/>
</linearGradient>
<linearGradient id="paint23_linear" x1="150.141" y1="139.994" x2="160.91" y2="180.967" gradientUnits="userSpaceOnUse">
<stop stop-opacity="0"/>
<stop offset="0.99"/>
</linearGradient>
<linearGradient id="paint24_linear" x1="10144.4" y1="-19567.4" x2="10571.9" y2="-19739.2" gradientUnits="userSpaceOnUse">
<stop stop-color="#E5C5D5"/>
<stop offset="0.42" stop-color="#EAD4D1"/>
<stop offset="1" stop-color="#F0E9CB"/>
</linearGradient>
<linearGradient id="paint25_linear" x1="2444.01" y1="1315.15" x2="2590.56" y2="1315.15" gradientUnits="userSpaceOnUse">
<stop stop-color="#E5C5D5"/>
<stop offset="0.42" stop-color="#EAD4D1"/>
<stop offset="1" stop-color="#F0E9CB"/>
</linearGradient>
<linearGradient id="paint26_linear" x1="14537.5" y1="4557.62" x2="14613.3" y2="6617.56" gradientUnits="userSpaceOnUse">
<stop offset="0.01"/>
<stop offset="0.13" stop-opacity="0.69"/>
<stop offset="1" stop-opacity="0"/>
</linearGradient>
<linearGradient id="paint27_linear" x1="2623.58" y1="3704.8" x2="2165.72" y2="3816.1" gradientUnits="userSpaceOnUse">
<stop offset="0.01"/>
<stop offset="0.13" stop-opacity="0.69"/>
<stop offset="1" stop-opacity="0"/>
</linearGradient>
<linearGradient id="paint28_linear" x1="2961.61" y1="2217.6" x2="2591.67" y2="2376.26" gradientUnits="userSpaceOnUse">
<stop offset="0.01"/>
<stop offset="0.13" stop-opacity="0.69"/>
<stop offset="1" stop-opacity="0"/>
</linearGradient>
<linearGradient id="paint29_linear" x1="2308.03" y1="2447.64" x2="2208.72" y2="2702.01" gradientUnits="userSpaceOnUse">
<stop offset="0.01"/>
<stop offset="0.13" stop-opacity="0.69"/>
<stop offset="1" stop-opacity="0"/>
</linearGradient>
<linearGradient id="paint30_linear" x1="2245.3" y1="2879.13" x2="2145.89" y2="3133.5" gradientUnits="userSpaceOnUse">
<stop offset="0.01"/>
<stop offset="0.13" stop-opacity="0.69"/>
<stop offset="1" stop-opacity="0"/>
</linearGradient>
<linearGradient id="paint31_linear" x1="3323.39" y1="3139.01" x2="3146.76" y2="3591.22" gradientUnits="userSpaceOnUse">
<stop offset="0.01"/>
<stop offset="0.13" stop-opacity="0.69"/>
<stop offset="1" stop-opacity="0"/>
</linearGradient>
<linearGradient id="paint32_linear" x1="3209.52" y1="3699.96" x2="3032.89" y2="4152.18" gradientUnits="userSpaceOnUse">
<stop offset="0.01"/>
<stop offset="0.13" stop-opacity="0.69"/>
<stop offset="1" stop-opacity="0"/>
</linearGradient>
</defs>
</svg>
