<svg width="30" height="30" viewBox="0 0 30 30" fill="none" xmlns="http://www.w3.org/2000/svg">
<circle cx="15" cy="15" r="15" fill="#1C1C1C"/>
<path d="M25.6 14.22L21 10.52V8C21.0245 7.49494 20.8477 7.00078 20.5084 6.62587C20.1691 6.25095 19.695 6.02588 19.19 6H7.79C7.28857 6.03096 6.81953 6.25823 6.48448 6.63258C6.14944 7.00693 5.97537 7.49822 6 8V18C5.99072 18.3971 6.0999 18.788 6.31361 19.1228C6.52733 19.4576 6.8359 19.7212 7.2 19.88C7.01584 20.3305 6.94406 20.8191 6.99087 21.3036C7.03768 21.7881 7.20166 22.2539 7.46867 22.6609C7.73569 23.0678 8.09771 23.4037 8.5235 23.6395C8.9493 23.8753 9.42607 24.004 9.91269 24.0144C10.3993 24.0249 10.8812 23.9167 11.3167 23.6994C11.7522 23.482 12.1283 23.1619 12.4125 22.7668C12.6967 22.3717 12.8804 21.9133 12.948 21.4313C13.0155 20.9492 12.9647 20.458 12.8 20H19.16C18.9955 20.4531 18.9427 20.9392 19.0059 21.4171C19.0692 21.895 19.2466 22.3506 19.5233 22.7454C19.8 23.1401 20.1677 23.4624 20.5954 23.6849C21.023 23.9074 21.4979 24.0235 21.98 24.0235C22.4621 24.0235 22.937 23.9074 23.3646 23.6849C23.7923 23.4624 24.16 23.1401 24.4367 22.7454C24.7134 22.3506 24.8908 21.895 24.9541 21.4171C25.0173 20.9392 24.9645 20.4531 24.8 20H25C25.2652 20 25.5196 19.8946 25.7071 19.7071C25.8946 19.5196 26 19.2652 26 19V15C25.9969 14.8481 25.9593 14.699 25.89 14.5638C25.8207 14.4287 25.7215 14.3111 25.6 14.22ZM24 15.48V18H21V13.08L24 15.48ZM11 21C11 21.1978 10.9414 21.3911 10.8315 21.5556C10.7216 21.72 10.5654 21.8482 10.3827 21.9239C10.2 21.9996 9.99889 22.0194 9.80491 21.9808C9.61093 21.9422 9.43275 21.847 9.2929 21.7071C9.15304 21.5673 9.0578 21.3891 9.01922 21.1951C8.98063 21.0011 9.00043 20.8 9.07612 20.6173C9.15181 20.4346 9.27998 20.2784 9.44443 20.1685C9.60888 20.0586 9.80222 20 10 20C10.2652 20 10.5196 20.1054 10.7071 20.2929C10.8946 20.4804 11 20.7348 11 21ZM23 21C23 21.1978 22.9414 21.3911 22.8315 21.5556C22.7216 21.72 22.5654 21.8482 22.3827 21.9239C22.2 21.9996 21.9989 22.0194 21.8049 21.9808C21.6109 21.9422 21.4327 21.847 21.2929 21.7071C21.153 21.5673 21.0578 21.3891 21.0192 21.1951C20.9806 21.0011 21.0004 20.8 21.0761 20.6173C21.1518 20.4346 21.28 20.2784 21.4444 20.1685C21.6089 20.0586 21.8022 20 22 20C22.2652 20 22.5196 20.1054 22.7071 20.2929C22.8946 20.4804 23 20.7348 23 21Z" fill="white"/>
</svg>
