<svg width="55" height="45" viewBox="0 0 55 45" fill="none" xmlns="http://www.w3.org/2000/svg">
<rect width="55" height="45" rx="10" fill="#1DA1F2"/>
<path d="M41 15.4126C40.0806 15.8092 39.0802 16.0946 38.0496 16.2058C39.1196 15.5701 39.9208 14.5659 40.303 13.3816C39.299 13.9788 38.1991 14.3976 37.0522 14.6194C36.5728 14.1069 35.993 13.6987 35.3489 13.4201C34.7049 13.1414 34.0104 12.9985 33.3086 13C30.4694 13 28.186 15.3014 28.186 18.1256C28.186 18.5222 28.2341 18.9188 28.3122 19.3003C24.0609 19.078 20.2693 17.047 17.7486 13.9374C17.2893 14.7219 17.0486 15.6152 17.0516 16.5242C17.0516 18.3029 17.9559 19.8712 19.3349 20.7935C18.5222 20.7615 17.7286 20.5382 17.0185 20.1416V20.2047C17.0185 22.6954 18.7791 24.7594 21.1256 25.2341C20.685 25.3486 20.2318 25.4071 19.7766 25.4084C19.4431 25.4084 19.1276 25.3753 18.8092 25.3303C19.4581 27.3613 21.3479 28.8365 23.5982 28.8845C21.8376 30.2636 19.6324 31.0748 17.2378 31.0748C16.8082 31.0748 16.4116 31.0597 16 31.0117C18.2714 32.4688 20.9664 33.3101 23.8686 33.3101C33.2906 33.3101 38.4462 25.5045 38.4462 18.7295C38.4462 18.5072 38.4462 18.2848 38.4312 18.0625C39.4287 17.3324 40.303 16.4281 41 15.4126Z" fill="white"/>
</svg>
