<svg width="70" height="70" viewBox="0 0 70 70" fill="none" xmlns="http://www.w3.org/2000/svg">
<ellipse cx="34.9155" cy="35" rx="34.9155" ry="35" fill="white"/>
<path d="M53.3886 47.4597C52.3876 44.883 50.9351 42.5425 49.1118 40.5686C47.294 38.589 45.1407 37.0107 42.7708 35.9208C42.7496 35.9092 42.7283 35.9035 42.7071 35.8919C46.0129 33.297 48.1619 29.0701 48.1619 24.3011C48.1619 16.4009 42.272 10 35.0024 10C27.7328 10 21.8429 16.4009 21.8429 24.3011C21.8429 29.0701 23.9919 33.297 27.2977 35.8977C27.2765 35.9092 27.2553 35.915 27.234 35.9265C24.8568 37.0164 22.7237 38.5792 20.8931 40.5744C19.0715 42.5498 17.6191 44.8899 16.6162 47.4654C15.6309 49.9869 15.0996 52.6902 15.0509 55.4291C15.0494 55.4906 15.0594 55.5519 15.0801 55.6092C15.1008 55.6665 15.1318 55.7187 15.1714 55.7628C15.2109 55.8068 15.2582 55.8419 15.3104 55.8658C15.3626 55.8897 15.4187 55.902 15.4754 55.9019H18.6591C18.8926 55.9019 19.0783 55.7001 19.0836 55.4522C19.1897 51.0004 20.8347 46.8311 23.7425 43.671C26.7512 40.4014 30.7468 38.6022 35.0024 38.6022C39.258 38.6022 43.2537 40.4014 46.2623 43.671C49.1701 46.8311 50.8151 51.0004 50.9212 55.4522C50.9265 55.7059 51.1122 55.9019 51.3457 55.9019H54.5295C54.5861 55.902 54.6422 55.8897 54.6944 55.8658C54.7466 55.8419 54.7939 55.8068 54.8335 55.7628C54.873 55.7187 54.9041 55.6665 54.9248 55.6092C54.9454 55.5519 54.9554 55.4906 54.954 55.4291C54.9009 52.6727 54.3756 49.9912 53.3886 47.4597ZM35.0024 34.2196C32.5668 34.2196 30.2745 33.1874 28.55 31.3133C26.8255 29.4391 25.8756 26.948 25.8756 24.3011C25.8756 21.6543 26.8255 19.1631 28.55 17.289C30.2745 15.4148 32.5668 14.3826 35.0024 14.3826C37.438 14.3826 39.7303 15.4148 41.4548 17.289C43.1794 19.1631 44.1292 21.6543 44.1292 24.3011C44.1292 26.948 43.1794 29.4391 41.4548 31.3133C39.7303 33.1874 37.438 34.2196 35.0024 34.2196Z" fill="#3B1283"/>
</svg>
