<svg width="71" height="70" viewBox="0 0 71 70" fill="none" xmlns="http://www.w3.org/2000/svg">
<ellipse cx="35.8647" cy="35" rx="34.9155" ry="35" fill="#3B1283"/>
<path d="M54.3379 47.4597C53.3369 44.883 51.8843 42.5425 50.0611 40.5686C48.2433 38.589 46.09 37.0107 43.7201 35.9208C43.6988 35.9092 43.6776 35.9035 43.6564 35.8919C46.9622 33.297 49.1112 29.0701 49.1112 24.3011C49.1112 16.4009 43.2213 10 35.9517 10C28.6821 10 22.7922 16.4009 22.7922 24.3011C22.7922 29.0701 24.9412 33.297 28.247 35.8977C28.2258 35.9092 28.2045 35.915 28.1833 35.9265C25.8061 37.0164 23.673 38.5792 21.8423 40.5744C20.0207 42.5498 18.5684 44.8899 17.5655 47.4654C16.5802 49.9869 16.0489 52.6902 16.0001 55.4291C15.9987 55.4906 16.0086 55.5519 16.0293 55.6092C16.05 55.6665 16.0811 55.7187 16.1207 55.7628C16.1602 55.8068 16.2075 55.8419 16.2597 55.8658C16.3119 55.8897 16.368 55.902 16.4246 55.9019H19.6084C19.8419 55.9019 20.0276 55.7001 20.0329 55.4522C20.139 51.0004 21.784 46.8311 24.6918 43.671C27.7004 40.4014 31.6961 38.6022 35.9517 38.6022C40.2073 38.6022 44.2029 40.4014 47.2116 43.671C50.1194 46.8311 51.7644 51.0004 51.8705 55.4522C51.8758 55.7059 52.0615 55.9019 52.295 55.9019H55.4787C55.5354 55.902 55.5915 55.8897 55.6437 55.8658C55.6959 55.8419 55.7432 55.8068 55.7827 55.7628C55.8223 55.7187 55.8533 55.6665 55.874 55.6092C55.8947 55.5519 55.9047 55.4906 55.9032 55.4291C55.8502 52.6727 55.3249 49.9912 54.3379 47.4597V47.4597ZM35.9517 34.2196C33.5161 34.2196 31.2238 33.1874 29.4993 31.3133C27.7747 29.4391 26.8249 26.948 26.8249 24.3011C26.8249 21.6543 27.7747 19.1631 29.4993 17.289C31.2238 15.4148 33.5161 14.3826 35.9517 14.3826C38.3873 14.3826 40.6796 15.4148 42.4041 17.289C44.1286 19.1631 45.0785 21.6543 45.0785 24.3011C45.0785 26.948 44.1286 29.4391 42.4041 31.3133C40.6796 33.1874 38.3873 34.2196 35.9517 34.2196Z" fill="white"/>
</svg>
