<svg width="152" height="90" viewBox="0 0 152 90" fill="none" xmlns="http://www.w3.org/2000/svg">
<path d="M60.9138 19.7239L65.8135 13.4147C66.3307 12.7487 67.1753 12.425 68.005 12.5743C68.835 12.7236 69.5135 13.3216 69.7659 14.1261L74.1038 27.9481L80.5982 18.1993C81.0451 17.5285 81.8141 17.1464 82.6191 17.1933C83.4237 17.2412 84.1422 17.7128 84.5064 18.4318L86.88 23.1192L88.3683 20.9306C88.7903 20.31 89.492 19.9385 90.2424 19.9385H103.426C103.787 18.4856 103.956 16.9131 103.863 15.174C103.453 7.48428 97.1805 1.13323 89.4996 1.13323C81.6028 1.13323 76.0099 9.58063 76.0099 9.58063C76.0099 9.58063 70.0808 1.13323 62.5236 1.13323C54.842 1.13323 48.5695 7.48439 48.1591 15.174C48.0706 16.8291 48.2181 18.3315 48.5436 19.7238H60.9138V19.7239Z" fill="#A3D8F4"/>
<path d="M50.3419 24.2567C50.6384 24.7881 50.9569 25.3076 51.2921 25.8188C55.2512 31.8538 75.9846 48.8668 75.9846 48.8668C75.9846 48.8668 96.7965 31.8013 100.729 25.8188C101.02 25.3773 101.297 24.9288 101.559 24.4715H91.442L88.468 28.845C88.0171 29.5085 87.2503 29.8836 86.4485 29.8324C85.6481 29.781 84.9344 29.3102 84.5718 28.5946L82.2172 23.9449L75.2474 34.4074C74.8236 35.0438 74.1124 35.4173 73.3616 35.4174C73.2553 35.4174 73.1481 35.4099 73.0409 35.3946C72.1767 35.2712 71.4602 34.6625 71.1988 33.8295L66.7376 19.6148L63.8132 23.3804C63.3838 23.9332 62.7231 24.2566 62.0232 24.2566" fill="#B9FFFC"/>
<path d="M54.7049 25.3375C54.2253 25.3375 53.7858 25.0217 53.6317 24.5682C53.4769 24.1127 53.6348 23.5984 54.0152 23.3052C54.3757 23.0273 54.8785 22.9983 55.2721 23.2241C55.6747 23.4552 55.9001 23.9306 55.8223 24.3888C55.7307 24.928 55.254 25.3375 54.7049 25.3375Z" fill="white"/>
<path d="M58.4446 25.3375C57.965 25.3375 57.5256 25.0217 57.3714 24.5682C57.2166 24.1127 57.3745 23.5984 57.7549 23.3052C58.1154 23.0273 58.6182 22.9983 59.0118 23.2241C59.4145 23.4552 59.6399 23.9306 59.562 24.3888C59.4704 24.928 58.9937 25.3375 58.4446 25.3375Z" fill="white"/>
<path d="M75.9847 50C75.7298 50 75.4749 49.9142 75.2658 49.7428C74.4139 49.0437 54.3525 32.5498 50.3446 26.4404C49.9753 25.8773 49.6508 25.3436 49.3524 24.809C49.0474 24.2625 49.2431 23.5722 49.7897 23.2672C50.336 22.9625 51.0265 23.1581 51.3314 23.7045C51.6033 24.1917 51.9004 24.68 52.2397 25.1974C55.6499 30.3958 72.3054 44.3446 75.985 47.3969C79.5784 44.4185 95.5552 31.0518 99.4997 25.6047H92.042L89.4052 29.4823C88.7322 30.4723 87.5699 31.0405 86.3763 30.9633C85.1808 30.8865 84.1023 30.175 83.561 29.1066L82.0838 26.1893L76.1906 35.0356C75.5591 35.984 74.5016 36.5504 73.3619 36.5507C73.2019 36.5507 73.0403 36.5391 72.8813 36.5165C71.5921 36.3324 70.5075 35.411 70.1177 34.1688L66.3048 22.0199L64.7085 24.0757C64.0595 24.911 63.0809 25.3901 62.0234 25.3901C61.3976 25.3901 60.8902 24.8826 60.8902 24.2569C60.8902 23.631 61.3976 23.1236 62.0234 23.1236C62.3758 23.1236 62.7021 22.964 62.9184 22.6854L65.8427 18.9198C66.1013 18.5869 66.5231 18.4251 66.9385 18.4996C67.3535 18.5743 67.6927 18.8732 67.8191 19.2757L72.2802 33.4904C72.4101 33.9043 72.7717 34.2116 73.2013 34.2729C73.2545 34.2803 73.3085 34.2843 73.3619 34.2843C73.7415 34.2842 74.094 34.0955 74.3044 33.7794L81.2743 23.3167C81.4978 22.9813 81.8823 22.7902 82.2847 22.8138C82.6871 22.8377 83.0463 23.0735 83.2283 23.4331L85.5829 28.0829C85.7633 28.439 86.1229 28.6761 86.5212 28.7017C86.9199 28.7275 87.3067 28.5382 87.5308 28.2082L90.505 23.8345C90.716 23.5242 91.067 23.3385 91.4422 23.3385H101.559C101.964 23.3385 102.337 23.5537 102.54 23.9034C102.743 24.2531 102.744 24.6843 102.543 25.0349C102.281 25.4914 101.99 25.9646 101.676 26.4415C97.6943 32.4987 77.5584 49.0419 76.7032 49.7432C76.4945 49.9143 76.2395 50 75.9847 50Z" fill="white"/>
<path d="M74.1041 29.0814C74.051 29.0814 73.9975 29.0777 73.9438 29.0701C73.5117 29.0084 73.1534 28.7041 73.0227 28.2876L68.6848 14.4656C68.5581 14.062 68.2207 13.7646 67.8043 13.6897C67.3882 13.6146 66.9681 13.7758 66.7085 14.1099L61.8089 20.4191C61.5941 20.6955 61.2638 20.8572 60.9139 20.8572H48.5435C48.017 20.8572 47.5598 20.4947 47.44 19.9819C47.0715 18.4057 46.9365 16.8133 47.0273 15.1138C47.2423 11.0865 48.9437 7.30432 51.818 4.464C54.7312 1.58538 58.5332 0 62.5235 0C68.8341 0 73.9479 5.25873 75.9889 7.71047C77.9629 5.24275 82.9308 0 89.4995 0C93.4896 0 97.2913 1.58527 100.204 4.464C103.079 7.3042 104.78 11.0863 104.995 15.1138C105.09 16.8947 104.936 18.5623 104.526 20.2122C104.4 20.7173 103.947 21.0719 103.426 21.0719H90.2425C89.867 21.0719 89.5167 21.2574 89.3055 21.5679L87.8172 23.7565C87.5917 24.0881 87.2087 24.2756 86.8074 24.2501C86.4071 24.2243 86.0503 23.9889 85.8692 23.6312L83.4955 18.9438C83.3141 18.5858 82.9525 18.3485 82.5518 18.3246C82.1516 18.3002 81.7636 18.494 81.5414 18.8276L75.047 28.5763C74.8351 28.8945 74.4795 29.0814 74.1041 29.0814ZM67.599 11.4047C67.8001 11.4047 68.003 11.4225 68.2057 11.4591C69.4551 11.6839 70.4671 12.5759 70.8473 13.7868L74.4753 25.3467L79.6553 17.5711C80.322 16.5702 81.4825 15.9931 82.6852 16.0621C83.8885 16.1338 84.9733 16.8456 85.5174 17.9199L87.0233 20.8936L87.4313 20.2936C88.065 19.3617 89.1159 18.8055 90.2426 18.8055H102.513C102.726 17.6532 102.798 16.4771 102.732 15.2345C102.35 8.08409 96.4142 2.26656 89.4996 2.26656C82.295 2.26656 77.0075 10.127 76.9549 10.2063C76.7481 10.5187 76.4001 10.7088 76.0254 10.7139C76.0203 10.714 76.0151 10.714 76.01 10.714C75.641 10.714 75.2948 10.5342 75.0826 10.2318C75.0269 10.1529 69.3923 2.26656 62.5237 2.26656C55.6089 2.26656 49.6725 8.08409 49.2907 15.2347C49.2284 16.4016 49.2874 17.5074 49.4709 18.5908H60.3593L64.9187 12.7197C65.5706 11.8801 66.5606 11.4047 67.599 11.4047Z" fill="white"/>
<path d="M4.63527 79V57.85H9.22527L15.9753 69.97L22.7253 57.85H27.1953V79H22.2153V67.51L17.3853 75.88H14.3853L9.61527 67.63V79H4.63527ZM38.1989 79.33C36.5589 79.33 35.1289 79.02 33.9089 78.4C32.6889 77.78 31.7389 76.89 31.0589 75.73C30.3789 74.57 30.0389 73.2 30.0389 71.62C30.0389 70.02 30.3789 68.65 31.0589 67.51C31.7389 66.35 32.6889 65.46 33.9089 64.84C35.1289 64.22 36.5589 63.91 38.1989 63.91C39.8389 63.91 41.2689 64.22 42.4889 64.84C43.7089 65.46 44.6489 66.35 45.3089 67.51C45.9889 68.65 46.3289 70.02 46.3289 71.62C46.3289 73.2 45.9889 74.57 45.3089 75.73C44.6489 76.89 43.7089 77.78 42.4889 78.4C41.2689 79.02 39.8389 79.33 38.1989 79.33ZM38.1989 75.4C38.9989 75.4 39.6589 75.1 40.1789 74.5C40.6989 73.9 40.9589 72.94 40.9589 71.62C40.9589 70.28 40.6989 69.32 40.1789 68.74C39.6589 68.14 38.9989 67.84 38.1989 67.84C37.3789 67.84 36.7089 68.14 36.1889 68.74C35.6689 69.32 35.4089 70.28 35.4089 71.62C35.4089 72.94 35.6689 73.9 36.1889 74.5C36.7089 75.1 37.3789 75.4 38.1989 75.4ZM48.7758 79V64.24H53.9658V66.25C54.4858 65.49 55.1558 64.91 55.9758 64.51C56.7958 64.11 57.7158 63.91 58.7358 63.91C60.4958 63.91 61.7958 64.43 62.6358 65.47C63.4958 66.51 63.9258 68.11 63.9258 70.27V79H58.5858V70.48C58.5858 69.58 58.4258 68.94 58.1058 68.56C57.8058 68.18 57.3558 67.99 56.7558 67.99C55.9558 67.99 55.3158 68.25 54.8358 68.77C54.3558 69.27 54.1158 69.95 54.1158 70.81V79H48.7758ZM67.3292 79V57.85H72.8492V66.01H81.5792V57.85H87.0692V79H81.5792V70.54H72.8492V79H67.3292ZM98.5932 79.33C96.7932 79.33 95.2332 79.02 93.9132 78.4C92.6132 77.76 91.6132 76.86 90.9132 75.7C90.2132 74.54 89.8632 73.17 89.8632 71.59C89.8632 70.09 90.1932 68.76 90.8532 67.6C91.5332 66.44 92.4532 65.54 93.6132 64.9C94.7932 64.24 96.1332 63.91 97.6332 63.91C99.1132 63.91 100.393 64.22 101.473 64.84C102.573 65.46 103.413 66.35 103.993 67.51C104.593 68.65 104.893 69.99 104.893 71.53V72.7H94.9632C95.1432 73.66 95.5432 74.35 96.1632 74.77C96.7832 75.19 97.6432 75.4 98.7432 75.4C99.5032 75.4 100.293 75.29 101.113 75.07C101.953 74.83 102.693 74.49 103.333 74.05L104.653 77.56C103.893 78.1 102.963 78.53 101.863 78.85C100.763 79.17 99.6732 79.33 98.5932 79.33ZM97.8732 67.36C97.0732 67.36 96.4132 67.6 95.8932 68.08C95.3932 68.56 95.0732 69.26 94.9332 70.18H100.513C100.453 69.24 100.193 68.54 99.7332 68.08C99.2932 67.6 98.6732 67.36 97.8732 67.36ZM112.324 79.33C111.184 79.33 110.174 79.12 109.294 78.7C108.434 78.28 107.754 77.71 107.254 76.99C106.774 76.25 106.534 75.41 106.534 74.47C106.534 73.41 106.814 72.57 107.374 71.95C107.934 71.31 108.834 70.86 110.074 70.6C111.314 70.32 112.964 70.18 115.024 70.18H116.164V69.76C116.164 69.04 115.974 68.53 115.594 68.23C115.234 67.93 114.604 67.78 113.704 67.78C112.944 67.78 112.104 67.9 111.184 68.14C110.264 68.38 109.364 68.75 108.484 69.25L107.134 65.74C107.634 65.38 108.274 65.06 109.054 64.78C109.834 64.5 110.654 64.29 111.514 64.15C112.374 63.99 113.184 63.91 113.944 63.91C116.404 63.91 118.224 64.44 119.404 65.5C120.604 66.56 121.204 68.23 121.204 70.51V79H116.224V76.9C115.964 77.66 115.494 78.26 114.814 78.7C114.134 79.12 113.304 79.33 112.324 79.33ZM113.524 75.85C114.264 75.85 114.884 75.61 115.384 75.13C115.904 74.65 116.164 74.02 116.164 73.24V72.7H115.024C113.844 72.7 112.974 72.83 112.414 73.09C111.874 73.33 111.604 73.72 111.604 74.26C111.604 74.72 111.764 75.1 112.084 75.4C112.424 75.7 112.904 75.85 113.524 75.85ZM124.245 79V64.24H129.435V66.73C130.115 65.03 131.585 64.1 133.845 63.94L135.315 63.82L135.615 68.32L132.705 68.59C131.645 68.69 130.875 68.99 130.395 69.49C129.915 69.97 129.675 70.69 129.675 71.65V79H124.245ZM145.871 79.33C143.631 79.33 141.971 78.81 140.891 77.77C139.811 76.73 139.271 75.16 139.271 73.06V68.17H136.511V64.24H139.271V59.95H144.611V64.24H148.811V68.17H144.611V72.88C144.611 74.32 145.341 75.04 146.801 75.04C147.041 75.04 147.301 75.02 147.581 74.98C147.881 74.92 148.211 74.84 148.571 74.74L149.291 78.58C148.831 78.82 148.291 79 147.671 79.12C147.051 79.26 146.451 79.33 145.871 79.33Z" fill="white"/>
</svg>
