<svg width="100" height="144" viewBox="0 0 100 144" fill="none" xmlns="http://www.w3.org/2000/svg">
<path fill-rule="evenodd" clip-rule="evenodd" d="M63.9845 6.57166C65.223 11.1355 66.837 21.3941 65.19 23.0033H54.7703C54.7692 22.9848 54.7682 22.9664 54.7672 22.948C50.9052 22.5206 47.9015 19.2462 47.9015 15.2703V7.72495C47.9015 3.45858 51.3601 0 55.6264 0H56.345C60.2195 0 63.4277 2.85232 63.9845 6.57166Z" fill="#191847"/>
<path fill-rule="evenodd" clip-rule="evenodd" d="M51.948 13.8295C50.2924 11.8861 49.1718 9.50453 49.3591 6.83585C49.8986 -0.853344 60.6022 0.838181 62.6843 4.71903C64.7663 8.59987 64.5189 18.444 61.828 19.1376C60.7549 19.4142 58.4688 18.7366 56.1421 17.3342L57.6026 27.6661H48.9794L51.948 13.8295Z" fill="#E7C0A8"/>
<path fill-rule="evenodd" clip-rule="evenodd" d="M54.279 12.5305C54.6763 16.7983 54.5172 21.672 53.3331 22.8289H42.9134C42.3328 12.742 47.9436 16.6481 47.9436 7.15108C48.2934 6.80929 48.624 6.47101 48.951 6.17927L48.9394 5.89996C50.7437 2.20619 53.0328 0.359301 55.8066 0.359301C59.9673 0.359301 61.2806 2.29533 62.3988 3.93904C61.5626 6.80808 58.3177 7.2335 55.4345 9.02185C55.0946 8.74573 54.6612 8.58024 54.1892 8.58024C53.0978 8.58024 52.2131 9.46499 52.2131 10.5564C52.2131 11.6478 53.0978 12.5325 54.1892 12.5325C54.2193 12.5325 54.2493 12.5319 54.279 12.5305Z" fill="#191847"/>
<path fill-rule="evenodd" clip-rule="evenodd" d="M35.1132 92.7311C43.7326 95.142 51.1691 96.3474 57.4228 96.3474C63.6765 96.3474 69.4852 94.491 74.849 90.7784C66.4141 88.3039 59.4677 87.0666 54.0096 87.0666C48.5515 87.0666 42.2527 88.9548 35.1132 92.7311Z" fill="#1F28CF"/>
<path fill-rule="evenodd" clip-rule="evenodd" d="M64.8844 99.8223C64.8013 99.6974 64.7311 99.5615 64.6755 99.4143C63.5233 96.3674 45.0691 63.4975 43.2306 57.488H64.0075C65.4053 62.0571 71.6968 90.7304 72.5823 96.4511C75.3759 105.475 81.1278 134.7 81.8621 136.725C82.6346 138.854 78.2883 141.073 77.1301 138.455C75.2872 134.288 70.8962 122.76 68.9411 115.721C67.1081 109.122 65.6156 103.185 64.8844 99.8223Z" fill="#E8B798"/>
<path fill-rule="evenodd" clip-rule="evenodd" d="M47.886 103.835C39.449 105.968 8.58828 109.823 6.47048 110.428C4.29193 111.05 2.38175 106.559 5.07456 105.586C9.35928 104.039 21.1656 100.462 28.3239 99.003C34.0815 97.8292 39.3354 96.8714 42.8628 96.3105C42.5639 86.4022 41.1979 62.6237 42.0933 57.488H60.477C59.6184 62.4128 52.3604 98.3468 51.0114 101.944C50.5833 103.228 49.3059 103.795 47.886 103.835Z" fill="#E7C0A8"/>
<path fill-rule="evenodd" clip-rule="evenodd" d="M5.27011 104.391C4.14357 104.181 3.31798 104.123 2.79334 104.215C2.15527 104.328 1.2429 104.598 0.056232 105.027C0.186752 105.767 1.35976 112.419 3.57524 124.984C5.38123 125.2 6.25406 124.738 6.19375 123.596C6.13344 122.455 6.0932 121.505 6.07305 120.746L8.57272 110.741C8.62082 110.548 8.50374 110.353 8.31122 110.305C8.30793 110.305 8.30463 110.304 8.30131 110.303L6.74982 109.962C6.0848 109.012 5.69527 108.214 5.58124 107.568C5.48859 107.042 5.57285 106.279 5.83402 105.279L5.83402 105.279C5.93425 104.895 5.70419 104.502 5.32018 104.402C5.30363 104.398 5.28693 104.394 5.27011 104.391Z" fill="#E4E4E4"/>
<path fill-rule="evenodd" clip-rule="evenodd" d="M75.8112 138.116C75.4093 139.189 75.2083 139.992 75.2083 140.524C75.2083 141.172 75.3162 142.118 75.5321 143.361C76.2837 143.361 83.0388 143.361 95.7973 143.361C96.3239 141.62 96.0199 140.68 94.8853 140.541C93.7507 140.402 92.8081 140.277 92.0577 140.165L82.6386 135.966C82.4574 135.885 82.2449 135.967 82.1641 136.148C82.1628 136.151 82.1614 136.154 82.1601 136.157L81.5547 137.626C80.5043 138.116 79.6508 138.361 78.9941 138.361C78.4606 138.361 77.7237 138.145 76.7836 137.715L76.7836 137.715C76.4229 137.549 75.9963 137.708 75.8309 138.068C75.8238 138.084 75.8172 138.1 75.8112 138.116Z" fill="#E4E4E4"/>
<path fill-rule="evenodd" clip-rule="evenodd" d="M42.1527 57.488C50.2537 55.1703 57.9188 55.1703 65.1479 57.488C67.663 68.9632 73.7743 73.5177 74.849 91.111C62.6328 97.1809 47.5422 86.7819 34.9667 92.7014C31.3737 84.4216 36.4039 64.4816 42.1527 57.488Z" fill="#2BCCFF"/>
<path fill-rule="evenodd" clip-rule="evenodd" d="M77.0048 43.2277L91.191 41.2926C94.0288 39.7142 96.6395 38.6456 99.0229 38.0869C99.6937 38.0673 100.761 38.3111 99.1711 39.6363C97.5816 40.9614 95.9687 42.4273 96.252 43.1345C96.5352 43.8417 98.0134 43.5786 98.2583 44.6664C98.4216 45.3915 96.0224 45.5094 91.0609 45.0199L79.55 49.5834L77.0048 43.2277ZM32.4407 46.5113L40.3084 46.5408C31.6813 65.9552 27.1829 76.1202 26.8134 77.036C25.982 79.0964 27.7413 82.2344 28.4937 83.9207C26.0433 85.0172 26.3044 80.9564 23.2132 82.3945C20.3917 83.7072 18.2454 86.0856 14.9856 84.0742C14.5849 83.8269 14.1457 82.8958 15.2068 82.1682C17.8504 80.3555 21.6601 77.183 22.1748 76.1387C22.8768 74.7146 26.2987 64.8388 32.4407 46.5113Z" fill="#E7C0A8"/>
<path fill-rule="evenodd" clip-rule="evenodd" d="M53.9914 21.558L60.1516 21.9684C61.6687 35.6941 69.9325 44.3638 88.4345 41.4288L90.8926 59.1044C73.5996 61.3393 58.4336 54.416 55.3255 35.6708C54.5209 30.8182 53.8855 25.7682 53.9914 21.558Z" fill="#AFB9C5"/>
<path fill-rule="evenodd" clip-rule="evenodd" d="M50.9522 19.7672L60.2857 21.9048C60.2857 37.9581 65.3994 48.2003 68.0223 60.0031H42.8151C42.46 64.0815 42.2419 68.2733 42.1283 72.5786H23.2541C27.5311 49.822 36.5584 32.2163 50.336 19.7615H50.9473L50.9522 19.7672Z" fill="#C5CFD6"/>
<path fill-rule="evenodd" clip-rule="evenodd" d="M46.7921 37.1011C46.1425 47.1044 46.5246 54.7385 47.9383 60.0031H42.8151C43.5185 51.9239 44.7597 44.2899 46.7921 37.1011V37.1011Z" fill="black" fill-opacity="0.1"/>
</svg>
